<?xml version="1.0" standalone="no"?>
<!DOCTYPE svg PUBLIC "-//W3C//DTD SVG 1.1//EN" "http://www.w3.org/Graphics/SVG/1.1/DTD/svg11.dtd" >
<svg xmlns="http://www.w3.org/2000/svg" xmlns:xlink="http://www.w3.org/1999/xlink" version="1.1">
<metadata>
Created by FontForge 20170924 at Mon Jan 14 01:38:01 2019
 By www-data
Copyright \251 2019 by Jason Vandenberg. All rights reserved. |DCNT
</metadata>
<defs>
<font id="Stash-Bold" horiz-adv-x="548" >
  <font-face 
    font-family="Stash Bold"
    font-weight="700"
    font-style="italic"
    font-stretch="normal"
    units-per-em="1000"
    panose-1="0 0 8 0 0 0 0 0 0 0"
    ascent="736"
    descent="-264"
    x-height="418"
    cap-height="734"
    bbox="-3137 -392 3446 991"
    underline-thickness="50"
    underline-position="-100"
    slope="-25"
    unicode-range="U+0020-2212"
  />
<missing-glyph horiz-adv-x="425" 
d="M-57 16l313 674c3 7 8 10 17 10h330c9 0 14 -7 10 -16l-313 -674c-3 -7 -8 -10 -17 -10h-330c-9 0 -14 7 -10 16zM-12 36h287l293 628h-287z" />
    <glyph glyph-name="f_f" unicode="ff" horiz-adv-x="750" 
d="M-254 -277c-1 3 -2 5 -2 6c0 4 2 8 7 13c22 19 39 39 52 58s28 47 46 86l166 354l75 160c45 96 94 177 146 243s106 99 162 99c48 0 71 -32 71 -87c3 -127 -141 -377 -326 -488c6 -56 30 -84 73 -84c37 0 71 17 101 51c31 35 55 70 73 106l110 233c46 97 96 180 149 249
c54 69 109 103 165 103c45 0 68 -32 68 -87c0 -49 -16 -111 -49 -184c-32 -73 -76 -144 -132 -215s-117 -127 -183 -170c7 -57 31 -86 73 -86c37 0 71 17 101 51c31 35 55 70 73 106c3 7 8 10 17 10c12 0 27 -10 27 -22c0 -1 -1 -4 -2 -8c-23 -51 -55 -96 -96 -136
c-40 -40 -83 -60 -129 -60c-53 0 -88 30 -108 75l-87 -186c-48 -101 -111 -171 -188 -171c-29 0 -48 9 -57 26c-1 3 -2 5 -2 6c0 4 2 8 7 13c22 19 39 39 52 58s28 47 46 86l60 127c-33 -23 -65 -34 -98 -34c-53 0 -89 30 -108 75l-108 -231c-47 -100 -110 -170 -187 -170
c-30 0 -49 8 -58 25zM416 663c0 14 -4 21 -11 21c-32 0 -74 -85 -149 -248l-14 -30l-69 -148c139 113 245 338 243 405zM832 745c0 15 -4 22 -11 22c-32 0 -75 -85 -150 -246l-19 -42l-104 -222c52 45 100 101 143 167s78 129 103 189c25 61 38 105 38 132z" />
    <glyph glyph-name="t_t" unicode="tt" horiz-adv-x="619" 
d="M-30 90c0 35 11 78 34 127l11 23l59 127h-39c-9 0 -14 7 -10 16l11 25c3 7 8 10 17 10h45l69 150c3 7 8 11 16 12l130 18h4c8 0 12 -6 8 -15l-77 -165h159l82 177c3 7 8 11 16 12l130 18h4c9 0 11 -5 7 -15l-89 -192h76c9 0 14 -7 10 -16l-11 -25c-3 -7 -8 -10 -17 -10
h-82l-80 -171c-13 -29 -20 -53 -20 -73c0 -28 14 -43 37 -43c44 0 116 55 164 160c3 7 8 10 17 10c12 0 27 -10 27 -22c0 -1 -1 -4 -2 -8c-64 -139 -188 -235 -287 -235c-68 0 -110 38 -110 106c-61 -67 -136 -106 -200 -106c-67 0 -109 37 -109 105zM324 240l59 127h-159
l-80 -171c-13 -29 -20 -53 -20 -73c0 -28 14 -43 37 -43c45 0 115 59 163 160z" />
    <glyph glyph-name=".notdef" horiz-adv-x="425" 
d="M-57 16l313 674c3 7 8 10 17 10h330c9 0 14 -7 10 -16l-313 -674c-3 -7 -8 -10 -17 -10h-330c-9 0 -14 7 -10 16zM-12 36h287l293 628h-287z" />
    <glyph glyph-name="space" unicode=" " horiz-adv-x="231" 
 />
    <glyph glyph-name="A" unicode="A" horiz-adv-x="708" 
d="M-173 -3c0 6 0 11 1 14c1 7 6 12 15 13c85 9 155 81 251 198c11 12 19 24 28 33l194 230c42 50 81 92 117 127c73 69 163 120 264 120c29 0 59 -5 92 -15c9 -1 13 -10 9 -18l-239 -513c-17 -37 -26 -66 -26 -87c0 -20 7 -30 21 -30c40 0 121 70 169 171c3 7 8 10 17 10
c12 0 27 -10 27 -22c0 -1 -1 -4 -2 -8c-66 -139 -192 -243 -297 -243c-59 0 -94 29 -94 89c0 39 14 88 41 145h-231l-8 -10l-21 -25c-124 -148 -203 -232 -270 -232c-37 0 -58 22 -58 53zM235 271h208l184 392c-77 -28 -136 -85 -204 -168z" />
    <glyph glyph-name="Aacute" unicode="&#xc1;" horiz-adv-x="708" 
d="M-173 -3c0 6 0 11 1 14c1 7 6 12 15 13c85 9 155 81 251 198c11 12 19 24 28 33l194 230c42 50 81 92 117 127c73 69 163 120 264 120c29 0 59 -5 92 -15c9 -1 13 -10 9 -18l-239 -513c-17 -37 -26 -66 -26 -87c0 -20 7 -30 21 -30c40 0 121 70 169 171c3 7 8 10 17 10
c12 0 27 -10 27 -22c0 -1 -1 -4 -2 -8c-66 -139 -192 -243 -297 -243c-59 0 -94 29 -94 89c0 39 14 88 41 145h-231l-8 -10l-21 -25c-124 -148 -203 -232 -270 -232c-37 0 -58 22 -58 53zM235 271h208l184 392c-77 -28 -136 -85 -204 -168zM678 772c0 2 1 5 4 9l116 144
c5 7 11 8 19 5l57 -22c6 -2 9 -5 9 -10c0 -3 -2 -6 -5 -9l-138 -119c-4 -4 -10 -6 -17 -6h-33c-8 0 -12 3 -12 8z" />
    <glyph glyph-name="Abreve" unicode="&#x102;" horiz-adv-x="708" 
d="M-173 -3c0 6 0 11 1 14c1 7 6 12 15 13c85 9 155 81 251 198c11 12 19 24 28 33l194 230c42 50 81 92 117 127c73 69 163 120 264 120c29 0 59 -5 92 -15c9 -1 13 -10 9 -18l-239 -513c-17 -37 -26 -66 -26 -87c0 -20 7 -30 21 -30c40 0 121 70 169 171c3 7 8 10 17 10
c12 0 27 -10 27 -22c0 -1 -1 -4 -2 -8c-66 -139 -192 -243 -297 -243c-59 0 -94 29 -94 89c0 39 14 88 41 145h-231l-8 -10l-21 -25c-124 -148 -203 -232 -270 -232c-37 0 -58 22 -58 53zM235 271h208l184 392c-77 -28 -136 -85 -204 -168zM608 857c0 15 2 30 7 46
c3 8 9 12 16 12h12c9 0 13 -5 13 -15c-4 -39 19 -64 58 -64c40 0 99 26 128 70c4 6 10 9 17 9h13c7 0 10 -3 10 -10c0 -5 -1 -9 -4 -14c-43 -73 -119 -118 -182 -118c-51 0 -88 29 -88 84z" />
    <glyph glyph-name="Acircumflex" unicode="&#xc2;" horiz-adv-x="708" 
d="M-173 -3c0 6 0 11 1 14c1 7 6 12 15 13c85 9 155 81 251 198c11 12 19 24 28 33l194 230c42 50 81 92 117 127c73 69 163 120 264 120c29 0 59 -5 92 -15c9 -1 13 -10 9 -18l-239 -513c-17 -37 -26 -66 -26 -87c0 -20 7 -30 21 -30c40 0 121 70 169 171c3 7 8 10 17 10
c12 0 27 -10 27 -22c0 -1 -1 -4 -2 -8c-66 -139 -192 -243 -297 -243c-59 0 -94 29 -94 89c0 39 14 88 41 145h-231l-8 -10l-21 -25c-124 -148 -203 -232 -270 -232c-37 0 -58 22 -58 53zM235 271h208l184 392c-77 -28 -136 -85 -204 -168zM569 772c0 3 2 6 5 9l139 136
c5 5 10 7 17 7h55c8 0 14 -5 15 -13l24 -132v-4c0 -7 -4 -11 -12 -11h-29c-7 0 -13 4 -16 11l-29 83l-103 -88c-4 -4 -10 -6 -18 -6h-36c-8 0 -12 3 -12 8z" />
    <glyph glyph-name="Adieresis" unicode="&#xc4;" horiz-adv-x="708" 
d="M-173 -3c0 6 0 11 1 14c1 7 6 12 15 13c85 9 155 81 251 198c11 12 19 24 28 33l194 230c42 50 81 92 117 127c73 69 163 120 264 120c29 0 59 -5 92 -15c9 -1 13 -10 9 -18l-239 -513c-17 -37 -26 -66 -26 -87c0 -20 7 -30 21 -30c40 0 121 70 169 171c3 7 8 10 17 10
c12 0 27 -10 27 -22c0 -1 -1 -4 -2 -8c-66 -139 -192 -243 -297 -243c-59 0 -94 29 -94 89c0 39 14 88 41 145h-231l-8 -10l-21 -25c-124 -148 -203 -232 -270 -232c-37 0 -58 22 -58 53zM235 271h208l184 392c-77 -28 -136 -85 -204 -168zM742 827c0 32 33 69 74 69
c27 0 40 -14 40 -37c0 -32 -30 -67 -73 -67c-28 0 -41 15 -41 35zM601 827c0 32 33 69 74 69c27 0 40 -14 40 -37c0 -32 -30 -67 -73 -67c-28 0 -41 15 -41 35z" />
    <glyph glyph-name="Agrave" unicode="&#xc0;" horiz-adv-x="708" 
d="M-173 -3c0 6 0 11 1 14c1 7 6 12 15 13c85 9 155 81 251 198c11 12 19 24 28 33l194 230c42 50 81 92 117 127c73 69 163 120 264 120c29 0 59 -5 92 -15c9 -1 13 -10 9 -18l-239 -513c-17 -37 -26 -66 -26 -87c0 -20 7 -30 21 -30c40 0 121 70 169 171c3 7 8 10 17 10
c12 0 27 -10 27 -22c0 -1 -1 -4 -2 -8c-66 -139 -192 -243 -297 -243c-59 0 -94 29 -94 89c0 39 14 88 41 145h-231l-8 -10l-21 -25c-124 -148 -203 -232 -270 -232c-37 0 -58 22 -58 53zM235 271h208l184 392c-77 -28 -136 -85 -204 -168zM661 773l-74 123c-1 2 -2 5 -2 8
c0 6 3 9 9 10l65 17l5 1c6 0 10 -3 12 -10l50 -142c1 -1 1 -3 1 -6c0 -7 -4 -10 -12 -10h-37c-7 0 -13 3 -17 9z" />
    <glyph glyph-name="Amacron" unicode="&#x100;" horiz-adv-x="708" 
d="M-173 -3c0 6 0 11 1 14c1 7 6 12 15 13c85 9 155 81 251 198c11 12 19 24 28 33l194 230c42 50 81 92 117 127c73 69 163 120 264 120c29 0 59 -5 92 -15c9 -1 13 -10 9 -18l-239 -513c-17 -37 -26 -66 -26 -87c0 -20 7 -30 21 -30c40 0 121 70 169 171c3 7 8 10 17 10
c12 0 27 -10 27 -22c0 -1 -1 -4 -2 -8c-66 -139 -192 -243 -297 -243c-59 0 -94 29 -94 89c0 39 14 88 41 145h-231l-8 -10l-21 -25c-124 -148 -203 -232 -270 -232c-37 0 -58 22 -58 53zM235 271h208l184 392c-77 -28 -136 -85 -204 -168zM596 831l14 31c3 7 8 11 17 11
h218c11 0 15 -8 10 -17l-15 -31c-3 -7 -8 -10 -16 -10h-218c-9 0 -14 7 -10 16z" />
    <glyph glyph-name="Aogonek" unicode="&#x104;" horiz-adv-x="708" 
d="M361 -136c0 37 24 78 83 115c-47 7 -70 36 -70 87c0 39 14 88 41 145h-231l-8 -10l-21 -25c-124 -148 -203 -232 -270 -232c-37 0 -58 22 -58 53c0 6 0 11 1 14c1 7 6 12 15 13c85 9 155 81 251 198c11 12 19 24 28 33l194 230c42 50 81 92 117 127
c73 69 163 120 264 120c29 0 59 -5 92 -15c9 -1 13 -10 9 -18l-239 -513c-17 -37 -26 -66 -26 -87c0 -20 7 -30 21 -30c40 0 121 70 169 171c3 7 8 10 17 10c12 0 27 -10 27 -22c0 -1 -1 -4 -2 -8c-26 -54 -60 -102 -101 -143s-83 -70 -126 -86c-77 -43 -102 -80 -102 -107
c0 -16 13 -26 33 -26c8 0 16 1 23 4c1 1 3 1 6 1c7 0 10 -4 10 -12v-29c0 -8 -3 -13 -10 -16c-19 -9 -37 -13 -54 -13c-47 0 -83 27 -83 71zM235 271h208l184 392c-77 -28 -136 -85 -204 -168z" />
    <glyph glyph-name="Aring" unicode="&#xc5;" horiz-adv-x="708" 
d="M-173 -3c0 6 0 11 1 14c1 7 6 12 15 13c85 9 155 81 251 198c11 12 19 24 28 33l194 230c42 50 81 92 117 127c73 69 163 120 264 120c29 0 59 -5 92 -15c9 -1 13 -10 9 -18l-239 -513c-17 -37 -26 -66 -26 -87c0 -20 7 -30 21 -30c40 0 121 70 169 171c3 7 8 10 17 10
c12 0 27 -10 27 -22c0 -1 -1 -4 -2 -8c-66 -139 -192 -243 -297 -243c-59 0 -94 29 -94 89c0 39 14 88 41 145h-231l-8 -10l-21 -25c-124 -148 -203 -232 -270 -232c-37 0 -58 22 -58 53zM235 271h208l184 392c-77 -28 -136 -85 -204 -168zM636 829c0 27 11 50 32 68
c22 18 47 27 74 27c41 0 70 -24 70 -65c0 -55 -49 -95 -105 -95c-41 0 -71 24 -71 65zM770 854c0 21 -14 36 -34 36c-29 0 -57 -26 -57 -57c0 -21 14 -35 35 -35c29 0 56 25 56 56z" />
    <glyph glyph-name="Atilde" unicode="&#xc3;" horiz-adv-x="708" 
d="M-173 -3c0 6 0 11 1 14c1 7 6 12 15 13c85 9 155 81 251 198c11 12 19 24 28 33l194 230c42 50 81 92 117 127c73 69 163 120 264 120c29 0 59 -5 92 -15c9 -1 13 -10 9 -18l-239 -513c-17 -37 -26 -66 -26 -87c0 -20 7 -30 21 -30c40 0 121 70 169 171c3 7 8 10 17 10
c12 0 27 -10 27 -22c0 -1 -1 -4 -2 -8c-66 -139 -192 -243 -297 -243c-59 0 -94 29 -94 89c0 39 14 88 41 145h-231l-8 -10l-21 -25c-124 -148 -203 -232 -270 -232c-37 0 -58 22 -58 53zM235 271h208l184 392c-77 -28 -136 -85 -204 -168zM703 814c-21 16 -33 23 -50 23
c-19 0 -41 -10 -57 -27c-5 -5 -8 -7 -11 -7c-2 0 -5 1 -8 3c-7 4 -9 10 -5 18c23 44 63 79 108 79c25 0 43 -9 68 -28c21 -15 36 -23 56 -23c25 0 52 16 71 40c5 8 11 10 18 6c7 -5 9 -11 5 -18c-24 -57 -65 -96 -118 -96c-31 0 -49 10 -77 30z" />
    <glyph glyph-name="B" unicode="B" horiz-adv-x="792" 
d="M215 5l-26 12c-35 -21 -71 -32 -108 -32c-47 0 -72 20 -72 45c0 35 43 69 107 69c11 0 21 -1 31 -3c20 35 44 90 65 141c17 43 31 74 40 94c32 69 60 123 84 162c48 79 102 128 177 141l4 1c6 0 10 -3 13 -9l1 -1c1 -2 2 -5 2 -8c0 -4 -2 -8 -5 -11
c-11 -12 -21 -28 -30 -47s-22 -51 -39 -94c-15 -40 -29 -73 -40 -99h41c126 0 208 90 208 178c0 76 -63 142 -192 142c-163 4 -307 -131 -303 -261c0 -29 6 -57 19 -84c1 -4 2 -6 2 -7c0 -7 -4 -10 -11 -10c-74 -6 -112 61 -112 121c0 41 17 85 50 131s81 85 142 116
c62 31 134 47 216 47c224 0 320 -101 320 -200c0 -89 -76 -170 -220 -199c85 -25 130 -81 130 -146c3 -110 -133 -233 -333 -230c-67 0 -105 14 -161 41zM566 212c0 55 -41 94 -121 94h-52c-48 -105 -92 -187 -151 -246c44 -21 73 -32 112 -32c118 -3 215 104 212 184z" />
    <glyph glyph-name="C" unicode="C" horiz-adv-x="601" 
d="M31 185c0 77 23 158 68 245c46 87 106 160 180 219c75 59 152 89 233 89c107 0 156 -63 156 -128c0 -55 -35 -100 -87 -100c-35 0 -52 20 -52 48c0 31 22 61 55 72c-3 27 -26 48 -63 48c-49 0 -98 -26 -148 -78s-92 -115 -125 -190s-49 -143 -49 -204
c0 -95 44 -154 137 -154c108 0 234 94 280 188c3 7 8 10 17 10c12 0 27 -10 27 -22c0 -1 -1 -4 -2 -8c-55 -121 -218 -257 -395 -254c-157 0 -232 87 -232 219z" />
    <glyph glyph-name="Cacute" unicode="&#x106;" horiz-adv-x="601" 
d="M31 185c0 77 23 158 68 245c46 87 106 160 180 219c75 59 152 89 233 89c107 0 156 -63 156 -128c0 -55 -35 -100 -87 -100c-35 0 -52 20 -52 48c0 31 22 61 55 72c-3 27 -26 48 -63 48c-49 0 -98 -26 -148 -78s-92 -115 -125 -190s-49 -143 -49 -204
c0 -95 44 -154 137 -154c108 0 234 94 280 188c3 7 8 10 17 10c12 0 27 -10 27 -22c0 -1 -1 -4 -2 -8c-55 -121 -218 -257 -395 -254c-157 0 -232 87 -232 219zM539 767c0 2 1 5 4 9l116 144c5 7 11 8 19 5l57 -22c6 -2 9 -5 9 -10c0 -3 -2 -6 -5 -9l-138 -119
c-4 -4 -10 -6 -17 -6h-33c-8 0 -12 3 -12 8z" />
    <glyph glyph-name="Ccaron" unicode="&#x10c;" horiz-adv-x="601" 
d="M31 185c0 77 23 158 68 245c46 87 106 160 180 219c75 59 152 89 233 89c107 0 156 -63 156 -128c0 -55 -35 -100 -87 -100c-35 0 -52 20 -52 48c0 31 22 61 55 72c-3 27 -26 48 -63 48c-49 0 -98 -26 -148 -78s-92 -115 -125 -190s-49 -143 -49 -204
c0 -95 44 -154 137 -154c108 0 234 94 280 188c3 7 8 10 17 10c12 0 27 -10 27 -22c0 -1 -1 -4 -2 -8c-55 -121 -218 -257 -395 -254c-157 0 -232 87 -232 219zM519 772l-14 132v2c0 9 4 13 13 13h28c8 0 13 -4 15 -12l23 -86l113 92c5 4 11 6 18 6h30c7 0 11 -2 11 -7
c0 -3 -2 -7 -5 -10l-146 -136c-5 -5 -10 -7 -17 -7h-55c-8 0 -13 4 -14 13z" />
    <glyph glyph-name="Ccedilla" unicode="&#xc7;" horiz-adv-x="601" 
d="M31 185c0 77 23 158 68 245c46 87 106 160 180 219c75 59 152 89 233 89c107 0 156 -63 156 -128c0 -55 -35 -100 -87 -100c-35 0 -52 20 -52 48c0 31 22 61 55 72c-3 27 -26 48 -63 48c-49 0 -98 -26 -148 -78s-92 -115 -125 -190s-49 -143 -49 -204
c0 -95 44 -154 137 -154c108 0 234 94 280 188c3 7 8 10 17 10c12 0 27 -10 27 -22c0 -1 -1 -4 -2 -8c-55 -121 -218 -257 -395 -254c-157 0 -232 87 -232 219zM118 -237c-5 3 -8 7 -8 10l2 8l10 23c3 7 9 10 19 8c17 -5 33 -8 48 -8c43 0 76 21 76 46c0 23 -27 34 -62 34
c-12 0 -16 6 -11 15l4 9c3 7 8 10 15 11c11 1 19 2 24 2c53 0 102 -30 102 -75c0 -58 -74 -98 -146 -98c-26 0 -50 5 -73 15z" />
    <glyph glyph-name="Cdotaccent" unicode="&#x10a;" horiz-adv-x="601" 
d="M31 185c0 77 23 158 68 245c46 87 106 160 180 219c75 59 152 89 233 89c107 0 156 -63 156 -128c0 -55 -35 -100 -87 -100c-35 0 -52 20 -52 48c0 31 22 61 55 72c-3 27 -26 48 -63 48c-49 0 -98 -26 -148 -78s-92 -115 -125 -190s-49 -143 -49 -204
c0 -95 44 -154 137 -154c108 0 234 94 280 188c3 7 8 10 17 10c12 0 27 -10 27 -22c0 -1 -1 -4 -2 -8c-55 -121 -218 -257 -395 -254c-157 0 -232 87 -232 219zM530 822c0 32 33 69 74 69c27 0 41 -14 41 -37c0 -32 -32 -67 -73 -67c-28 0 -42 15 -42 35z" />
    <glyph glyph-name="D" unicode="D" horiz-adv-x="811" 
d="M217 -6l-28 12c-35 -23 -71 -34 -108 -34c-47 0 -72 19 -72 46c0 33 42 68 107 68c7 0 17 -1 29 -2c17 30 38 78 64 144l21 50c9 21 16 39 23 53c31 68 59 122 83 161c48 80 102 129 177 142l4 1c6 0 10 -3 13 -9l1 -1c1 -2 2 -5 2 -8c0 -4 -2 -8 -5 -11
c-11 -12 -20 -28 -29 -47s-21 -49 -38 -90l-57 -138c-55 -125 -98 -212 -161 -279c29 -12 55 -18 78 -18c55 0 110 25 165 74c55 50 101 111 136 184s53 142 53 205c0 115 -62 189 -194 189c-167 4 -312 -131 -308 -261c0 -29 6 -57 19 -84c1 -4 2 -6 2 -7
c0 -7 -4 -10 -11 -10c-74 -6 -112 61 -112 121c0 41 17 85 50 131c34 46 82 85 144 116c63 31 135 47 217 47c223 0 324 -127 324 -287c0 -75 -20 -150 -60 -226s-95 -139 -165 -188s-147 -74 -232 -74c-56 0 -85 10 -132 30z" />
    <glyph glyph-name="Eth" unicode="&#xd0;" horiz-adv-x="811" 
d="M217 -6l-28 12c-35 -23 -71 -34 -108 -34c-47 0 -72 19 -72 46c0 33 42 68 107 68c7 0 17 -1 29 -2c23 41 49 106 72 163h-119c-9 0 -14 6 -13 15l1 7c2 8 7 12 16 12h129c9 23 17 39 22 50c31 68 59 122 83 161c48 80 102 129 177 142l4 1c6 0 10 -3 13 -9l1 -1
c1 -2 2 -5 2 -8c0 -4 -2 -8 -5 -11c-11 -12 -20 -28 -29 -47s-21 -49 -38 -90l-57 -138l-22 -50h124c9 0 14 -6 13 -15l-1 -7c-2 -8 -7 -12 -16 -12h-136c-42 -87 -83 -152 -123 -195c29 -12 55 -18 78 -18c55 0 110 25 165 74c55 50 101 111 136 184s53 142 53 205
c0 115 -62 189 -194 189c-167 4 -312 -131 -308 -261c0 -29 6 -57 19 -84c1 -4 2 -6 2 -7c0 -7 -4 -10 -11 -10c-74 -6 -112 61 -112 121c0 41 17 85 50 131c34 46 82 85 144 116c63 31 135 47 217 47c223 0 324 -127 324 -287c0 -75 -20 -150 -60 -226s-95 -139 -165 -188
s-147 -74 -232 -74c-56 0 -85 10 -132 30z" />
    <glyph glyph-name="Dcaron" unicode="&#x10e;" horiz-adv-x="811" 
d="M217 -6l-28 12c-35 -23 -71 -34 -108 -34c-47 0 -72 19 -72 46c0 33 42 68 107 68c7 0 17 -1 29 -2c17 30 38 78 64 144l21 50c9 21 16 39 23 53c31 68 59 122 83 161c48 80 102 129 177 142l4 1c6 0 10 -3 13 -9l1 -1c1 -2 2 -5 2 -8c0 -4 -2 -8 -5 -11
c-11 -12 -20 -28 -29 -47s-21 -49 -38 -90l-57 -138c-55 -125 -98 -212 -161 -279c29 -12 55 -18 78 -18c55 0 110 25 165 74c55 50 101 111 136 184s53 142 53 205c0 115 -62 189 -194 189c-167 4 -312 -131 -308 -261c0 -29 6 -57 19 -84c1 -4 2 -6 2 -7
c0 -7 -4 -10 -11 -10c-74 -6 -112 61 -112 121c0 41 17 85 50 131c34 46 82 85 144 116c63 31 135 47 217 47c223 0 324 -127 324 -287c0 -75 -20 -150 -60 -226s-95 -139 -165 -188s-147 -74 -232 -74c-56 0 -85 10 -132 30zM543 772l-14 132v2c0 9 4 13 13 13h28
c8 0 13 -4 15 -12l23 -86l113 92c5 4 11 6 18 6h30c7 0 11 -2 11 -7c0 -3 -2 -7 -5 -10l-146 -136c-5 -5 -10 -7 -17 -7h-55c-8 0 -13 4 -14 13z" />
    <glyph glyph-name="Dcroat" unicode="&#x110;" horiz-adv-x="811" 
d="M217 -6l-28 12c-35 -23 -71 -34 -108 -34c-47 0 -72 19 -72 46c0 33 42 68 107 68c7 0 17 -1 29 -2c23 41 49 106 72 163h-119c-9 0 -14 6 -13 15l1 7c2 8 7 12 16 12h129c9 23 17 39 22 50c31 68 59 122 83 161c48 80 102 129 177 142l4 1c6 0 10 -3 13 -9l1 -1
c1 -2 2 -5 2 -8c0 -4 -2 -8 -5 -11c-11 -12 -20 -28 -29 -47s-21 -49 -38 -90l-57 -138l-22 -50h124c9 0 14 -6 13 -15l-1 -7c-2 -8 -7 -12 -16 -12h-136c-42 -87 -83 -152 -123 -195c29 -12 55 -18 78 -18c55 0 110 25 165 74c55 50 101 111 136 184s53 142 53 205
c0 115 -62 189 -194 189c-167 4 -312 -131 -308 -261c0 -29 6 -57 19 -84c1 -4 2 -6 2 -7c0 -7 -4 -10 -11 -10c-74 -6 -112 61 -112 121c0 41 17 85 50 131c34 46 82 85 144 116c63 31 135 47 217 47c223 0 324 -127 324 -287c0 -75 -20 -150 -60 -226s-95 -139 -165 -188
s-147 -74 -232 -74c-56 0 -85 10 -132 30z" />
    <glyph glyph-name="E" unicode="E" horiz-adv-x="565" 
d="M-19 140c0 98 85 202 241 244c-44 31 -66 75 -66 126c-2 110 115 231 293 228c119 0 174 -67 174 -133c0 -52 -33 -95 -84 -95c-35 0 -52 20 -52 48c0 31 23 63 56 72c-7 28 -35 49 -86 49c-102 3 -180 -97 -178 -181c0 -40 18 -76 51 -97c23 1 40 2 52 2
c40 0 62 -14 62 -30c0 -17 -23 -32 -59 -32c-31 0 -61 3 -90 10c-45 -15 -81 -39 -108 -74c-27 -34 -40 -69 -40 -106c0 -71 51 -123 148 -123c129 0 237 92 285 192c3 7 8 10 17 10c12 0 27 -10 27 -22c0 -1 -1 -4 -2 -8c-52 -113 -213 -261 -398 -257
c-158 0 -243 81 -243 177z" />
    <glyph glyph-name="Eacute" unicode="&#xc9;" horiz-adv-x="565" 
d="M-19 140c0 98 85 202 241 244c-44 31 -66 75 -66 126c-2 110 115 231 293 228c119 0 174 -67 174 -133c0 -52 -33 -95 -84 -95c-35 0 -52 20 -52 48c0 31 23 63 56 72c-7 28 -35 49 -86 49c-102 3 -180 -97 -178 -181c0 -40 18 -76 51 -97c23 1 40 2 52 2
c40 0 62 -14 62 -30c0 -17 -23 -32 -59 -32c-31 0 -61 3 -90 10c-45 -15 -81 -39 -108 -74c-27 -34 -40 -69 -40 -106c0 -71 51 -123 148 -123c129 0 237 92 285 192c3 7 8 10 17 10c12 0 27 -10 27 -22c0 -1 -1 -4 -2 -8c-52 -113 -213 -261 -398 -257
c-158 0 -243 81 -243 177zM471 767c0 2 1 5 4 9l116 144c5 7 11 8 19 5l57 -22c6 -2 9 -5 9 -10c0 -3 -2 -6 -5 -9l-138 -119c-4 -4 -10 -6 -17 -6h-33c-8 0 -12 3 -12 8z" />
    <glyph glyph-name="Ecaron" unicode="&#x11a;" horiz-adv-x="565" 
d="M-19 140c0 98 85 202 241 244c-44 31 -66 75 -66 126c-2 110 115 231 293 228c119 0 174 -67 174 -133c0 -52 -33 -95 -84 -95c-35 0 -52 20 -52 48c0 31 23 63 56 72c-7 28 -35 49 -86 49c-102 3 -180 -97 -178 -181c0 -40 18 -76 51 -97c23 1 40 2 52 2
c40 0 62 -14 62 -30c0 -17 -23 -32 -59 -32c-31 0 -61 3 -90 10c-45 -15 -81 -39 -108 -74c-27 -34 -40 -69 -40 -106c0 -71 51 -123 148 -123c129 0 237 92 285 192c3 7 8 10 17 10c12 0 27 -10 27 -22c0 -1 -1 -4 -2 -8c-52 -113 -213 -261 -398 -257
c-158 0 -243 81 -243 177zM451 772l-14 132v2c0 9 4 13 13 13h28c8 0 13 -4 15 -12l23 -86l113 92c5 4 11 6 18 6h30c7 0 11 -2 11 -7c0 -3 -2 -7 -5 -10l-146 -136c-5 -5 -10 -7 -17 -7h-55c-8 0 -13 4 -14 13z" />
    <glyph glyph-name="Ecircumflex" unicode="&#xca;" horiz-adv-x="565" 
d="M-19 140c0 98 85 202 241 244c-44 31 -66 75 -66 126c-2 110 115 231 293 228c119 0 174 -67 174 -133c0 -52 -33 -95 -84 -95c-35 0 -52 20 -52 48c0 31 23 63 56 72c-7 28 -35 49 -86 49c-102 3 -180 -97 -178 -181c0 -40 18 -76 51 -97c23 1 40 2 52 2
c40 0 62 -14 62 -30c0 -17 -23 -32 -59 -32c-31 0 -61 3 -90 10c-45 -15 -81 -39 -108 -74c-27 -34 -40 -69 -40 -106c0 -71 51 -123 148 -123c129 0 237 92 285 192c3 7 8 10 17 10c12 0 27 -10 27 -22c0 -1 -1 -4 -2 -8c-52 -113 -213 -261 -398 -257
c-158 0 -243 81 -243 177zM362 767c0 3 2 6 5 9l139 136c5 5 10 7 17 7h55c8 0 14 -5 15 -13l24 -132v-4c0 -7 -4 -11 -12 -11h-29c-7 0 -13 4 -16 11l-29 83l-103 -88c-4 -4 -10 -6 -18 -6h-36c-8 0 -12 3 -12 8z" />
    <glyph glyph-name="Edieresis" unicode="&#xcb;" horiz-adv-x="565" 
d="M-19 140c0 98 85 202 241 244c-44 31 -66 75 -66 126c-2 110 115 231 293 228c119 0 174 -67 174 -133c0 -52 -33 -95 -84 -95c-35 0 -52 20 -52 48c0 31 23 63 56 72c-7 28 -35 49 -86 49c-102 3 -180 -97 -178 -181c0 -40 18 -76 51 -97c23 1 40 2 52 2
c40 0 62 -14 62 -30c0 -17 -23 -32 -59 -32c-31 0 -61 3 -90 10c-45 -15 -81 -39 -108 -74c-27 -34 -40 -69 -40 -106c0 -71 51 -123 148 -123c129 0 237 92 285 192c3 7 8 10 17 10c12 0 27 -10 27 -22c0 -1 -1 -4 -2 -8c-52 -113 -213 -261 -398 -257
c-158 0 -243 81 -243 177zM535 822c0 32 33 69 74 69c27 0 40 -14 40 -37c0 -32 -30 -67 -73 -67c-28 0 -41 15 -41 35zM394 822c0 32 33 69 74 69c27 0 40 -14 40 -37c0 -32 -30 -67 -73 -67c-28 0 -41 15 -41 35z" />
    <glyph glyph-name="Edotaccent" unicode="&#x116;" horiz-adv-x="565" 
d="M-19 140c0 98 85 202 241 244c-44 31 -66 75 -66 126c-2 110 115 231 293 228c119 0 174 -67 174 -133c0 -52 -33 -95 -84 -95c-35 0 -52 20 -52 48c0 31 23 63 56 72c-7 28 -35 49 -86 49c-102 3 -180 -97 -178 -181c0 -40 18 -76 51 -97c23 1 40 2 52 2
c40 0 62 -14 62 -30c0 -17 -23 -32 -59 -32c-31 0 -61 3 -90 10c-45 -15 -81 -39 -108 -74c-27 -34 -40 -69 -40 -106c0 -71 51 -123 148 -123c129 0 237 92 285 192c3 7 8 10 17 10c12 0 27 -10 27 -22c0 -1 -1 -4 -2 -8c-52 -113 -213 -261 -398 -257
c-158 0 -243 81 -243 177zM462 822c0 32 33 69 74 69c27 0 41 -14 41 -37c0 -32 -32 -67 -73 -67c-28 0 -42 15 -42 35z" />
    <glyph glyph-name="Egrave" unicode="&#xc8;" horiz-adv-x="565" 
d="M-19 140c0 98 85 202 241 244c-44 31 -66 75 -66 126c-2 110 115 231 293 228c119 0 174 -67 174 -133c0 -52 -33 -95 -84 -95c-35 0 -52 20 -52 48c0 31 23 63 56 72c-7 28 -35 49 -86 49c-102 3 -180 -97 -178 -181c0 -40 18 -76 51 -97c23 1 40 2 52 2
c40 0 62 -14 62 -30c0 -17 -23 -32 -59 -32c-31 0 -61 3 -90 10c-45 -15 -81 -39 -108 -74c-27 -34 -40 -69 -40 -106c0 -71 51 -123 148 -123c129 0 237 92 285 192c3 7 8 10 17 10c12 0 27 -10 27 -22c0 -1 -1 -4 -2 -8c-52 -113 -213 -261 -398 -257
c-158 0 -243 81 -243 177zM454 768l-74 123c-1 2 -2 5 -2 8c0 6 3 9 9 10l65 17l5 1c6 0 10 -3 12 -10l50 -142c1 -1 1 -3 1 -6c0 -7 -4 -10 -12 -10h-37c-7 0 -13 3 -17 9z" />
    <glyph glyph-name="Emacron" unicode="&#x112;" horiz-adv-x="565" 
d="M-19 140c0 98 85 202 241 244c-44 31 -66 75 -66 126c-2 110 115 231 293 228c119 0 174 -67 174 -133c0 -52 -33 -95 -84 -95c-35 0 -52 20 -52 48c0 31 23 63 56 72c-7 28 -35 49 -86 49c-102 3 -180 -97 -178 -181c0 -40 18 -76 51 -97c23 1 40 2 52 2
c40 0 62 -14 62 -30c0 -17 -23 -32 -59 -32c-31 0 -61 3 -90 10c-45 -15 -81 -39 -108 -74c-27 -34 -40 -69 -40 -106c0 -71 51 -123 148 -123c129 0 237 92 285 192c3 7 8 10 17 10c12 0 27 -10 27 -22c0 -1 -1 -4 -2 -8c-52 -113 -213 -261 -398 -257
c-158 0 -243 81 -243 177zM389 826l14 31c3 7 8 11 17 11h218c11 0 15 -8 10 -17l-15 -31c-3 -7 -8 -10 -16 -10h-218c-9 0 -14 7 -10 16z" />
    <glyph glyph-name="Eogonek" unicode="&#x118;" horiz-adv-x="566" 
d="M167 -142c0 33 21 70 69 105h-11c-158 0 -243 81 -243 177c0 98 85 202 241 244c-44 31 -66 75 -66 126c-2 110 115 231 293 228c119 0 174 -67 174 -133c0 -52 -33 -95 -84 -95c-35 0 -52 20 -52 48c0 31 23 63 56 72c-7 28 -35 49 -86 49c-102 3 -180 -97 -178 -181
c0 -40 18 -76 51 -97c23 1 40 2 52 2c40 0 62 -14 62 -30c0 -17 -23 -32 -59 -32c-31 0 -61 3 -90 10c-45 -15 -81 -39 -108 -74c-27 -34 -40 -69 -40 -106c0 -71 51 -123 148 -123c129 0 237 92 285 192c3 7 8 10 17 10c12 0 27 -10 27 -22c0 -1 -1 -4 -2 -8
c-23 -49 -61 -97 -113 -144s-111 -79 -178 -98c-68 -40 -90 -76 -90 -100c0 -16 13 -26 33 -26c8 0 16 1 23 4c1 1 3 1 6 1c7 0 10 -4 10 -12v-29c0 -8 -3 -13 -10 -16c-19 -9 -37 -13 -54 -13c-47 0 -83 27 -83 71z" />
    <glyph glyph-name="F" unicode="F" horiz-adv-x="616" 
d="M167 17c0 43 15 95 44 156l64 134h-71c-11 0 -15 7 -11 16l15 34c3 7 8 11 17 11h79c56 113 112 190 168 231l-28 13c-71 32 -110 48 -162 48c-103 0 -159 -82 -159 -170c0 -33 7 -63 20 -89l2 -8c0 -6 -4 -9 -11 -10c-65 -5 -107 45 -107 117c-2 103 87 243 269 239
c68 0 113 -15 180 -43c60 -25 94 -37 143 -37c45 0 88 13 141 53c4 3 7 4 9 4c5 0 8 -3 10 -9c3 -7 4 -16 4 -25c0 -63 -60 -121 -160 -121c-23 0 -48 3 -73 10c-15 -25 -31 -57 -48 -96l-29 -67l-17 -40h133c11 0 15 -7 11 -16l-15 -34c-3 -7 -8 -11 -17 -11h-140l-84 -180
c-36 -77 -47 -131 -50 -196c0 -8 -5 -14 -13 -14c-72 -3 -114 29 -114 100z" />
    <glyph glyph-name="G" unicode="G" horiz-adv-x="682" 
d="M13 -212c0 81 94 148 309 197l59 128c-58 -59 -122 -88 -193 -88c-108 0 -160 64 -160 165c0 71 23 150 70 237s108 161 184 221c77 60 157 90 241 90c118 0 175 -69 175 -135c0 -51 -33 -93 -82 -93c-35 0 -53 20 -53 48c0 29 21 60 52 71c-7 28 -37 49 -80 49
c-53 0 -106 -27 -160 -82c-53 -55 -98 -120 -133 -196s-53 -141 -53 -195c0 -59 24 -95 75 -95c33 0 67 18 104 54c37 37 79 100 126 191c3 7 8 11 16 11h116c9 0 14 -7 10 -16l-145 -312c92 40 158 97 206 202c3 7 8 10 17 10c12 0 27 -10 27 -22c0 -1 -1 -4 -2 -8
c-33 -69 -72 -122 -118 -158c-45 -36 -99 -65 -160 -87c-26 -55 -52 -102 -79 -143c-52 -81 -131 -146 -234 -146c-83 0 -135 39 -135 102zM297 -69c-64 -15 -116 -35 -156 -60c-39 -25 -59 -51 -59 -78s22 -45 53 -45c65 0 109 68 162 183z" />
    <glyph glyph-name="Gbreve" unicode="&#x11e;" horiz-adv-x="682" 
d="M13 -212c0 81 94 148 309 197l59 128c-58 -59 -122 -88 -193 -88c-108 0 -160 64 -160 165c0 71 23 150 70 237s108 161 184 221c77 60 157 90 241 90c118 0 175 -69 175 -135c0 -51 -33 -93 -82 -93c-35 0 -53 20 -53 48c0 29 21 60 52 71c-7 28 -37 49 -80 49
c-53 0 -106 -27 -160 -82c-53 -55 -98 -120 -133 -196s-53 -141 -53 -195c0 -59 24 -95 75 -95c33 0 67 18 104 54c37 37 79 100 126 191c3 7 8 11 16 11h116c9 0 14 -7 10 -16l-145 -312c92 40 158 97 206 202c3 7 8 10 17 10c12 0 27 -10 27 -22c0 -1 -1 -4 -2 -8
c-33 -69 -72 -122 -118 -158c-45 -36 -99 -65 -160 -87c-26 -55 -52 -102 -79 -143c-52 -81 -131 -146 -234 -146c-83 0 -135 39 -135 102zM297 -69c-64 -15 -116 -35 -156 -60c-39 -25 -59 -51 -59 -78s22 -45 53 -45c65 0 109 68 162 183zM453 852c0 15 2 30 7 46
c3 8 9 12 16 12h12c9 0 13 -5 13 -15c-4 -39 19 -64 58 -64c40 0 99 26 128 70c4 6 10 9 17 9h13c7 0 10 -3 10 -10c0 -5 -1 -9 -4 -14c-43 -73 -119 -118 -182 -118c-51 0 -88 29 -88 84z" />
    <glyph glyph-name="uni0122" unicode="&#x122;" horiz-adv-x="670" 
d="M41 -283c-5 0 -8 2 -10 7c-1 3 -2 5 -2 7c0 5 2 9 6 13c31 23 54 50 68 82c-27 0 -43 18 -43 42c0 33 29 64 64 64c28 0 47 -20 47 -48c0 -25 -11 -53 -33 -85s-51 -58 -88 -79c-3 -2 -6 -3 -9 -3zM184 -236c-1 3 -2 5 -2 6c0 4 2 8 7 13c26 23 47 44 63 64s32 48 49 83
l73 157c-57 -60 -117 -90 -182 -90c-113 0 -169 69 -169 176c0 75 24 157 71 246c48 89 111 165 188 226c78 62 160 93 246 93c118 0 174 -69 174 -135c0 -51 -33 -93 -82 -93c-35 0 -52 20 -52 48c0 29 20 59 51 71c-7 28 -37 49 -80 49c-54 0 -109 -28 -164 -85
c-55 -56 -100 -123 -136 -201s-54 -146 -54 -203c0 -65 27 -106 84 -106c60 0 133 81 230 272c3 7 8 11 16 11h115c9 0 14 -7 10 -16l-203 -436c-48 -103 -114 -176 -194 -176c-31 0 -50 9 -59 26z" />
    <glyph glyph-name="Gdotaccent" unicode="&#x120;" horiz-adv-x="682" 
d="M13 -212c0 81 94 148 309 197l59 128c-58 -59 -122 -88 -193 -88c-108 0 -160 64 -160 165c0 71 23 150 70 237s108 161 184 221c77 60 157 90 241 90c118 0 175 -69 175 -135c0 -51 -33 -93 -82 -93c-35 0 -53 20 -53 48c0 29 21 60 52 71c-7 28 -37 49 -80 49
c-53 0 -106 -27 -160 -82c-53 -55 -98 -120 -133 -196s-53 -141 -53 -195c0 -59 24 -95 75 -95c33 0 67 18 104 54c37 37 79 100 126 191c3 7 8 11 16 11h116c9 0 14 -7 10 -16l-145 -312c92 40 158 97 206 202c3 7 8 10 17 10c12 0 27 -10 27 -22c0 -1 -1 -4 -2 -8
c-33 -69 -72 -122 -118 -158c-45 -36 -99 -65 -160 -87c-26 -55 -52 -102 -79 -143c-52 -81 -131 -146 -234 -146c-83 0 -135 39 -135 102zM297 -69c-64 -15 -116 -35 -156 -60c-39 -25 -59 -51 -59 -78s22 -45 53 -45c65 0 109 68 162 183zM514 822c0 32 33 69 74 69
c27 0 41 -14 41 -37c0 -32 -32 -67 -73 -67c-28 0 -42 15 -42 35z" />
    <glyph glyph-name="H" unicode="H" horiz-adv-x="808" 
d="M475 66c0 39 14 87 41 144l39 83h-174l-132 -283c-3 -7 -8 -10 -17 -10h-125c-9 0 -14 7 -10 16l234 501c25 53 48 86 85 110c-15 3 -32 7 -52 14c-41 12 -61 17 -94 17c-84 0 -134 -57 -134 -133c0 -30 7 -59 22 -88c1 -4 2 -6 2 -7c0 -7 -4 -10 -11 -10
c-68 -5 -109 46 -109 117c0 103 93 193 216 193c41 0 70 -9 123 -28c57 -20 86 -29 131 -29c18 0 32 1 41 2h5c5 0 8 -2 8 -5c0 -1 -1 -4 -4 -9c-13 -18 -30 -50 -53 -97l-91 -195h174l135 291c3 7 8 10 17 10h125c9 0 14 -7 10 -16l-218 -468c-17 -35 -26 -64 -26 -87
c0 -19 9 -30 22 -30c40 0 120 70 168 171c3 7 8 10 17 10c12 0 27 -10 27 -22c0 -1 -1 -4 -2 -8c-64 -139 -192 -243 -296 -243c-59 0 -94 29 -94 89z" />
    <glyph glyph-name="Hbar" unicode="&#x126;" horiz-adv-x="808" 
d="M475 66c0 39 14 87 41 144l39 83h-174l-132 -283c-3 -7 -8 -10 -17 -10h-125c-9 0 -14 7 -10 16l208 445h-81c-9 0 -15 7 -12 16l2 7c2 7 7 11 16 11h91l10 22c25 53 48 86 85 110c-15 3 -32 7 -52 14c-41 12 -61 17 -94 17c-84 0 -134 -57 -134 -133c0 -30 7 -59 22 -88
c1 -4 2 -6 2 -7c0 -7 -4 -10 -11 -10c-68 -5 -109 46 -109 117c0 103 93 193 216 193c41 0 70 -9 123 -28c57 -20 86 -29 131 -29c18 0 32 1 41 2h5c5 0 8 -2 8 -5c0 -1 -1 -4 -4 -9c-13 -18 -30 -50 -53 -97l-32 -69h174l76 165c3 7 8 10 17 10h125c9 0 14 -7 10 -16
l-74 -159h65c9 0 15 -7 12 -16l-2 -7c-2 -7 -7 -11 -16 -11h-75l-128 -275c-17 -35 -26 -64 -26 -87c0 -19 9 -30 22 -30c40 0 120 70 168 171c3 7 8 10 17 10c12 0 27 -10 27 -22c0 -1 -1 -4 -2 -8c-64 -139 -192 -243 -296 -243c-59 0 -94 29 -94 89zM416 369h174l43 92
h-174z" />
    <glyph glyph-name="I" unicode="I" horiz-adv-x="472" 
d="M133 -23c-42 -20 -83 -30 -122 -30c-76 0 -117 36 -117 84c0 13 3 26 9 38c2 5 5 8 9 8s8 -2 11 -6c18 -20 42 -30 73 -30c37 0 74 13 111 40c-2 20 -3 41 -3 62c0 85 14 173 43 266s67 170 114 232s97 93 150 93c64 0 95 -50 95 -133c0 -58 -14 -126 -43 -204
c-29 -77 -68 -152 -117 -224c-49 -71 -103 -127 -162 -167c9 -26 23 -47 41 -63c6 -5 9 -11 9 -18c0 -13 -11 -26 -26 -26c-8 0 -16 3 -23 8c-23 17 -40 41 -52 70zM388 627c0 23 -6 34 -17 34c-27 0 -56 -29 -89 -87s-61 -129 -84 -213c-23 -83 -34 -160 -34 -230
c41 43 79 98 113 163s61 129 81 191c20 63 30 110 30 142z" />
    <glyph glyph-name="Iacute" unicode="&#xcd;" horiz-adv-x="472" 
d="M133 -23c-42 -20 -83 -30 -122 -30c-76 0 -117 36 -117 84c0 13 3 26 9 38c2 5 5 8 9 8s8 -2 11 -6c18 -20 42 -30 73 -30c37 0 74 13 111 40c-2 20 -3 41 -3 62c0 85 14 173 43 266s67 170 114 232s97 93 150 93c64 0 95 -50 95 -133c0 -58 -14 -126 -43 -204
c-29 -77 -68 -152 -117 -224c-49 -71 -103 -127 -162 -167c9 -26 23 -47 41 -63c6 -5 9 -11 9 -18c0 -13 -11 -26 -26 -26c-8 0 -16 3 -23 8c-23 17 -40 41 -52 70zM388 627c0 23 -6 34 -17 34c-27 0 -56 -29 -89 -87s-61 -129 -84 -213c-23 -83 -34 -160 -34 -230
c41 43 79 98 113 163s61 129 81 191c20 63 30 110 30 142zM405 767c0 2 1 5 4 9l116 144c5 7 11 8 19 5l57 -22c6 -2 9 -5 9 -10c0 -3 -2 -6 -5 -9l-138 -119c-4 -4 -10 -6 -17 -6h-33c-8 0 -12 3 -12 8z" />
    <glyph glyph-name="Icircumflex" unicode="&#xce;" horiz-adv-x="472" 
d="M133 -23c-42 -20 -83 -30 -122 -30c-76 0 -117 36 -117 84c0 13 3 26 9 38c2 5 5 8 9 8s8 -2 11 -6c18 -20 42 -30 73 -30c37 0 74 13 111 40c-2 20 -3 41 -3 62c0 85 14 173 43 266s67 170 114 232s97 93 150 93c64 0 95 -50 95 -133c0 -58 -14 -126 -43 -204
c-29 -77 -68 -152 -117 -224c-49 -71 -103 -127 -162 -167c9 -26 23 -47 41 -63c6 -5 9 -11 9 -18c0 -13 -11 -26 -26 -26c-8 0 -16 3 -23 8c-23 17 -40 41 -52 70zM388 627c0 23 -6 34 -17 34c-27 0 -56 -29 -89 -87s-61 -129 -84 -213c-23 -83 -34 -160 -34 -230
c41 43 79 98 113 163s61 129 81 191c20 63 30 110 30 142zM296 767c0 3 2 6 5 9l139 136c5 5 10 7 17 7h55c8 0 14 -5 15 -13l24 -132v-4c0 -7 -4 -11 -12 -11h-29c-7 0 -13 4 -16 11l-29 83l-103 -88c-4 -4 -10 -6 -18 -6h-36c-8 0 -12 3 -12 8z" />
    <glyph glyph-name="Idieresis" unicode="&#xcf;" horiz-adv-x="472" 
d="M133 -23c-42 -20 -83 -30 -122 -30c-76 0 -117 36 -117 84c0 13 3 26 9 38c2 5 5 8 9 8s8 -2 11 -6c18 -20 42 -30 73 -30c37 0 74 13 111 40c-2 20 -3 41 -3 62c0 85 14 173 43 266s67 170 114 232s97 93 150 93c64 0 95 -50 95 -133c0 -58 -14 -126 -43 -204
c-29 -77 -68 -152 -117 -224c-49 -71 -103 -127 -162 -167c9 -26 23 -47 41 -63c6 -5 9 -11 9 -18c0 -13 -11 -26 -26 -26c-8 0 -16 3 -23 8c-23 17 -40 41 -52 70zM388 627c0 23 -6 34 -17 34c-27 0 -56 -29 -89 -87s-61 -129 -84 -213c-23 -83 -34 -160 -34 -230
c41 43 79 98 113 163s61 129 81 191c20 63 30 110 30 142zM469 822c0 32 33 69 74 69c27 0 40 -14 40 -37c0 -32 -30 -67 -73 -67c-28 0 -41 15 -41 35zM328 822c0 32 33 69 74 69c27 0 40 -14 40 -37c0 -32 -30 -67 -73 -67c-28 0 -41 15 -41 35z" />
    <glyph glyph-name="Idot" unicode="&#x130;" horiz-adv-x="472" 
d="M133 -23c-42 -20 -83 -30 -122 -30c-76 0 -117 36 -117 84c0 13 3 26 9 38c2 5 5 8 9 8s8 -2 11 -6c18 -20 42 -30 73 -30c37 0 74 13 111 40c-2 20 -3 41 -3 62c0 85 14 173 43 266s67 170 114 232s97 93 150 93c64 0 95 -50 95 -133c0 -58 -14 -126 -43 -204
c-29 -77 -68 -152 -117 -224c-49 -71 -103 -127 -162 -167c9 -26 23 -47 41 -63c6 -5 9 -11 9 -18c0 -13 -11 -26 -26 -26c-8 0 -16 3 -23 8c-23 17 -40 41 -52 70zM388 627c0 23 -6 34 -17 34c-27 0 -56 -29 -89 -87s-61 -129 -84 -213c-23 -83 -34 -160 -34 -230
c41 43 79 98 113 163s61 129 81 191c20 63 30 110 30 142zM396 822c0 32 33 69 74 69c27 0 41 -14 41 -37c0 -32 -32 -67 -73 -67c-28 0 -42 15 -42 35z" />
    <glyph glyph-name="Igrave" unicode="&#xcc;" horiz-adv-x="472" 
d="M133 -23c-42 -20 -83 -30 -122 -30c-76 0 -117 36 -117 84c0 13 3 26 9 38c2 5 5 8 9 8s8 -2 11 -6c18 -20 42 -30 73 -30c37 0 74 13 111 40c-2 20 -3 41 -3 62c0 85 14 173 43 266s67 170 114 232s97 93 150 93c64 0 95 -50 95 -133c0 -58 -14 -126 -43 -204
c-29 -77 -68 -152 -117 -224c-49 -71 -103 -127 -162 -167c9 -26 23 -47 41 -63c6 -5 9 -11 9 -18c0 -13 -11 -26 -26 -26c-8 0 -16 3 -23 8c-23 17 -40 41 -52 70zM388 627c0 23 -6 34 -17 34c-27 0 -56 -29 -89 -87s-61 -129 -84 -213c-23 -83 -34 -160 -34 -230
c41 43 79 98 113 163s61 129 81 191c20 63 30 110 30 142zM388 768l-74 123c-1 2 -2 5 -2 8c0 6 3 9 9 10l65 17l5 1c6 0 10 -3 12 -10l50 -142c1 -1 1 -3 1 -6c0 -7 -4 -10 -12 -10h-37c-7 0 -13 3 -17 9z" />
    <glyph glyph-name="Imacron" unicode="&#x12a;" horiz-adv-x="472" 
d="M133 -23c-42 -20 -83 -30 -122 -30c-76 0 -117 36 -117 84c0 13 3 26 9 38c2 5 5 8 9 8s8 -2 11 -6c18 -20 42 -30 73 -30c37 0 74 13 111 40c-2 20 -3 41 -3 62c0 85 14 173 43 266s67 170 114 232s97 93 150 93c64 0 95 -50 95 -133c0 -58 -14 -126 -43 -204
c-29 -77 -68 -152 -117 -224c-49 -71 -103 -127 -162 -167c9 -26 23 -47 41 -63c6 -5 9 -11 9 -18c0 -13 -11 -26 -26 -26c-8 0 -16 3 -23 8c-23 17 -40 41 -52 70zM388 627c0 23 -6 34 -17 34c-27 0 -56 -29 -89 -87s-61 -129 -84 -213c-23 -83 -34 -160 -34 -230
c41 43 79 98 113 163s61 129 81 191c20 63 30 110 30 142zM323 826l14 31c3 7 8 11 17 11h218c11 0 15 -8 10 -17l-15 -31c-3 -7 -8 -10 -16 -10h-218c-9 0 -14 7 -10 16z" />
    <glyph glyph-name="Iogonek" unicode="&#x12e;" horiz-adv-x="472" 
d="M-44 -153c0 32 19 67 62 100c-77 0 -125 36 -125 84c0 13 3 26 10 39c2 5 5 7 9 7s8 -2 11 -6c18 -20 42 -30 73 -30c37 0 74 13 111 40c-2 20 -3 41 -3 62c0 85 14 173 43 266s67 170 114 232s97 93 150 93c64 0 95 -50 95 -133c0 -58 -14 -126 -43 -204
c-29 -77 -68 -152 -117 -224c-49 -71 -103 -127 -162 -167c9 -26 23 -47 41 -63c6 -5 9 -11 9 -18c0 -13 -11 -26 -26 -26c-8 0 -16 3 -23 8c-22 17 -39 39 -51 67c-79 -43 -103 -80 -103 -107c0 -16 13 -26 33 -26c8 0 16 1 23 4c1 1 3 1 6 1c7 0 10 -4 10 -12v-29
c0 -8 -3 -13 -10 -16c-19 -9 -37 -13 -54 -13c-47 0 -83 27 -83 71zM388 627c0 23 -6 34 -17 34c-27 0 -56 -29 -89 -87s-61 -129 -84 -213c-23 -83 -34 -160 -34 -230c41 43 79 98 113 163s61 129 81 191c20 63 30 110 30 142z" />
    <glyph glyph-name="J" unicode="J" horiz-adv-x="547" 
d="M-99 -215c-2 88 102 252 347 332l155 335c33 71 50 126 50 165c0 36 -15 54 -44 54c-31 0 -63 -18 -94 -54s-57 -81 -77 -136s-30 -108 -30 -159c0 -36 5 -68 16 -95c1 -1 1 -3 1 -6c0 -8 -4 -11 -13 -9c-75 12 -113 72 -113 155c0 53 14 108 43 165
c29 58 68 106 119 144c51 39 107 58 169 58c101 0 147 -56 147 -148c0 -63 -23 -141 -59 -220l-108 -232c73 13 119 35 152 106c3 7 8 10 17 10c12 0 27 -10 27 -22c0 -1 -1 -4 -2 -8c-16 -34 -35 -61 -58 -80c-45 -37 -89 -49 -161 -61l-38 -81c-41 -88 -87 -162 -139 -222
c-51 -60 -114 -90 -187 -90c-76 0 -120 40 -120 99zM169 -53l51 109c-118 -49 -254 -187 -250 -262c0 -28 15 -46 42 -46c21 0 40 10 58 29c19 19 35 41 48 66s30 59 51 104z" />
    <glyph glyph-name="K" unicode="K" horiz-adv-x="780" 
d="M461 154c-1 33 -2 60 -5 79c-4 40 -23 70 -63 70h-8l-136 -293c-3 -7 -8 -10 -17 -10h-124c-9 0 -14 7 -10 16l232 500c25 53 47 86 86 110c-20 3 -45 11 -53 14c-43 12 -61 17 -93 17c-85 0 -134 -57 -134 -133c0 -30 7 -59 22 -88c1 -4 2 -6 2 -7c0 -7 -4 -10 -11 -10
c-68 -5 -109 46 -109 117c0 103 91 193 215 193c43 0 75 -10 124 -29c57 -20 86 -29 130 -29c13 0 27 1 41 3h4c5 0 8 -2 8 -5s-1 -6 -3 -9c-18 -25 -36 -57 -53 -97l-93 -199c34 3 65 13 94 32s55 40 77 65s48 58 79 99c69 97 113 145 174 145c33 0 55 -16 65 -48
c1 -1 1 -3 1 -5c0 -5 -3 -10 -9 -13c-33 -17 -62 -36 -85 -59c-23 -22 -49 -51 -79 -88c-25 -29 -46 -53 -63 -71c-35 -36 -83 -71 -144 -92c76 -38 84 -100 86 -188c1 -61 6 -89 34 -89c36 0 89 55 152 188c3 7 8 10 17 10c12 0 27 -10 27 -22c0 -1 -1 -4 -2 -8
c-85 -179 -165 -260 -261 -260c-35 0 -60 9 -77 27c-32 36 -37 83 -38 167z" />
    <glyph glyph-name="uni0136" unicode="&#x136;" horiz-adv-x="780" 
d="M461 154c-1 33 -2 60 -5 79c-4 40 -23 70 -63 70h-8l-136 -293c-3 -7 -8 -10 -17 -10h-124c-9 0 -14 7 -10 16l232 500c25 53 47 86 86 110c-20 3 -45 11 -53 14c-43 12 -61 17 -93 17c-85 0 -134 -57 -134 -133c0 -30 7 -59 22 -88c1 -4 2 -6 2 -7c0 -7 -4 -10 -11 -10
c-68 -5 -109 46 -109 117c0 103 91 193 215 193c43 0 75 -10 124 -29c57 -20 86 -29 130 -29c13 0 27 1 41 3h4c5 0 8 -2 8 -5s-1 -6 -3 -9c-18 -25 -36 -57 -53 -97l-93 -199c34 3 65 13 94 32s55 40 77 65s48 58 79 99c69 97 113 145 174 145c33 0 55 -16 65 -48
c1 -1 1 -3 1 -5c0 -5 -3 -10 -9 -13c-33 -17 -62 -36 -85 -59c-23 -22 -49 -51 -79 -88c-25 -29 -46 -53 -63 -71c-35 -36 -83 -71 -144 -92c76 -38 84 -100 86 -188c1 -61 6 -89 34 -89c36 0 89 55 152 188c3 7 8 10 17 10c12 0 27 -10 27 -22c0 -1 -1 -4 -2 -8
c-85 -179 -165 -260 -261 -260c-35 0 -60 9 -77 27c-32 36 -37 83 -38 167zM245 -263c-5 0 -8 2 -10 7c-1 3 -2 5 -2 7c0 5 2 9 6 13c31 23 54 50 68 82c-27 0 -43 18 -43 42c0 33 29 64 64 64c28 0 47 -20 47 -48c0 -25 -11 -53 -33 -85s-51 -58 -88 -79c-3 -2 -6 -3 -9 -3
z" />
    <glyph glyph-name="L" unicode="L" horiz-adv-x="610" 
d="M124 15c-30 -9 -61 -14 -94 -14c-51 0 -79 23 -79 54c0 32 34 61 90 61c19 0 41 -3 64 -10c32 31 56 73 87 140c-91 20 -135 88 -135 165c0 76 48 150 111 150c8 0 12 -3 12 -10l-2 -8c-18 -38 -27 -75 -27 -111c0 -56 25 -100 72 -116c55 119 114 219 179 300
s133 122 205 122c61 0 91 -34 91 -87c3 -119 -161 -344 -345 -395c-41 -85 -84 -149 -139 -193c64 -27 121 -42 189 -42c29 0 48 5 75 16c3 1 6 2 10 2c5 0 7 -2 7 -5c-6 -57 -59 -122 -148 -122c-32 0 -61 5 -87 15c-52 19 -84 44 -136 88zM634 653c0 21 -8 32 -23 32
c-51 0 -124 -130 -221 -347c138 59 247 241 244 315z" />
    <glyph glyph-name="Lacute" unicode="&#x139;" horiz-adv-x="610" 
d="M124 15c-30 -9 -61 -14 -94 -14c-51 0 -79 23 -79 54c0 32 34 61 90 61c19 0 41 -3 64 -10c32 31 56 73 87 140c-91 20 -135 88 -135 165c0 76 48 150 111 150c8 0 12 -3 12 -10l-2 -8c-18 -38 -27 -75 -27 -111c0 -56 25 -100 72 -116c55 119 114 219 179 300
s133 122 205 122c61 0 91 -34 91 -87c3 -119 -161 -344 -345 -395c-41 -85 -84 -149 -139 -193c64 -27 121 -42 189 -42c29 0 48 5 75 16c3 1 6 2 10 2c5 0 7 -2 7 -5c-6 -57 -59 -122 -148 -122c-32 0 -61 5 -87 15c-52 19 -84 44 -136 88zM634 653c0 21 -8 32 -23 32
c-51 0 -124 -130 -221 -347c138 59 247 241 244 315zM597 767c0 2 1 5 4 9l116 144c5 7 11 8 19 5l57 -22c6 -2 9 -5 9 -10c0 -3 -2 -6 -5 -9l-138 -119c-4 -4 -10 -6 -17 -6h-33c-8 0 -12 3 -12 8z" />
    <glyph glyph-name="Lcaron" unicode="&#x13d;" horiz-adv-x="610" 
d="M124 15c-30 -9 -61 -14 -94 -14c-51 0 -79 23 -79 54c0 32 34 61 90 61c19 0 41 -3 64 -10c32 31 56 73 87 140c-91 20 -135 88 -135 165c0 76 48 150 111 150c8 0 12 -3 12 -10l-2 -8c-18 -38 -27 -75 -27 -111c0 -56 25 -100 72 -116c55 119 114 219 179 300
s133 122 205 122c61 0 91 -34 91 -87c3 -119 -161 -344 -345 -395c-41 -85 -84 -149 -139 -193c64 -27 121 -42 189 -42c29 0 48 5 75 16c3 1 6 2 10 2c5 0 7 -2 7 -5c-6 -57 -59 -122 -148 -122c-32 0 -61 5 -87 15c-52 19 -84 44 -136 88zM634 653c0 21 -8 32 -23 32
c-51 0 -124 -130 -221 -347c138 59 247 241 244 315zM720 591l61 134c3 7 8 10 17 10h54c7 0 11 -3 11 -8c0 -3 -1 -6 -3 -9l-102 -135c-3 -5 -9 -8 -17 -8h-11c-9 0 -14 7 -10 16z" />
    <glyph glyph-name="uni013B" unicode="&#x13b;" horiz-adv-x="610" 
d="M124 15c-30 -9 -61 -14 -94 -14c-51 0 -79 23 -79 54c0 32 34 61 90 61c19 0 41 -3 64 -10c32 31 56 73 87 140c-91 20 -135 88 -135 165c0 76 48 150 111 150c8 0 12 -3 12 -10l-2 -8c-18 -38 -27 -75 -27 -111c0 -56 25 -100 72 -116c55 119 114 219 179 300
s133 122 205 122c61 0 91 -34 91 -87c3 -119 -161 -344 -345 -395c-41 -85 -84 -149 -139 -193c64 -27 121 -42 189 -42c29 0 48 5 75 16c3 1 6 2 10 2c5 0 7 -2 7 -5c-6 -57 -59 -122 -148 -122c-32 0 -61 5 -87 15c-52 19 -84 44 -136 88zM634 653c0 21 -8 32 -23 32
c-51 0 -124 -130 -221 -347c138 59 247 241 244 315zM28 -260c-5 0 -8 2 -10 7c-1 3 -2 5 -2 7c0 5 2 9 6 13c31 23 54 50 68 82c-27 0 -43 18 -43 42c0 33 29 64 64 64c28 0 47 -20 47 -48c0 -25 -11 -53 -33 -85s-51 -58 -88 -79c-3 -2 -6 -3 -9 -3z" />
    <glyph glyph-name="Lslash" unicode="&#x141;" horiz-adv-x="610" 
d="M124 15c-30 -9 -61 -14 -94 -14c-51 0 -79 23 -79 54c0 32 34 61 90 61c19 0 41 -3 64 -10c16 16 31 36 46 60l-99 -15h-4c-8 0 -11 6 -10 15l1 6c2 9 7 13 15 14l117 16l21 44c-91 20 -135 88 -135 165c0 76 48 150 111 150c8 0 12 -3 12 -10l-2 -8
c-18 -38 -27 -75 -27 -111c0 -56 25 -100 72 -116c55 119 114 219 179 300s133 122 205 122c61 0 91 -34 91 -87c3 -119 -161 -344 -345 -395l-15 -30l121 18h4c8 0 11 -5 9 -15l-1 -6c-2 -9 -7 -13 -15 -14l-138 -19c-33 -57 -68 -99 -104 -127c64 -27 121 -42 189 -42
c29 0 48 5 75 16c3 1 6 2 10 2c5 0 7 -2 7 -5c-6 -57 -59 -122 -148 -122c-32 0 -61 5 -87 15c-52 19 -84 44 -136 88zM634 653c0 21 -8 32 -23 32c-51 0 -124 -130 -221 -347c138 59 247 241 244 315z" />
    <glyph glyph-name="M" unicode="M" horiz-adv-x="981" 
d="M-43 7l-1 4c0 6 4 10 11 12c41 13 83 43 124 89c42 47 80 102 114 166l122 227l21 41c24 48 36 70 53 90c-5 1 -16 3 -32 8c-31 8 -66 15 -98 15c-84 0 -134 -57 -134 -133c0 -30 7 -59 21 -87c1 -2 2 -5 2 -8c0 -6 -3 -9 -10 -9c-68 -5 -109 46 -109 117
c0 102 92 192 216 192c43 0 77 -10 134 -29c51 -17 83 -27 119 -27c11 0 24 1 38 3h2c9 0 13 -5 11 -14c-3 -17 -7 -45 -11 -85l-38 -355l350 438c4 5 10 8 18 8h159c9 0 14 -7 10 -16l-218 -468c-17 -36 -25 -65 -25 -87c0 -19 8 -30 21 -30c40 0 121 70 169 171
c3 7 8 10 17 10c12 0 27 -10 27 -22c0 -1 -1 -4 -2 -8c-66 -139 -192 -243 -297 -243c-59 0 -94 29 -94 89c0 39 14 87 41 144l146 314l-393 -516c-3 -5 -9 -8 -17 -8h-58c-9 0 -14 5 -13 15l56 495l-142 -282c-41 -82 -83 -149 -126 -202c-42 -52 -81 -78 -118 -78
c-36 0 -58 15 -66 59z" />
    <glyph glyph-name="N" unicode="N" horiz-adv-x="809" 
d="M-45 7l-1 4c0 6 4 10 11 12c87 29 179 130 260 287l102 195l18 35c25 51 36 73 55 94c-17 4 -30 7 -38 10c-35 11 -59 16 -91 16c-84 0 -134 -57 -134 -133c0 -30 7 -59 22 -88c1 -4 2 -6 2 -7c0 -7 -4 -10 -11 -10c-68 -5 -109 46 -109 117c0 103 93 193 216 193
c44 0 77 -11 128 -31c47 -17 71 -26 104 -26c16 0 28 1 37 3h3c9 0 12 -4 10 -13c-1 -7 -2 -17 -2 -31c0 -16 3 -43 3 -54l26 -368l106 228c29 62 54 113 75 152c43 79 92 136 141 136c36 0 58 -16 66 -59l1 -4c0 -7 -4 -11 -12 -13c-76 -23 -141 -116 -210 -263l-181 -388
c-3 -7 -9 -11 -16 -12l-77 -12h-3c-7 0 -11 4 -12 13l-39 510l-119 -241c-96 -193 -189 -311 -265 -311c-36 0 -58 15 -66 59z" />
    <glyph glyph-name="Nacute" unicode="&#x143;" horiz-adv-x="809" 
d="M-45 7l-1 4c0 6 4 10 11 12c87 29 179 130 260 287l102 195l18 35c25 51 36 73 55 94c-17 4 -30 7 -38 10c-35 11 -59 16 -91 16c-84 0 -134 -57 -134 -133c0 -30 7 -59 22 -88c1 -4 2 -6 2 -7c0 -7 -4 -10 -11 -10c-68 -5 -109 46 -109 117c0 103 93 193 216 193
c44 0 77 -11 128 -31c47 -17 71 -26 104 -26c16 0 28 1 37 3h3c9 0 12 -4 10 -13c-1 -7 -2 -17 -2 -31c0 -16 3 -43 3 -54l26 -368l106 228c29 62 54 113 75 152c43 79 92 136 141 136c36 0 58 -16 66 -59l1 -4c0 -7 -4 -11 -12 -13c-76 -23 -141 -116 -210 -263l-181 -388
c-3 -7 -9 -11 -16 -12l-77 -12h-3c-7 0 -11 4 -12 13l-39 510l-119 -241c-96 -193 -189 -311 -265 -311c-36 0 -58 15 -66 59zM643 726c0 2 1 5 4 9l116 144c5 7 11 8 19 5l57 -22c6 -2 9 -5 9 -10c0 -3 -2 -6 -5 -9l-138 -119c-4 -4 -10 -6 -17 -6h-33c-8 0 -12 3 -12 8z
" />
    <glyph glyph-name="Ncaron" unicode="&#x147;" horiz-adv-x="809" 
d="M-45 7l-1 4c0 6 4 10 11 12c87 29 179 130 260 287l102 195l18 35c25 51 36 73 55 94c-17 4 -30 7 -38 10c-35 11 -59 16 -91 16c-84 0 -134 -57 -134 -133c0 -30 7 -59 22 -88c1 -4 2 -6 2 -7c0 -7 -4 -10 -11 -10c-68 -5 -109 46 -109 117c0 103 93 193 216 193
c44 0 77 -11 128 -31c47 -17 71 -26 104 -26c16 0 28 1 37 3h3c9 0 12 -4 10 -13c-1 -7 -2 -17 -2 -31c0 -16 3 -43 3 -54l26 -368l106 228c29 62 54 113 75 152c43 79 92 136 141 136c36 0 58 -16 66 -59l1 -4c0 -7 -4 -11 -12 -13c-76 -23 -141 -116 -210 -263l-181 -388
c-3 -7 -9 -11 -16 -12l-77 -12h-3c-7 0 -11 4 -12 13l-39 510l-119 -241c-96 -193 -189 -311 -265 -311c-36 0 -58 15 -66 59zM623 731l-14 132v2c0 9 4 13 13 13h28c8 0 13 -4 15 -12l23 -86l113 92c5 4 11 6 18 6h30c7 0 11 -2 11 -7c0 -3 -2 -7 -5 -10l-146 -136
c-5 -5 -10 -7 -17 -7h-55c-8 0 -13 4 -14 13z" />
    <glyph glyph-name="uni0145" unicode="&#x145;" horiz-adv-x="809" 
d="M-45 7l-1 4c0 6 4 10 11 12c87 29 179 130 260 287l102 195l18 35c25 51 36 73 55 94c-17 4 -30 7 -38 10c-35 11 -59 16 -91 16c-84 0 -134 -57 -134 -133c0 -30 7 -59 22 -88c1 -4 2 -6 2 -7c0 -7 -4 -10 -11 -10c-68 -5 -109 46 -109 117c0 103 93 193 216 193
c44 0 77 -11 128 -31c47 -17 71 -26 104 -26c16 0 28 1 37 3h3c9 0 12 -4 10 -13c-1 -7 -2 -17 -2 -31c0 -16 3 -43 3 -54l26 -368l106 228c29 62 54 113 75 152c43 79 92 136 141 136c36 0 58 -16 66 -59l1 -4c0 -7 -4 -11 -12 -13c-76 -23 -141 -116 -210 -263l-181 -388
c-3 -7 -9 -11 -16 -12l-77 -12h-3c-7 0 -11 4 -12 13l-39 510l-119 -241c-96 -193 -189 -311 -265 -311c-36 0 -58 15 -66 59zM191 -264c-5 0 -8 2 -10 7c-1 3 -2 5 -2 7c0 5 2 9 6 13c31 23 54 50 68 82c-27 0 -43 18 -43 42c0 33 29 64 64 64c28 0 47 -20 47 -48
c0 -25 -11 -53 -33 -85s-51 -58 -88 -79c-3 -2 -6 -3 -9 -3z" />
    <glyph glyph-name="Eng" unicode="&#x14a;" horiz-adv-x="808" 
d="M254 -188c0 6 1 10 2 13c2 6 7 9 16 9c71 -5 124 43 173 127l-41 539l-119 -241c-96 -193 -189 -311 -265 -311c-36 0 -58 15 -66 59l-1 4c0 6 4 10 11 12c87 29 179 130 260 287l102 195l18 35c25 49 38 73 55 94c-17 4 -30 7 -38 10c-35 11 -59 16 -91 16
c-84 0 -134 -58 -134 -134c0 -27 7 -56 22 -87c1 -4 2 -6 2 -7c0 -7 -4 -10 -11 -10c-67 -5 -108 46 -108 117c0 103 91 193 215 193c44 0 77 -11 128 -31c47 -17 71 -26 104 -26c12 0 25 1 38 3h3c9 0 12 -4 10 -13c-2 -11 -3 -22 -3 -35c0 -3 1 -20 3 -50l26 -368l106 228
c30 64 55 115 76 153c43 77 91 135 140 135c36 0 58 -16 66 -59l1 -4c0 -7 -4 -11 -12 -13c-77 -23 -143 -119 -210 -263l-143 -308c-4 -9 -7 -16 -10 -21c-28 -61 -53 -112 -76 -151c-45 -79 -111 -142 -195 -142c-29 0 -54 21 -54 45z" />
    <glyph glyph-name="Ntilde" unicode="&#xd1;" horiz-adv-x="809" 
d="M-45 7l-1 4c0 6 4 10 11 12c87 29 179 130 260 287l102 195l18 35c25 51 36 73 55 94c-17 4 -30 7 -38 10c-35 11 -59 16 -91 16c-84 0 -134 -57 -134 -133c0 -30 7 -59 22 -88c1 -4 2 -6 2 -7c0 -7 -4 -10 -11 -10c-68 -5 -109 46 -109 117c0 103 93 193 216 193
c44 0 77 -11 128 -31c47 -17 71 -26 104 -26c16 0 28 1 37 3h3c9 0 12 -4 10 -13c-1 -7 -2 -17 -2 -31c0 -16 3 -43 3 -54l26 -368l106 228c29 62 54 113 75 152c43 79 92 136 141 136c36 0 58 -16 66 -59l1 -4c0 -7 -4 -11 -12 -13c-76 -23 -141 -116 -210 -263l-181 -388
c-3 -7 -9 -11 -16 -12l-77 -12h-3c-7 0 -11 4 -12 13l-39 510l-119 -241c-96 -193 -189 -311 -265 -311c-36 0 -58 15 -66 59zM668 768c-21 16 -33 23 -50 23c-19 0 -41 -10 -57 -27c-5 -5 -8 -7 -11 -7c-2 0 -5 1 -8 3c-7 4 -9 10 -5 18c23 44 63 79 108 79
c25 0 43 -9 68 -28c21 -15 36 -23 56 -23c25 0 52 16 71 40c5 8 11 10 18 6c7 -5 9 -11 5 -18c-24 -57 -65 -96 -118 -96c-31 0 -49 10 -77 30z" />
    <glyph glyph-name="O" unicode="O" horiz-adv-x="664" 
d="M24 172c-2 156 117 377 272 453c47 68 118 113 205 113c116 0 172 -79 172 -200c0 -77 -21 -161 -63 -250s-98 -163 -169 -224s-147 -91 -229 -91c-127 0 -188 79 -188 199zM558 576c0 61 -20 98 -60 98c-73 4 -155 -120 -152 -235c0 -16 2 -34 5 -54l1 -5
c-1 -7 -6 -11 -13 -10c-41 4 -69 27 -81 63c-53 -92 -89 -201 -89 -278c0 -61 24 -100 73 -100s98 30 147 91s90 133 121 216c32 84 48 155 48 214z" />
    <glyph glyph-name="Oacute" unicode="&#xd3;" horiz-adv-x="664" 
d="M24 172c-2 156 117 377 272 453c47 68 118 113 205 113c116 0 172 -79 172 -200c0 -77 -21 -161 -63 -250s-98 -163 -169 -224s-147 -91 -229 -91c-127 0 -188 79 -188 199zM558 576c0 61 -20 98 -60 98c-73 4 -155 -120 -152 -235c0 -16 2 -34 5 -54l1 -5
c-1 -7 -6 -11 -13 -10c-41 4 -69 27 -81 63c-53 -92 -89 -201 -89 -278c0 -61 24 -100 73 -100s98 30 147 91s90 133 121 216c32 84 48 155 48 214zM517 767c0 2 1 5 4 9l116 144c5 7 11 8 19 5l57 -22c6 -2 9 -5 9 -10c0 -3 -2 -6 -5 -9l-138 -119c-4 -4 -10 -6 -17 -6h-33
c-8 0 -12 3 -12 8z" />
    <glyph glyph-name="Ocircumflex" unicode="&#xd4;" horiz-adv-x="664" 
d="M24 172c-2 156 117 377 272 453c47 68 118 113 205 113c116 0 172 -79 172 -200c0 -77 -21 -161 -63 -250s-98 -163 -169 -224s-147 -91 -229 -91c-127 0 -188 79 -188 199zM558 576c0 61 -20 98 -60 98c-73 4 -155 -120 -152 -235c0 -16 2 -34 5 -54l1 -5
c-1 -7 -6 -11 -13 -10c-41 4 -69 27 -81 63c-53 -92 -89 -201 -89 -278c0 -61 24 -100 73 -100s98 30 147 91s90 133 121 216c32 84 48 155 48 214zM408 767c0 3 2 6 5 9l139 136c5 5 10 7 17 7h55c8 0 14 -5 15 -13l24 -132v-4c0 -7 -4 -11 -12 -11h-29c-7 0 -13 4 -16 11
l-29 83l-103 -88c-4 -4 -10 -6 -18 -6h-36c-8 0 -12 3 -12 8z" />
    <glyph glyph-name="Odieresis" unicode="&#xd6;" horiz-adv-x="664" 
d="M24 172c-2 156 117 377 272 453c47 68 118 113 205 113c116 0 172 -79 172 -200c0 -77 -21 -161 -63 -250s-98 -163 -169 -224s-147 -91 -229 -91c-127 0 -188 79 -188 199zM558 576c0 61 -20 98 -60 98c-73 4 -155 -120 -152 -235c0 -16 2 -34 5 -54l1 -5
c-1 -7 -6 -11 -13 -10c-41 4 -69 27 -81 63c-53 -92 -89 -201 -89 -278c0 -61 24 -100 73 -100s98 30 147 91s90 133 121 216c32 84 48 155 48 214zM581 822c0 32 33 69 74 69c27 0 40 -14 40 -37c0 -32 -30 -67 -73 -67c-28 0 -41 15 -41 35zM440 822c0 32 33 69 74 69
c27 0 40 -14 40 -37c0 -32 -30 -67 -73 -67c-28 0 -41 15 -41 35z" />
    <glyph glyph-name="Ograve" unicode="&#xd2;" horiz-adv-x="664" 
d="M24 172c-2 156 117 377 272 453c47 68 118 113 205 113c116 0 172 -79 172 -200c0 -77 -21 -161 -63 -250s-98 -163 -169 -224s-147 -91 -229 -91c-127 0 -188 79 -188 199zM558 576c0 61 -20 98 -60 98c-73 4 -155 -120 -152 -235c0 -16 2 -34 5 -54l1 -5
c-1 -7 -6 -11 -13 -10c-41 4 -69 27 -81 63c-53 -92 -89 -201 -89 -278c0 -61 24 -100 73 -100s98 30 147 91s90 133 121 216c32 84 48 155 48 214zM500 768l-74 123c-1 2 -2 5 -2 8c0 6 3 9 9 10l65 17l5 1c6 0 10 -3 12 -10l50 -142c1 -1 1 -3 1 -6c0 -7 -4 -10 -12 -10
h-37c-7 0 -13 3 -17 9z" />
    <glyph glyph-name="Ohungarumlaut" unicode="&#x150;" horiz-adv-x="664" 
d="M24 172c-2 156 117 377 272 453c47 68 118 113 205 113c116 0 172 -79 172 -200c0 -77 -21 -161 -63 -250s-98 -163 -169 -224s-147 -91 -229 -91c-127 0 -188 79 -188 199zM558 576c0 61 -20 98 -60 98c-73 4 -155 -120 -152 -235c0 -16 2 -34 5 -54l1 -5
c-1 -7 -6 -11 -13 -10c-41 4 -69 27 -81 63c-53 -92 -89 -201 -89 -278c0 -61 24 -100 73 -100s98 30 147 91s90 133 121 216c32 84 48 155 48 214zM428 767c0 3 1 6 4 9l125 144c5 7 12 8 19 5l53 -20c5 -2 8 -5 8 -10c0 -3 -2 -6 -5 -9l-142 -121c-4 -4 -10 -6 -18 -6h-32
c-8 0 -12 3 -12 8zM565 767c0 3 1 6 4 9l125 144c5 7 12 8 19 5l52 -20c5 -2 8 -5 8 -10c0 -3 -2 -6 -5 -9l-141 -121c-4 -4 -10 -6 -18 -6h-32c-8 0 -12 3 -12 8z" />
    <glyph glyph-name="Omacron" unicode="&#x14c;" horiz-adv-x="664" 
d="M24 172c-2 156 117 377 272 453c47 68 118 113 205 113c116 0 172 -79 172 -200c0 -77 -21 -161 -63 -250s-98 -163 -169 -224s-147 -91 -229 -91c-127 0 -188 79 -188 199zM558 576c0 61 -20 98 -60 98c-73 4 -155 -120 -152 -235c0 -16 2 -34 5 -54l1 -5
c-1 -7 -6 -11 -13 -10c-41 4 -69 27 -81 63c-53 -92 -89 -201 -89 -278c0 -61 24 -100 73 -100s98 30 147 91s90 133 121 216c32 84 48 155 48 214zM435 826l14 31c3 7 8 11 17 11h218c11 0 15 -8 10 -17l-15 -31c-3 -7 -8 -10 -16 -10h-218c-9 0 -14 7 -10 16z" />
    <glyph glyph-name="Oslash" unicode="&#xd8;" horiz-adv-x="664" 
d="M15 -70c0 3 1 6 4 9l64 76c-40 35 -59 90 -59 157c-2 156 117 377 272 453c47 68 118 113 205 113c63 0 109 -22 138 -67l39 46c5 5 11 8 17 8h10c8 0 12 -3 12 -8c0 -3 -1 -6 -4 -9l-57 -68c11 -31 17 -65 17 -102c0 -77 -21 -161 -63 -250s-98 -163 -169 -224
s-147 -91 -229 -91c-40 0 -74 8 -101 23l-55 -66c-4 -5 -10 -8 -17 -8h-12c-8 0 -12 3 -12 8zM553 518l-367 -434c13 -19 31 -29 56 -29c44 0 88 25 133 75s83 111 115 184c33 73 54 141 63 204zM172 120l386 455c0 63 -20 99 -60 99c-73 4 -155 -120 -152 -235
c0 -16 2 -34 5 -54l1 -5c-1 -7 -6 -11 -13 -10c-41 4 -69 27 -81 63c-53 -92 -89 -201 -89 -278c0 -12 1 -24 3 -35z" />
    <glyph glyph-name="Otilde" unicode="&#xd5;" horiz-adv-x="664" 
d="M24 172c-2 156 117 377 272 453c47 68 118 113 205 113c116 0 172 -79 172 -200c0 -77 -21 -161 -63 -250s-98 -163 -169 -224s-147 -91 -229 -91c-127 0 -188 79 -188 199zM558 576c0 61 -20 98 -60 98c-73 4 -155 -120 -152 -235c0 -16 2 -34 5 -54l1 -5
c-1 -7 -6 -11 -13 -10c-41 4 -69 27 -81 63c-53 -92 -89 -201 -89 -278c0 -61 24 -100 73 -100s98 30 147 91s90 133 121 216c32 84 48 155 48 214zM542 809c-21 16 -33 23 -50 23c-19 0 -41 -10 -57 -27c-5 -5 -8 -7 -11 -7c-2 0 -5 1 -8 3c-7 4 -9 10 -5 18
c23 44 63 79 108 79c25 0 43 -9 68 -28c21 -15 36 -23 56 -23c25 0 52 16 71 40c5 8 11 10 18 6c7 -5 9 -11 5 -18c-24 -57 -65 -96 -118 -96c-31 0 -49 10 -77 30z" />
    <glyph glyph-name="P" unicode="P" horiz-adv-x="755" 
d="M56 -50c-1 3 -2 5 -2 6c0 4 2 8 7 13c23 21 42 41 55 60c13 20 29 49 47 87l100 215c32 69 60 123 84 162c48 80 101 129 176 141l4 1c5 0 10 -3 13 -9l1 -1c2 -3 3 -6 3 -9s-2 -6 -5 -11c-20 -21 -33 -52 -60 -124l-23 -59c-12 -30 -25 -60 -40 -91l-33 -71h4
c149 -5 291 159 287 280c0 87 -62 146 -190 146c-175 4 -314 -128 -311 -259c0 -30 6 -59 19 -86c1 -4 2 -6 2 -7c0 -7 -4 -10 -11 -10c-73 -6 -112 61 -112 121c-4 122 162 299 409 294c204 0 316 -110 316 -236c2 -145 -154 -299 -425 -296h-12l-50 -107
c-47 -103 -114 -176 -194 -176c-29 0 -49 9 -59 26z" />
    <glyph glyph-name="Thorn" unicode="&#xde;" horiz-adv-x="759" 
d="M43 -80c-1 3 -2 5 -2 6c0 4 2 8 7 13c23 20 41 40 54 59s29 49 48 88l115 245c43 91 85 163 124 217c-156 -16 -269 -120 -269 -237c0 -29 6 -57 19 -83c1 -2 2 -5 2 -8c0 -6 -4 -9 -11 -10c-73 -6 -112 64 -112 121c-5 143 193 276 414 272c57 64 117 107 180 128
c1 1 3 1 6 1c5 0 9 -3 12 -8c2 -3 3 -6 3 -9c0 -4 -2 -8 -6 -11c-32 -29 -61 -67 -88 -112c65 -15 116 -42 151 -82c35 -39 53 -84 53 -133c2 -139 -154 -286 -425 -283h-10l-11 -24c-49 -104 -115 -176 -195 -176c-29 0 -49 9 -59 26zM621 411c0 61 -36 110 -109 130
c-7 -14 -23 -51 -50 -110c-19 -44 -33 -77 -44 -100l-85 -184c153 -5 292 148 288 264z" />
    <glyph glyph-name="Q" unicode="Q" horiz-adv-x="643" 
d="M214 -22c-29 -5 -55 -7 -77 -7c-55 0 -87 26 -87 58c0 31 32 58 85 58c27 0 53 -7 79 -21c55 15 106 51 155 108c49 58 88 123 117 196c30 73 45 137 45 192c0 69 -25 112 -80 112c-43 0 -85 -25 -126 -74c-40 -49 -73 -110 -98 -181s-37 -136 -37 -195
c0 -33 4 -60 11 -81c1 -4 2 -6 2 -7c0 -6 -4 -9 -13 -9c-83 5 -123 64 -123 151c0 61 18 128 53 201c36 73 85 134 146 184c62 50 129 75 202 75c125 0 188 -82 188 -205c4 -182 -152 -449 -358 -529c64 -53 114 -84 190 -84c29 0 49 5 74 16c4 2 8 3 11 3c5 0 7 -2 6 -6
c-6 -56 -59 -121 -147 -121c-34 0 -64 8 -90 24c-25 16 -46 34 -62 53c-15 19 -37 48 -66 89z" />
    <glyph glyph-name="R" unicode="R" horiz-adv-x="789" 
d="M471 154c-1 35 -2 61 -5 80c-5 39 -23 69 -64 69h-9l-137 -293c-3 -7 -8 -10 -16 -10h-125c-9 0 -14 7 -10 16l148 315c32 69 60 124 83 163c48 79 102 128 177 140l4 1c6 0 10 -3 13 -9l1 -1c1 -2 2 -5 2 -8c0 -5 -2 -9 -5 -12c-19 -21 -32 -52 -60 -124
c-13 -36 -30 -77 -49 -122h36c128 0 212 92 212 182c0 78 -63 145 -192 145c-163 4 -306 -131 -302 -261c0 -29 6 -57 19 -84c1 -4 2 -6 2 -7c0 -7 -4 -10 -11 -10c-74 -6 -112 61 -112 121c0 41 17 85 50 131s81 85 142 116c62 31 134 47 216 47c225 0 320 -103 320 -203
c0 -92 -83 -187 -250 -215c20 -12 35 -28 45 -47c20 -39 23 -74 24 -133c3 -61 7 -89 35 -89c36 0 87 53 151 188c3 7 8 10 17 10c12 0 27 -10 27 -22c0 -1 -1 -4 -2 -8c-84 -179 -163 -260 -260 -260c-35 0 -60 9 -77 28c-33 36 -37 83 -38 166z" />
    <glyph glyph-name="Racute" unicode="&#x154;" horiz-adv-x="789" 
d="M471 154c-1 35 -2 61 -5 80c-5 39 -23 69 -64 69h-9l-137 -293c-3 -7 -8 -10 -16 -10h-125c-9 0 -14 7 -10 16l148 315c32 69 60 124 83 163c48 79 102 128 177 140l4 1c6 0 10 -3 13 -9l1 -1c1 -2 2 -5 2 -8c0 -5 -2 -9 -5 -12c-19 -21 -32 -52 -60 -124
c-13 -36 -30 -77 -49 -122h36c128 0 212 92 212 182c0 78 -63 145 -192 145c-163 4 -306 -131 -302 -261c0 -29 6 -57 19 -84c1 -4 2 -6 2 -7c0 -7 -4 -10 -11 -10c-74 -6 -112 61 -112 121c0 41 17 85 50 131s81 85 142 116c62 31 134 47 216 47c225 0 320 -103 320 -203
c0 -92 -83 -187 -250 -215c20 -12 35 -28 45 -47c20 -39 23 -74 24 -133c3 -61 7 -89 35 -89c36 0 87 53 151 188c3 7 8 10 17 10c12 0 27 -10 27 -22c0 -1 -1 -4 -2 -8c-84 -179 -163 -260 -260 -260c-35 0 -60 9 -77 28c-33 36 -37 83 -38 166zM573 767c0 2 1 5 4 9
l116 144c5 7 11 8 19 5l57 -22c6 -2 9 -5 9 -10c0 -3 -2 -6 -5 -9l-138 -119c-4 -4 -10 -6 -17 -6h-33c-8 0 -12 3 -12 8z" />
    <glyph glyph-name="Rcaron" unicode="&#x158;" horiz-adv-x="789" 
d="M471 154c-1 35 -2 61 -5 80c-5 39 -23 69 -64 69h-9l-137 -293c-3 -7 -8 -10 -16 -10h-125c-9 0 -14 7 -10 16l148 315c32 69 60 124 83 163c48 79 102 128 177 140l4 1c6 0 10 -3 13 -9l1 -1c1 -2 2 -5 2 -8c0 -5 -2 -9 -5 -12c-19 -21 -32 -52 -60 -124
c-13 -36 -30 -77 -49 -122h36c128 0 212 92 212 182c0 78 -63 145 -192 145c-163 4 -306 -131 -302 -261c0 -29 6 -57 19 -84c1 -4 2 -6 2 -7c0 -7 -4 -10 -11 -10c-74 -6 -112 61 -112 121c0 41 17 85 50 131s81 85 142 116c62 31 134 47 216 47c225 0 320 -103 320 -203
c0 -92 -83 -187 -250 -215c20 -12 35 -28 45 -47c20 -39 23 -74 24 -133c3 -61 7 -89 35 -89c36 0 87 53 151 188c3 7 8 10 17 10c12 0 27 -10 27 -22c0 -1 -1 -4 -2 -8c-84 -179 -163 -260 -260 -260c-35 0 -60 9 -77 28c-33 36 -37 83 -38 166zM553 772l-14 132v2
c0 9 4 13 13 13h28c8 0 13 -4 15 -12l23 -86l113 92c5 4 11 6 18 6h30c7 0 11 -2 11 -7c0 -3 -2 -7 -5 -10l-146 -136c-5 -5 -10 -7 -17 -7h-55c-8 0 -13 4 -14 13z" />
    <glyph glyph-name="uni0156" unicode="&#x156;" horiz-adv-x="789" 
d="M471 154c-1 35 -2 61 -5 80c-5 39 -23 69 -64 69h-9l-137 -293c-3 -7 -8 -10 -16 -10h-125c-9 0 -14 7 -10 16l148 315c32 69 60 124 83 163c48 79 102 128 177 140l4 1c6 0 10 -3 13 -9l1 -1c1 -2 2 -5 2 -8c0 -5 -2 -9 -5 -12c-19 -21 -32 -52 -60 -124
c-13 -36 -30 -77 -49 -122h36c128 0 212 92 212 182c0 78 -63 145 -192 145c-163 4 -306 -131 -302 -261c0 -29 6 -57 19 -84c1 -4 2 -6 2 -7c0 -7 -4 -10 -11 -10c-74 -6 -112 61 -112 121c0 41 17 85 50 131s81 85 142 116c62 31 134 47 216 47c225 0 320 -103 320 -203
c0 -92 -83 -187 -250 -215c20 -12 35 -28 45 -47c20 -39 23 -74 24 -133c3 -61 7 -89 35 -89c36 0 87 53 151 188c3 7 8 10 17 10c12 0 27 -10 27 -22c0 -1 -1 -4 -2 -8c-84 -179 -163 -260 -260 -260c-35 0 -60 9 -77 28c-33 36 -37 83 -38 166zM242 -263c-5 0 -8 2 -10 7
c-1 3 -2 5 -2 7c0 5 2 9 6 13c31 23 54 50 68 82c-27 0 -43 18 -43 42c0 33 29 64 64 64c28 0 47 -20 47 -48c0 -25 -11 -53 -33 -85s-51 -58 -88 -79c-3 -2 -6 -3 -9 -3z" />
    <glyph glyph-name="S" unicode="S" horiz-adv-x="573" 
d="M-21 130c0 89 62 177 143 177c37 0 58 -23 58 -52c0 -37 -30 -71 -77 -71c-10 0 -19 3 -28 8c-11 -17 -16 -36 -16 -55c0 -52 38 -97 103 -97c92 0 165 67 165 176c0 52 -14 92 -39 151c-25 65 -37 98 -37 146c-3 136 123 227 243 225c108 0 162 -69 162 -135
c0 -51 -31 -92 -80 -92c-35 0 -53 20 -53 48s20 58 49 70c-4 28 -33 49 -74 49c-33 0 -60 -12 -81 -37c-20 -25 -30 -53 -30 -86c0 -36 12 -68 43 -135c37 -76 58 -131 58 -196c0 -150 -133 -264 -304 -264c-139 0 -205 74 -205 170z" />
    <glyph glyph-name="Sacute" unicode="&#x15a;" horiz-adv-x="573" 
d="M-21 130c0 89 62 177 143 177c37 0 58 -23 58 -52c0 -37 -30 -71 -77 -71c-10 0 -19 3 -28 8c-11 -17 -16 -36 -16 -55c0 -52 38 -97 103 -97c92 0 165 67 165 176c0 52 -14 92 -39 151c-25 65 -37 98 -37 146c-3 136 123 227 243 225c108 0 162 -69 162 -135
c0 -51 -31 -92 -80 -92c-35 0 -53 20 -53 48s20 58 49 70c-4 28 -33 49 -74 49c-33 0 -60 -12 -81 -37c-20 -25 -30 -53 -30 -86c0 -36 12 -68 43 -135c37 -76 58 -131 58 -196c0 -150 -133 -264 -304 -264c-139 0 -205 74 -205 170zM510 768c0 2 1 5 4 9l116 144
c5 7 11 8 19 5l57 -22c6 -2 9 -5 9 -10c0 -3 -2 -6 -5 -9l-138 -119c-4 -4 -10 -6 -17 -6h-33c-8 0 -12 3 -12 8z" />
    <glyph glyph-name="Scaron" unicode="&#x160;" horiz-adv-x="573" 
d="M-21 130c0 89 62 177 143 177c37 0 58 -23 58 -52c0 -37 -30 -71 -77 -71c-10 0 -19 3 -28 8c-11 -17 -16 -36 -16 -55c0 -52 38 -97 103 -97c92 0 165 67 165 176c0 52 -14 92 -39 151c-25 65 -37 98 -37 146c-3 136 123 227 243 225c108 0 162 -69 162 -135
c0 -51 -31 -92 -80 -92c-35 0 -53 20 -53 48s20 58 49 70c-4 28 -33 49 -74 49c-33 0 -60 -12 -81 -37c-20 -25 -30 -53 -30 -86c0 -36 12 -68 43 -135c37 -76 58 -131 58 -196c0 -150 -133 -264 -304 -264c-139 0 -205 74 -205 170zM490 773l-14 132v2c0 9 4 13 13 13h28
c8 0 13 -4 15 -12l23 -86l113 92c5 4 11 6 18 6h30c7 0 11 -2 11 -7c0 -3 -2 -7 -5 -10l-146 -136c-5 -5 -10 -7 -17 -7h-55c-8 0 -13 4 -14 13z" />
    <glyph glyph-name="Scedilla" unicode="&#x15e;" horiz-adv-x="573" 
d="M-21 130c0 89 62 177 143 177c37 0 58 -23 58 -52c0 -37 -30 -71 -77 -71c-10 0 -19 3 -28 8c-11 -17 -16 -36 -16 -55c0 -52 38 -97 103 -97c92 0 165 67 165 176c0 52 -14 92 -39 151c-25 65 -37 98 -37 146c-3 136 123 227 243 225c108 0 162 -69 162 -135
c0 -51 -31 -92 -80 -92c-35 0 -53 20 -53 48s20 58 49 70c-4 28 -33 49 -74 49c-33 0 -60 -12 -81 -37c-20 -25 -30 -53 -30 -86c0 -36 12 -68 43 -135c37 -76 58 -131 58 -196c0 -150 -133 -264 -304 -264c-139 0 -205 74 -205 170zM30 -228c-5 3 -8 7 -8 10l2 8l10 23
c3 7 9 10 19 8c17 -5 33 -8 48 -8c43 0 76 21 76 46c0 23 -27 34 -62 34c-12 0 -16 6 -11 15l4 9c3 7 8 10 15 11c11 1 19 2 24 2c53 0 102 -30 102 -75c0 -58 -74 -98 -146 -98c-26 0 -50 5 -73 15z" />
    <glyph glyph-name="uni0218" unicode="&#x218;" horiz-adv-x="573" 
d="M-21 130c0 89 62 177 143 177c37 0 58 -23 58 -52c0 -37 -30 -71 -77 -71c-10 0 -19 3 -28 8c-11 -17 -16 -36 -16 -55c0 -52 38 -97 103 -97c92 0 165 67 165 176c0 52 -14 92 -39 151c-25 65 -37 98 -37 146c-3 136 123 227 243 225c108 0 162 -69 162 -135
c0 -51 -31 -92 -80 -92c-35 0 -53 20 -53 48s20 58 49 70c-4 28 -33 49 -74 49c-33 0 -60 -12 -81 -37c-20 -25 -30 -53 -30 -86c0 -36 12 -68 43 -135c37 -76 58 -131 58 -196c0 -150 -133 -264 -304 -264c-139 0 -205 74 -205 170zM40 -288c-5 0 -8 2 -10 7
c-1 3 -2 5 -2 7c0 5 2 9 6 13c31 23 54 50 68 82c-27 0 -43 18 -43 42c0 33 29 64 64 64c28 0 47 -20 47 -48c0 -25 -11 -53 -33 -85s-51 -58 -88 -79c-3 -2 -6 -3 -9 -3z" />
    <glyph glyph-name="T" unicode="T" horiz-adv-x="605" 
d="M157 17c0 43 15 95 44 156l55 115c71 149 131 254 206 311c-71 25 -113 38 -162 38c-105 0 -171 -70 -171 -156c0 -26 6 -53 18 -80c1 -4 2 -6 2 -7c0 -5 -4 -9 -12 -10c-68 -5 -107 47 -107 118c0 131 107 237 265 237c35 0 66 -4 93 -12s61 -20 100 -36
c55 -24 87 -36 127 -36c41 0 81 16 137 53c4 3 7 4 9 4c5 0 8 -3 10 -9c2 -7 3 -14 3 -21c0 -57 -56 -119 -159 -119c-21 0 -46 3 -74 10c-23 -39 -57 -113 -88 -185c-11 -24 -24 -57 -44 -100l-74 -161c-35 -76 -48 -131 -51 -196c0 -9 -4 -14 -13 -14
c-72 -3 -114 29 -114 100z" />
    <glyph glyph-name="Tbar" unicode="&#x166;" horiz-adv-x="605" 
d="M157 17c0 43 15 95 44 156l63 131h-126c-10 0 -14 5 -12 15l1 7c2 8 7 12 16 12h137c60 121 117 212 182 261c-71 25 -113 38 -162 38c-105 0 -171 -70 -171 -156c0 -26 6 -53 18 -80c1 -4 2 -6 2 -7c0 -5 -4 -9 -12 -10c-68 -5 -107 47 -107 118c0 131 107 237 265 237
c35 0 66 -4 93 -12s61 -20 100 -36c55 -24 87 -36 127 -36c41 0 81 16 137 53c4 3 7 4 9 4c5 0 8 -3 10 -9c2 -7 3 -14 3 -21c0 -57 -56 -119 -159 -119c-21 0 -46 3 -74 10c-19 -31 -47 -90 -84 -176l-26 -59h151c10 0 14 -5 12 -15l-1 -7c-2 -8 -7 -12 -16 -12h-161
l-81 -177c-35 -76 -48 -131 -51 -196c0 -9 -4 -14 -13 -14c-72 -3 -114 29 -114 100z" />
    <glyph glyph-name="Tcaron" unicode="&#x164;" horiz-adv-x="605" 
d="M157 17c0 43 15 95 44 156l55 115c71 149 131 254 206 311c-71 25 -113 38 -162 38c-105 0 -171 -70 -171 -156c0 -26 6 -53 18 -80c1 -4 2 -6 2 -7c0 -5 -4 -9 -12 -10c-68 -5 -107 47 -107 118c0 131 107 237 265 237c35 0 66 -4 93 -12s61 -20 100 -36
c55 -24 87 -36 127 -36c41 0 81 16 137 53c4 3 7 4 9 4c5 0 8 -3 10 -9c2 -7 3 -14 3 -21c0 -57 -56 -119 -159 -119c-21 0 -46 3 -74 10c-23 -39 -57 -113 -88 -185c-11 -24 -24 -57 -44 -100l-74 -161c-35 -76 -48 -131 -51 -196c0 -9 -4 -14 -13 -14
c-72 -3 -114 29 -114 100zM522 739l-14 132v2c0 9 4 13 13 13h28c8 0 13 -4 15 -12l23 -86l113 92c5 4 11 6 18 6h30c7 0 11 -2 11 -7c0 -3 -2 -7 -5 -10l-146 -136c-5 -5 -10 -7 -17 -7h-55c-8 0 -13 4 -14 13z" />
    <glyph glyph-name="uni0162" unicode="&#x162;" horiz-adv-x="605" 
d="M157 17c0 43 15 95 44 156l55 115c71 149 131 254 206 311c-71 25 -113 38 -162 38c-105 0 -171 -70 -171 -156c0 -26 6 -53 18 -80c1 -4 2 -6 2 -7c0 -5 -4 -9 -12 -10c-68 -5 -107 47 -107 118c0 131 107 237 265 237c35 0 66 -4 93 -12s61 -20 100 -36
c55 -24 87 -36 127 -36c41 0 81 16 137 53c4 3 7 4 9 4c5 0 8 -3 10 -9c2 -7 3 -14 3 -21c0 -57 -56 -119 -159 -119c-21 0 -46 3 -74 10c-23 -39 -57 -113 -88 -185c-11 -24 -24 -57 -44 -100l-74 -161c-35 -76 -48 -131 -51 -196c0 -9 -4 -14 -13 -14
c-72 -3 -114 29 -114 100zM83 -268c-5 3 -8 7 -8 10l2 8l10 23c3 7 9 10 19 8c17 -5 33 -8 48 -8c43 0 76 21 76 46c0 23 -27 34 -62 34c-12 0 -16 6 -11 15l4 9c3 7 8 10 15 11c11 1 19 2 24 2c53 0 102 -30 102 -75c0 -58 -74 -98 -146 -98c-26 0 -50 5 -73 15z" />
    <glyph glyph-name="uni021A" unicode="&#x21a;" horiz-adv-x="605" 
d="M157 17c0 43 15 95 44 156l55 115c71 149 131 254 206 311c-71 25 -113 38 -162 38c-105 0 -171 -70 -171 -156c0 -26 6 -53 18 -80c1 -4 2 -6 2 -7c0 -5 -4 -9 -12 -10c-68 -5 -107 47 -107 118c0 131 107 237 265 237c35 0 66 -4 93 -12s61 -20 100 -36
c55 -24 87 -36 127 -36c41 0 81 16 137 53c4 3 7 4 9 4c5 0 8 -3 10 -9c2 -7 3 -14 3 -21c0 -57 -56 -119 -159 -119c-21 0 -46 3 -74 10c-23 -39 -57 -113 -88 -185c-11 -24 -24 -57 -44 -100l-74 -161c-35 -76 -48 -131 -51 -196c0 -9 -4 -14 -13 -14
c-72 -3 -114 29 -114 100zM93 -328c-5 0 -8 2 -10 7c-1 3 -2 5 -2 7c0 5 2 9 6 13c31 23 54 50 68 82c-27 0 -43 18 -43 42c0 33 29 64 64 64c28 0 47 -20 47 -48c0 -25 -11 -53 -33 -85s-51 -58 -88 -79c-3 -2 -6 -3 -9 -3z" />
    <glyph glyph-name="U" unicode="U" horiz-adv-x="768" 
d="M122 93c0 48 17 105 50 172l111 220c23 45 35 84 35 117c0 41 -20 66 -61 66c-81 0 -142 -97 -142 -191c0 -31 6 -59 19 -84c1 -2 2 -5 2 -9c0 -5 -3 -8 -10 -9c-65 -5 -108 44 -108 115c-3 102 117 245 250 240c96 0 177 -68 177 -173c0 -43 -13 -90 -39 -140l-91 -177
c-20 -39 -30 -72 -30 -97c0 -31 14 -46 38 -46c55 0 145 100 248 319l114 244c3 7 8 10 16 10h126c9 0 14 -7 10 -16l-218 -468c-17 -35 -26 -64 -26 -87c0 -19 9 -30 22 -30c40 0 120 70 168 171c3 7 8 10 17 10c12 0 27 -10 27 -22c0 -1 -1 -4 -2 -8
c-64 -136 -195 -243 -291 -243c-56 0 -96 33 -96 98c0 13 1 25 4 38c-73 -93 -140 -137 -208 -137s-112 41 -112 117z" />
    <glyph glyph-name="Uacute" unicode="&#xda;" horiz-adv-x="768" 
d="M122 93c0 48 17 105 50 172l111 220c23 45 35 84 35 117c0 41 -20 66 -61 66c-81 0 -142 -97 -142 -191c0 -31 6 -59 19 -84c1 -2 2 -5 2 -9c0 -5 -3 -8 -10 -9c-65 -5 -108 44 -108 115c-3 102 117 245 250 240c96 0 177 -68 177 -173c0 -43 -13 -90 -39 -140l-91 -177
c-20 -39 -30 -72 -30 -97c0 -31 14 -46 38 -46c55 0 145 100 248 319l114 244c3 7 8 10 16 10h126c9 0 14 -7 10 -16l-218 -468c-17 -35 -26 -64 -26 -87c0 -19 9 -30 22 -30c40 0 120 70 168 171c3 7 8 10 17 10c12 0 27 -10 27 -22c0 -1 -1 -4 -2 -8
c-64 -136 -195 -243 -291 -243c-56 0 -96 33 -96 98c0 13 1 25 4 38c-73 -93 -140 -137 -208 -137s-112 41 -112 117zM554 697c0 2 1 5 4 9l116 144c5 7 11 8 19 5l57 -22c6 -2 9 -5 9 -10c0 -3 -2 -6 -5 -9l-138 -119c-4 -4 -10 -6 -17 -6h-33c-8 0 -12 3 -12 8z" />
    <glyph glyph-name="Ucircumflex" unicode="&#xdb;" horiz-adv-x="768" 
d="M122 93c0 48 17 105 50 172l111 220c23 45 35 84 35 117c0 41 -20 66 -61 66c-81 0 -142 -97 -142 -191c0 -31 6 -59 19 -84c1 -2 2 -5 2 -9c0 -5 -3 -8 -10 -9c-65 -5 -108 44 -108 115c-3 102 117 245 250 240c96 0 177 -68 177 -173c0 -43 -13 -90 -39 -140l-91 -177
c-20 -39 -30 -72 -30 -97c0 -31 14 -46 38 -46c55 0 145 100 248 319l114 244c3 7 8 10 16 10h126c9 0 14 -7 10 -16l-218 -468c-17 -35 -26 -64 -26 -87c0 -19 9 -30 22 -30c40 0 120 70 168 171c3 7 8 10 17 10c12 0 27 -10 27 -22c0 -1 -1 -4 -2 -8
c-64 -136 -195 -243 -291 -243c-56 0 -96 33 -96 98c0 13 1 25 4 38c-73 -93 -140 -137 -208 -137s-112 41 -112 117zM445 697c0 3 2 6 5 9l139 136c5 5 10 7 17 7h55c8 0 14 -5 15 -13l24 -132v-4c0 -7 -4 -11 -12 -11h-29c-7 0 -13 4 -16 11l-29 83l-103 -88
c-4 -4 -10 -6 -18 -6h-36c-8 0 -12 3 -12 8z" />
    <glyph glyph-name="Udieresis" unicode="&#xdc;" horiz-adv-x="768" 
d="M122 93c0 48 17 105 50 172l111 220c23 45 35 84 35 117c0 41 -20 66 -61 66c-81 0 -142 -97 -142 -191c0 -31 6 -59 19 -84c1 -2 2 -5 2 -9c0 -5 -3 -8 -10 -9c-65 -5 -108 44 -108 115c-3 102 117 245 250 240c96 0 177 -68 177 -173c0 -43 -13 -90 -39 -140l-91 -177
c-20 -39 -30 -72 -30 -97c0 -31 14 -46 38 -46c55 0 145 100 248 319l114 244c3 7 8 10 16 10h126c9 0 14 -7 10 -16l-218 -468c-17 -35 -26 -64 -26 -87c0 -19 9 -30 22 -30c40 0 120 70 168 171c3 7 8 10 17 10c12 0 27 -10 27 -22c0 -1 -1 -4 -2 -8
c-64 -136 -195 -243 -291 -243c-56 0 -96 33 -96 98c0 13 1 25 4 38c-73 -93 -140 -137 -208 -137s-112 41 -112 117zM618 752c0 32 33 69 74 69c27 0 40 -14 40 -37c0 -32 -30 -67 -73 -67c-28 0 -41 15 -41 35zM477 752c0 32 33 69 74 69c27 0 40 -14 40 -37
c0 -32 -30 -67 -73 -67c-28 0 -41 15 -41 35z" />
    <glyph glyph-name="Ugrave" unicode="&#xd9;" horiz-adv-x="768" 
d="M122 93c0 48 17 105 50 172l111 220c23 45 35 84 35 117c0 41 -20 66 -61 66c-81 0 -142 -97 -142 -191c0 -31 6 -59 19 -84c1 -2 2 -5 2 -9c0 -5 -3 -8 -10 -9c-65 -5 -108 44 -108 115c-3 102 117 245 250 240c96 0 177 -68 177 -173c0 -43 -13 -90 -39 -140l-91 -177
c-20 -39 -30 -72 -30 -97c0 -31 14 -46 38 -46c55 0 145 100 248 319l114 244c3 7 8 10 16 10h126c9 0 14 -7 10 -16l-218 -468c-17 -35 -26 -64 -26 -87c0 -19 9 -30 22 -30c40 0 120 70 168 171c3 7 8 10 17 10c12 0 27 -10 27 -22c0 -1 -1 -4 -2 -8
c-64 -136 -195 -243 -291 -243c-56 0 -96 33 -96 98c0 13 1 25 4 38c-73 -93 -140 -137 -208 -137s-112 41 -112 117zM537 698l-74 123c-1 2 -2 5 -2 8c0 6 3 9 9 10l65 17l5 1c6 0 10 -3 12 -10l50 -142c1 -1 1 -3 1 -6c0 -7 -4 -10 -12 -10h-37c-7 0 -13 3 -17 9z" />
    <glyph glyph-name="Uhungarumlaut" unicode="&#x170;" horiz-adv-x="768" 
d="M122 93c0 48 17 105 50 172l111 220c23 45 35 84 35 117c0 41 -20 66 -61 66c-81 0 -142 -97 -142 -191c0 -31 6 -59 19 -84c1 -2 2 -5 2 -9c0 -5 -3 -8 -10 -9c-65 -5 -108 44 -108 115c-3 102 117 245 250 240c96 0 177 -68 177 -173c0 -43 -13 -90 -39 -140l-91 -177
c-20 -39 -30 -72 -30 -97c0 -31 14 -46 38 -46c55 0 145 100 248 319l114 244c3 7 8 10 16 10h126c9 0 14 -7 10 -16l-218 -468c-17 -35 -26 -64 -26 -87c0 -19 9 -30 22 -30c40 0 120 70 168 171c3 7 8 10 17 10c12 0 27 -10 27 -22c0 -1 -1 -4 -2 -8
c-64 -136 -195 -243 -291 -243c-56 0 -96 33 -96 98c0 13 1 25 4 38c-73 -93 -140 -137 -208 -137s-112 41 -112 117zM465 697c0 3 1 6 4 9l125 144c5 7 12 8 19 5l53 -20c5 -2 8 -5 8 -10c0 -3 -2 -6 -5 -9l-142 -121c-4 -4 -10 -6 -18 -6h-32c-8 0 -12 3 -12 8zM602 697
c0 3 1 6 4 9l125 144c5 7 12 8 19 5l52 -20c5 -2 8 -5 8 -10c0 -3 -2 -6 -5 -9l-141 -121c-4 -4 -10 -6 -18 -6h-32c-8 0 -12 3 -12 8z" />
    <glyph glyph-name="Umacron" unicode="&#x16a;" horiz-adv-x="768" 
d="M122 93c0 48 17 105 50 172l111 220c23 45 35 84 35 117c0 41 -20 66 -61 66c-81 0 -142 -97 -142 -191c0 -31 6 -59 19 -84c1 -2 2 -5 2 -9c0 -5 -3 -8 -10 -9c-65 -5 -108 44 -108 115c-3 102 117 245 250 240c96 0 177 -68 177 -173c0 -43 -13 -90 -39 -140l-91 -177
c-20 -39 -30 -72 -30 -97c0 -31 14 -46 38 -46c55 0 145 100 248 319l114 244c3 7 8 10 16 10h126c9 0 14 -7 10 -16l-218 -468c-17 -35 -26 -64 -26 -87c0 -19 9 -30 22 -30c40 0 120 70 168 171c3 7 8 10 17 10c12 0 27 -10 27 -22c0 -1 -1 -4 -2 -8
c-64 -136 -195 -243 -291 -243c-56 0 -96 33 -96 98c0 13 1 25 4 38c-73 -93 -140 -137 -208 -137s-112 41 -112 117zM472 756l14 31c3 7 8 11 17 11h218c11 0 15 -8 10 -17l-15 -31c-3 -7 -8 -10 -16 -10h-218c-9 0 -14 7 -10 16z" />
    <glyph glyph-name="Uogonek" unicode="&#x172;" horiz-adv-x="768" 
d="M419 -138c0 37 25 79 88 118c-41 8 -69 41 -69 96c0 6 1 18 4 37c-73 -93 -140 -137 -208 -137s-112 41 -112 117c0 48 17 105 50 172l111 220c23 45 35 84 35 117c0 41 -20 66 -61 66c-81 0 -142 -97 -142 -191c0 -31 6 -59 19 -84c1 -2 2 -5 2 -9c0 -5 -3 -8 -10 -9
c-65 -5 -108 44 -108 115c-3 102 117 245 250 240c96 0 177 -68 177 -173c0 -43 -13 -90 -39 -140l-91 -177c-20 -39 -30 -72 -30 -97c0 -31 14 -46 38 -46c55 0 145 100 248 319l114 244c3 7 8 10 16 10h126c9 0 14 -7 10 -16l-218 -468c-17 -35 -26 -64 -26 -87
c0 -19 9 -30 22 -30c40 0 120 70 168 171c3 7 8 10 17 10c12 0 27 -10 27 -22c0 -1 -1 -4 -2 -8c-25 -53 -59 -101 -100 -143c-41 -41 -83 -70 -126 -87c-80 -43 -105 -81 -105 -108c0 -16 13 -26 33 -26c8 0 16 1 23 4c1 1 3 1 6 1c7 0 10 -4 10 -12v-29
c0 -8 -3 -13 -10 -16c-19 -9 -37 -13 -54 -13c-47 0 -83 27 -83 71z" />
    <glyph glyph-name="Uring" unicode="&#x16e;" horiz-adv-x="768" 
d="M122 93c0 48 17 105 50 172l111 220c23 45 35 84 35 117c0 41 -20 66 -61 66c-81 0 -142 -97 -142 -191c0 -31 6 -59 19 -84c1 -2 2 -5 2 -9c0 -5 -3 -8 -10 -9c-65 -5 -108 44 -108 115c-3 102 117 245 250 240c96 0 177 -68 177 -173c0 -43 -13 -90 -39 -140l-91 -177
c-20 -39 -30 -72 -30 -97c0 -31 14 -46 38 -46c55 0 145 100 248 319l114 244c3 7 8 10 16 10h126c9 0 14 -7 10 -16l-218 -468c-17 -35 -26 -64 -26 -87c0 -19 9 -30 22 -30c40 0 120 70 168 171c3 7 8 10 17 10c12 0 27 -10 27 -22c0 -1 -1 -4 -2 -8
c-64 -136 -195 -243 -291 -243c-56 0 -96 33 -96 98c0 13 1 25 4 38c-73 -93 -140 -137 -208 -137s-112 41 -112 117zM512 754c0 27 11 50 32 68c22 18 47 27 74 27c41 0 70 -24 70 -65c0 -55 -49 -95 -105 -95c-41 0 -71 24 -71 65zM646 779c0 21 -14 36 -34 36
c-29 0 -57 -26 -57 -57c0 -21 14 -35 35 -35c29 0 56 25 56 56z" />
    <glyph glyph-name="V" unicode="V" horiz-adv-x="667" 
d="M144 63c0 47 13 108 40 183l82 238c19 55 28 97 28 126c0 39 -18 58 -54 58c-80 0 -141 -97 -141 -192c0 -30 6 -58 18 -83c1 -2 2 -5 2 -9c0 -5 -3 -8 -10 -9c-64 -5 -107 44 -107 115c-3 102 117 245 250 240c101 0 169 -62 169 -167c0 -35 -7 -74 -22 -116l-76 -224
c-14 -42 -22 -74 -23 -96l121 120c69 64 125 135 169 212c45 77 67 144 67 201c0 15 -1 27 -4 37v5c0 6 3 10 8 13c7 3 17 5 29 5c37 0 69 -27 69 -80c0 -95 -93 -256 -286 -436l-237 -230c-5 -5 -10 -7 -17 -7c-50 4 -75 36 -75 96z" />
    <glyph glyph-name="W" unicode="W" horiz-adv-x="989" 
d="M164 85c0 43 10 97 30 161l72 238c18 61 27 104 27 128c0 36 -16 56 -53 56c-83 0 -140 -96 -140 -191c0 -31 6 -59 18 -84l2 -8c0 -6 -4 -9 -11 -10c-64 -5 -107 44 -107 115c-3 102 117 245 250 240c103 0 166 -60 166 -169c0 -34 -6 -72 -19 -114l-66 -224
c-6 -20 -12 -42 -17 -65l333 503c3 6 9 9 17 9h116c9 0 14 -6 13 -15l-96 -432c-7 -33 -11 -60 -12 -79l71 91c63 79 115 158 155 236c41 78 61 143 61 194c0 11 -1 22 -3 32l-1 5c0 7 3 11 9 13c7 3 17 5 29 5c37 0 68 -27 68 -80c0 -92 -89 -241 -266 -448l-182 -217
c-5 -5 -11 -8 -17 -8c-51 4 -74 36 -74 107c0 42 8 99 24 172l52 233l-334 -503c-3 -6 -9 -9 -17 -9c-64 4 -98 41 -98 118z" />
    <glyph glyph-name="Wacute" unicode="&#x1e82;" horiz-adv-x="989" 
d="M164 85c0 43 10 97 30 161l72 238c18 61 27 104 27 128c0 36 -16 56 -53 56c-83 0 -140 -96 -140 -191c0 -31 6 -59 18 -84l2 -8c0 -6 -4 -9 -11 -10c-64 -5 -107 44 -107 115c-3 102 117 245 250 240c103 0 166 -60 166 -169c0 -34 -6 -72 -19 -114l-66 -224
c-6 -20 -12 -42 -17 -65l333 503c3 6 9 9 17 9h116c9 0 14 -6 13 -15l-96 -432c-7 -33 -11 -60 -12 -79l71 91c63 79 115 158 155 236c41 78 61 143 61 194c0 11 -1 22 -3 32l-1 5c0 7 3 11 9 13c7 3 17 5 29 5c37 0 68 -27 68 -80c0 -92 -89 -241 -266 -448l-182 -217
c-5 -5 -11 -8 -17 -8c-51 4 -74 36 -74 107c0 42 8 99 24 172l52 233l-334 -503c-3 -6 -9 -9 -17 -9c-64 4 -98 41 -98 118zM718 728c0 2 1 5 4 9l116 144c5 7 11 8 19 5l57 -22c6 -2 9 -5 9 -10c0 -3 -2 -6 -5 -9l-138 -119c-4 -4 -10 -6 -17 -6h-33c-8 0 -12 3 -12 8z" />
    <glyph glyph-name="Wcircumflex" unicode="&#x174;" horiz-adv-x="989" 
d="M164 85c0 43 10 97 30 161l72 238c18 61 27 104 27 128c0 36 -16 56 -53 56c-83 0 -140 -96 -140 -191c0 -31 6 -59 18 -84l2 -8c0 -6 -4 -9 -11 -10c-64 -5 -107 44 -107 115c-3 102 117 245 250 240c103 0 166 -60 166 -169c0 -34 -6 -72 -19 -114l-66 -224
c-6 -20 -12 -42 -17 -65l333 503c3 6 9 9 17 9h116c9 0 14 -6 13 -15l-96 -432c-7 -33 -11 -60 -12 -79l71 91c63 79 115 158 155 236c41 78 61 143 61 194c0 11 -1 22 -3 32l-1 5c0 7 3 11 9 13c7 3 17 5 29 5c37 0 68 -27 68 -80c0 -92 -89 -241 -266 -448l-182 -217
c-5 -5 -11 -8 -17 -8c-51 4 -74 36 -74 107c0 42 8 99 24 172l52 233l-334 -503c-3 -6 -9 -9 -17 -9c-64 4 -98 41 -98 118zM609 728c0 3 2 6 5 9l139 136c5 5 10 7 17 7h55c8 0 14 -5 15 -13l24 -132v-4c0 -7 -4 -11 -12 -11h-29c-7 0 -13 4 -16 11l-29 83l-103 -88
c-4 -4 -10 -6 -18 -6h-36c-8 0 -12 3 -12 8z" />
    <glyph glyph-name="Wdieresis" unicode="&#x1e84;" horiz-adv-x="989" 
d="M164 85c0 43 10 97 30 161l72 238c18 61 27 104 27 128c0 36 -16 56 -53 56c-83 0 -140 -96 -140 -191c0 -31 6 -59 18 -84l2 -8c0 -6 -4 -9 -11 -10c-64 -5 -107 44 -107 115c-3 102 117 245 250 240c103 0 166 -60 166 -169c0 -34 -6 -72 -19 -114l-66 -224
c-6 -20 -12 -42 -17 -65l333 503c3 6 9 9 17 9h116c9 0 14 -6 13 -15l-96 -432c-7 -33 -11 -60 -12 -79l71 91c63 79 115 158 155 236c41 78 61 143 61 194c0 11 -1 22 -3 32l-1 5c0 7 3 11 9 13c7 3 17 5 29 5c37 0 68 -27 68 -80c0 -92 -89 -241 -266 -448l-182 -217
c-5 -5 -11 -8 -17 -8c-51 4 -74 36 -74 107c0 42 8 99 24 172l52 233l-334 -503c-3 -6 -9 -9 -17 -9c-64 4 -98 41 -98 118zM782 783c0 32 33 69 74 69c27 0 40 -14 40 -37c0 -32 -30 -67 -73 -67c-28 0 -41 15 -41 35zM641 783c0 32 33 69 74 69c27 0 40 -14 40 -37
c0 -32 -30 -67 -73 -67c-28 0 -41 15 -41 35z" />
    <glyph glyph-name="Wgrave" unicode="&#x1e80;" horiz-adv-x="989" 
d="M164 85c0 43 10 97 30 161l72 238c18 61 27 104 27 128c0 36 -16 56 -53 56c-83 0 -140 -96 -140 -191c0 -31 6 -59 18 -84l2 -8c0 -6 -4 -9 -11 -10c-64 -5 -107 44 -107 115c-3 102 117 245 250 240c103 0 166 -60 166 -169c0 -34 -6 -72 -19 -114l-66 -224
c-6 -20 -12 -42 -17 -65l333 503c3 6 9 9 17 9h116c9 0 14 -6 13 -15l-96 -432c-7 -33 -11 -60 -12 -79l71 91c63 79 115 158 155 236c41 78 61 143 61 194c0 11 -1 22 -3 32l-1 5c0 7 3 11 9 13c7 3 17 5 29 5c37 0 68 -27 68 -80c0 -92 -89 -241 -266 -448l-182 -217
c-5 -5 -11 -8 -17 -8c-51 4 -74 36 -74 107c0 42 8 99 24 172l52 233l-334 -503c-3 -6 -9 -9 -17 -9c-64 4 -98 41 -98 118zM701 729l-74 123c-1 2 -2 5 -2 8c0 6 3 9 9 10l65 17l5 1c6 0 10 -3 12 -10l50 -142c1 -1 1 -3 1 -6c0 -7 -4 -10 -12 -10h-37c-7 0 -13 3 -17 9z
" />
    <glyph glyph-name="X" unicode="X" horiz-adv-x="654" 
d="M-60 15c0 6 0 11 1 14c1 7 6 12 15 13c30 3 59 13 87 30c56 36 95 78 162 154l25 29l64 71l6 144c1 39 2 66 2 82c0 77 -13 116 -64 116c-70 0 -117 -90 -117 -179c0 -40 8 -73 25 -100c2 -3 3 -6 3 -9c0 -5 -3 -7 -10 -8c-67 -5 -114 49 -114 124c-2 97 89 238 233 234
c119 0 194 -84 187 -224l-5 -79l29 33l37 44c37 44 68 79 91 104c47 51 99 91 143 91c37 0 58 -22 58 -53c0 -6 0 -11 -1 -14c-1 -7 -6 -12 -15 -13c-28 -3 -55 -12 -81 -28c-52 -32 -88 -71 -148 -142l-38 -43l-81 -91l-5 -86c-5 -116 24 -156 63 -156c27 0 58 15 91 46
c34 31 63 71 86 121c3 7 8 10 17 10c12 0 27 -10 27 -22c0 -1 -1 -4 -2 -8c-34 -71 -75 -130 -123 -176s-99 -69 -154 -69c-101 0 -149 86 -145 241l-13 -15l-25 -29c-41 -47 -74 -84 -100 -111c-51 -55 -108 -99 -153 -99c-37 0 -58 22 -58 53z" />
    <glyph glyph-name="Y" unicode="Y" horiz-adv-x="746" 
d="M62 -212c0 81 94 148 309 197l53 114c-60 -67 -120 -100 -179 -100c-68 0 -112 41 -112 117c0 47 17 104 51 172l99 197c23 47 34 86 34 118c0 41 -20 65 -60 65c-81 0 -141 -97 -141 -192c0 -31 6 -59 18 -83c1 -2 2 -5 2 -9c0 -5 -3 -8 -10 -9c-65 -5 -108 44 -108 115
c-3 102 117 245 250 240c96 0 177 -68 177 -173c0 -43 -13 -90 -39 -140l-79 -153c-20 -37 -30 -70 -30 -97c0 -31 14 -47 38 -47c51 0 133 86 228 277l122 263c3 7 8 10 17 10h125c9 0 14 -7 10 -16l-287 -614c95 40 163 97 211 200c3 7 8 10 17 10c13 0 27 -10 27 -22
l-2 -8c-32 -68 -71 -120 -118 -156c-46 -36 -101 -65 -164 -88c-41 -84 -86 -153 -137 -208s-113 -82 -187 -82c-83 0 -135 39 -135 102zM346 -69c-128 -31 -214 -85 -214 -138c0 -27 21 -45 53 -45c64 0 116 76 161 183z" />
    <glyph glyph-name="Yacute" unicode="&#xdd;" horiz-adv-x="746" 
d="M62 -212c0 81 94 148 309 197l53 114c-60 -67 -120 -100 -179 -100c-68 0 -112 41 -112 117c0 47 17 104 51 172l99 197c23 47 34 86 34 118c0 41 -20 65 -60 65c-81 0 -141 -97 -141 -192c0 -31 6 -59 18 -83c1 -2 2 -5 2 -9c0 -5 -3 -8 -10 -9c-65 -5 -108 44 -108 115
c-3 102 117 245 250 240c96 0 177 -68 177 -173c0 -43 -13 -90 -39 -140l-79 -153c-20 -37 -30 -70 -30 -97c0 -31 14 -47 38 -47c51 0 133 86 228 277l122 263c3 7 8 10 17 10h125c9 0 14 -7 10 -16l-287 -614c95 40 163 97 211 200c3 7 8 10 17 10c13 0 27 -10 27 -22
l-2 -8c-32 -68 -71 -120 -118 -156c-46 -36 -101 -65 -164 -88c-41 -84 -86 -153 -137 -208s-113 -82 -187 -82c-83 0 -135 39 -135 102zM346 -69c-128 -31 -214 -85 -214 -138c0 -27 21 -45 53 -45c64 0 116 76 161 183zM554 697c0 2 1 5 4 9l116 144c5 7 11 8 19 5l57 -22
c6 -2 9 -5 9 -10c0 -3 -2 -6 -5 -9l-138 -119c-4 -4 -10 -6 -17 -6h-33c-8 0 -12 3 -12 8z" />
    <glyph glyph-name="Ycircumflex" unicode="&#x176;" horiz-adv-x="746" 
d="M62 -212c0 81 94 148 309 197l53 114c-60 -67 -120 -100 -179 -100c-68 0 -112 41 -112 117c0 47 17 104 51 172l99 197c23 47 34 86 34 118c0 41 -20 65 -60 65c-81 0 -141 -97 -141 -192c0 -31 6 -59 18 -83c1 -2 2 -5 2 -9c0 -5 -3 -8 -10 -9c-65 -5 -108 44 -108 115
c-3 102 117 245 250 240c96 0 177 -68 177 -173c0 -43 -13 -90 -39 -140l-79 -153c-20 -37 -30 -70 -30 -97c0 -31 14 -47 38 -47c51 0 133 86 228 277l122 263c3 7 8 10 17 10h125c9 0 14 -7 10 -16l-287 -614c95 40 163 97 211 200c3 7 8 10 17 10c13 0 27 -10 27 -22
l-2 -8c-32 -68 -71 -120 -118 -156c-46 -36 -101 -65 -164 -88c-41 -84 -86 -153 -137 -208s-113 -82 -187 -82c-83 0 -135 39 -135 102zM346 -69c-128 -31 -214 -85 -214 -138c0 -27 21 -45 53 -45c64 0 116 76 161 183zM445 697c0 3 2 6 5 9l139 136c5 5 10 7 17 7h55
c8 0 14 -5 15 -13l24 -132v-4c0 -7 -4 -11 -12 -11h-29c-7 0 -13 4 -16 11l-29 83l-103 -88c-4 -4 -10 -6 -18 -6h-36c-8 0 -12 3 -12 8z" />
    <glyph glyph-name="Ydieresis" unicode="&#x178;" horiz-adv-x="746" 
d="M62 -212c0 81 94 148 309 197l53 114c-60 -67 -120 -100 -179 -100c-68 0 -112 41 -112 117c0 47 17 104 51 172l99 197c23 47 34 86 34 118c0 41 -20 65 -60 65c-81 0 -141 -97 -141 -192c0 -31 6 -59 18 -83c1 -2 2 -5 2 -9c0 -5 -3 -8 -10 -9c-65 -5 -108 44 -108 115
c-3 102 117 245 250 240c96 0 177 -68 177 -173c0 -43 -13 -90 -39 -140l-79 -153c-20 -37 -30 -70 -30 -97c0 -31 14 -47 38 -47c51 0 133 86 228 277l122 263c3 7 8 10 17 10h125c9 0 14 -7 10 -16l-287 -614c95 40 163 97 211 200c3 7 8 10 17 10c13 0 27 -10 27 -22
l-2 -8c-32 -68 -71 -120 -118 -156c-46 -36 -101 -65 -164 -88c-41 -84 -86 -153 -137 -208s-113 -82 -187 -82c-83 0 -135 39 -135 102zM346 -69c-128 -31 -214 -85 -214 -138c0 -27 21 -45 53 -45c64 0 116 76 161 183zM618 752c0 32 33 69 74 69c27 0 40 -14 40 -37
c0 -32 -30 -67 -73 -67c-28 0 -41 15 -41 35zM477 752c0 32 33 69 74 69c27 0 40 -14 40 -37c0 -32 -30 -67 -73 -67c-28 0 -41 15 -41 35z" />
    <glyph glyph-name="Ygrave" unicode="&#x1ef2;" horiz-adv-x="746" 
d="M62 -212c0 81 94 148 309 197l53 114c-60 -67 -120 -100 -179 -100c-68 0 -112 41 -112 117c0 47 17 104 51 172l99 197c23 47 34 86 34 118c0 41 -20 65 -60 65c-81 0 -141 -97 -141 -192c0 -31 6 -59 18 -83c1 -2 2 -5 2 -9c0 -5 -3 -8 -10 -9c-65 -5 -108 44 -108 115
c-3 102 117 245 250 240c96 0 177 -68 177 -173c0 -43 -13 -90 -39 -140l-79 -153c-20 -37 -30 -70 -30 -97c0 -31 14 -47 38 -47c51 0 133 86 228 277l122 263c3 7 8 10 17 10h125c9 0 14 -7 10 -16l-287 -614c95 40 163 97 211 200c3 7 8 10 17 10c13 0 27 -10 27 -22
l-2 -8c-32 -68 -71 -120 -118 -156c-46 -36 -101 -65 -164 -88c-41 -84 -86 -153 -137 -208s-113 -82 -187 -82c-83 0 -135 39 -135 102zM346 -69c-128 -31 -214 -85 -214 -138c0 -27 21 -45 53 -45c64 0 116 76 161 183zM537 698l-74 123c-1 2 -2 5 -2 8c0 6 3 9 9 10
l65 17l5 1c6 0 10 -3 12 -10l50 -142c1 -1 1 -3 1 -6c0 -7 -4 -10 -12 -10h-37c-7 0 -13 3 -17 9z" />
    <glyph glyph-name="Z" unicode="Z" horiz-adv-x="563" 
d="M178 -8c-31 17 -42 23 -62 23s-33 -6 -57 -19c-21 -12 -35 -18 -52 -18c-24 0 -39 15 -39 38c0 7 3 14 8 19l513 514c-19 2 -46 8 -80 17c-57 13 -84 19 -121 19c-40 0 -79 -9 -131 -44c-3 -2 -6 -3 -9 -3c-6 0 -9 3 -9 10c-4 80 49 173 166 173c57 0 94 -18 151 -53
c39 -24 63 -36 90 -36c22 0 47 11 74 32c3 3 7 5 11 5c3 0 5 -1 8 -4c10 -10 15 -22 15 -37s-6 -29 -18 -42l-473 -472c29 7 57 10 85 10c44 0 69 -7 98 -19c24 -9 36 -13 53 -13c60 0 134 52 179 148c3 7 8 10 17 10c12 0 27 -10 27 -22c0 -1 -1 -4 -2 -8
c-34 -72 -79 -134 -136 -187c-57 -52 -119 -78 -188 -78c-51 0 -79 13 -118 37z" />
    <glyph glyph-name="Zacute" unicode="&#x179;" horiz-adv-x="563" 
d="M178 -8c-31 17 -42 23 -62 23s-33 -6 -57 -19c-21 -12 -35 -18 -52 -18c-24 0 -39 15 -39 38c0 7 3 14 8 19l513 514c-19 2 -46 8 -80 17c-57 13 -84 19 -121 19c-40 0 -79 -9 -131 -44c-3 -2 -6 -3 -9 -3c-6 0 -9 3 -9 10c-4 80 49 173 166 173c57 0 94 -18 151 -53
c39 -24 63 -36 90 -36c22 0 47 11 74 32c3 3 7 5 11 5c3 0 5 -1 8 -4c10 -10 15 -22 15 -37s-6 -29 -18 -42l-473 -472c29 7 57 10 85 10c44 0 69 -7 98 -19c24 -9 36 -13 53 -13c60 0 134 52 179 148c3 7 8 10 17 10c12 0 27 -10 27 -22c0 -1 -1 -4 -2 -8
c-34 -72 -79 -134 -136 -187c-57 -52 -119 -78 -188 -78c-51 0 -79 13 -118 37zM454 726c0 2 1 5 4 9l116 144c5 7 11 8 19 5l57 -22c6 -2 9 -5 9 -10c0 -3 -2 -6 -5 -9l-138 -119c-4 -4 -10 -6 -17 -6h-33c-8 0 -12 3 -12 8z" />
    <glyph glyph-name="Zcaron" unicode="&#x17d;" horiz-adv-x="563" 
d="M178 -8c-31 17 -42 23 -62 23s-33 -6 -57 -19c-21 -12 -35 -18 -52 -18c-24 0 -39 15 -39 38c0 7 3 14 8 19l513 514c-19 2 -46 8 -80 17c-57 13 -84 19 -121 19c-40 0 -79 -9 -131 -44c-3 -2 -6 -3 -9 -3c-6 0 -9 3 -9 10c-4 80 49 173 166 173c57 0 94 -18 151 -53
c39 -24 63 -36 90 -36c22 0 47 11 74 32c3 3 7 5 11 5c3 0 5 -1 8 -4c10 -10 15 -22 15 -37s-6 -29 -18 -42l-473 -472c29 7 57 10 85 10c44 0 69 -7 98 -19c24 -9 36 -13 53 -13c60 0 134 52 179 148c3 7 8 10 17 10c12 0 27 -10 27 -22c0 -1 -1 -4 -2 -8
c-34 -72 -79 -134 -136 -187c-57 -52 -119 -78 -188 -78c-51 0 -79 13 -118 37zM434 731l-14 132v2c0 9 4 13 13 13h28c8 0 13 -4 15 -12l23 -86l113 92c5 4 11 6 18 6h30c7 0 11 -2 11 -7c0 -3 -2 -7 -5 -10l-146 -136c-5 -5 -10 -7 -17 -7h-55c-8 0 -13 4 -14 13z" />
    <glyph glyph-name="Zdotaccent" unicode="&#x17b;" horiz-adv-x="563" 
d="M178 -8c-31 17 -42 23 -62 23s-33 -6 -57 -19c-21 -12 -35 -18 -52 -18c-24 0 -39 15 -39 38c0 7 3 14 8 19l513 514c-19 2 -46 8 -80 17c-57 13 -84 19 -121 19c-40 0 -79 -9 -131 -44c-3 -2 -6 -3 -9 -3c-6 0 -9 3 -9 10c-4 80 49 173 166 173c57 0 94 -18 151 -53
c39 -24 63 -36 90 -36c22 0 47 11 74 32c3 3 7 5 11 5c3 0 5 -1 8 -4c10 -10 15 -22 15 -37s-6 -29 -18 -42l-473 -472c29 7 57 10 85 10c44 0 69 -7 98 -19c24 -9 36 -13 53 -13c60 0 134 52 179 148c3 7 8 10 17 10c12 0 27 -10 27 -22c0 -1 -1 -4 -2 -8
c-34 -72 -79 -134 -136 -187c-57 -52 -119 -78 -188 -78c-51 0 -79 13 -118 37zM445 781c0 32 33 69 74 69c27 0 41 -14 41 -37c0 -32 -32 -67 -73 -67c-28 0 -42 15 -42 35z" />
    <glyph glyph-name="A.ss01" horiz-adv-x="692" 
d="M371 29c0 51 15 112 45 182h-232l-8 -10l-21 -25c-124 -148 -203 -232 -270 -232c-37 0 -58 22 -58 53c0 6 0 11 1 14c1 7 6 12 15 13c85 9 155 81 251 198c11 12 19 24 28 33l194 230c42 50 81 92 117 127c73 69 163 120 264 120c29 0 59 -5 92 -15c9 -1 13 -10 9 -18
l-230 -491c-27 -60 -41 -113 -41 -159c0 -39 9 -70 26 -95c2 -2 3 -5 3 -8c0 -5 -3 -9 -10 -13c-27 -14 -52 -21 -76 -21c-64 0 -99 42 -99 117zM235 271h208l184 392c-77 -28 -136 -85 -204 -168z" />
    <glyph glyph-name="B.ss01" horiz-adv-x="820" 
d="M266 -53c0 85 112 158 299 168c3 21 4 37 4 48c0 84 -44 143 -135 143h-40l-75 -163c-48 -103 -114 -176 -194 -176c-30 0 -50 9 -59 27c-1 3 -2 5 -2 6c0 4 2 8 7 13c23 20 41 40 54 59s29 49 47 88l80 171c32 69 60 123 84 162c48 80 102 129 177 141l4 1
c6 0 10 -3 13 -9l1 -1c1 -2 2 -5 2 -8c0 -4 -2 -8 -5 -11c-20 -21 -32 -51 -60 -123c-18 -47 -34 -86 -47 -117h39c126 0 208 90 208 178c0 76 -63 142 -192 142c-163 4 -307 -131 -303 -261c0 -29 6 -57 19 -84c1 -4 2 -6 2 -7c0 -7 -4 -10 -11 -10
c-74 -6 -112 61 -112 121c0 41 17 85 50 131s81 85 142 116c62 31 134 47 216 47c224 0 320 -101 320 -200c0 -88 -77 -174 -234 -202c89 -32 134 -104 134 -192c0 -8 0 -14 -1 -19c61 19 112 58 137 114c3 7 8 10 17 10c13 0 27 -10 27 -22l-2 -8
c-37 -80 -108 -131 -188 -148c-34 -119 -140 -222 -286 -222c-91 0 -137 40 -137 97zM551 63c-129 -12 -217 -58 -217 -114c0 -24 15 -41 51 -41c35 0 67 15 97 45c30 29 53 66 69 110z" />
    <glyph glyph-name="C.ss01" horiz-adv-x="618" 
d="M-5 96c0 85 26 179 79 280s121 187 204 257c84 70 169 105 255 105c104 0 155 -66 155 -129c0 -53 -34 -99 -85 -99c-35 0 -53 20 -53 48c0 31 22 61 55 72c-3 27 -27 48 -64 48c-53 0 -110 -33 -170 -98c-59 -65 -109 -144 -150 -235s-61 -171 -61 -240
c0 -89 39 -144 123 -144c90 0 170 87 186 172c2 8 6 13 11 15s10 3 13 3c21 0 31 -13 31 -39c2 -80 -119 -243 -303 -237c-153 0 -226 86 -226 221z" />
    <glyph glyph-name="D.ss01" horiz-adv-x="843" 
d="M199 -60c-3 82 141 174 345 180c39 61 70 125 94 192c25 67 37 128 37 183c0 117 -61 191 -194 191c-167 4 -312 -131 -308 -261c0 -29 6 -57 19 -84c1 -4 2 -6 2 -7c0 -7 -4 -10 -11 -10c-74 -6 -112 61 -112 121c0 41 17 85 50 131c34 46 82 85 144 116
c63 31 135 47 217 47c111 0 193 -27 246 -80s79 -123 79 -210c0 -103 -36 -220 -99 -325c64 16 123 59 150 116c3 7 8 10 17 10c12 0 27 -10 27 -22c0 -1 -1 -4 -2 -8c-22 -47 -55 -83 -98 -109s-86 -40 -131 -43c-47 -66 -101 -119 -161 -158c-59 -40 -119 -60 -180 -60
c-85 0 -131 35 -131 90zM510 68c-139 -12 -241 -69 -241 -121c0 -24 16 -41 44 -41c52 0 126 63 197 162zM66 -6c-1 1 -1 3 -1 6c0 5 2 9 6 13c23 20 41 40 54 59c14 20 30 49 48 88l80 171c31 69 59 123 83 162c48 80 101 129 177 141l4 1c6 0 10 -3 13 -9l1 -1
c1 -2 2 -5 2 -8c0 -5 -2 -9 -5 -12c-19 -21 -34 -55 -61 -126c-26 -66 -46 -115 -61 -148l-86 -188c-47 -103 -115 -176 -195 -176c-29 0 -49 9 -59 27z" />
    <glyph glyph-name="E.ss01" horiz-adv-x="603" 
d="M-48 68c0 118 105 247 289 295c-45 31 -67 77 -67 129c-3 118 128 254 318 250c117 0 170 -67 170 -135c0 -53 -32 -97 -83 -97c-35 0 -53 20 -53 48c0 32 23 63 58 72c-5 33 -34 57 -87 57c-112 3 -202 -114 -200 -208c0 -41 17 -78 50 -99c23 1 40 2 52 2
c40 0 61 -14 61 -30c0 -17 -22 -32 -58 -32c-31 0 -60 3 -89 10c-118 -36 -197 -149 -197 -240c0 -76 51 -129 150 -129c93 0 171 87 189 172c2 8 6 13 11 15c4 2 8 3 12 3c21 0 31 -13 31 -39c3 -80 -119 -243 -304 -237c-168 0 -253 86 -253 193z" />
    <glyph glyph-name="F.ss01" horiz-adv-x="615" 
d="M149 -36c0 50 19 115 56 194l70 149h-71c-11 0 -15 7 -11 16l15 34c3 7 8 11 17 11h79c66 132 132 216 199 252c-100 27 -162 40 -211 40c-112 0 -169 -80 -169 -167c0 -35 7 -66 21 -92c1 -4 2 -6 2 -7c0 -6 -4 -10 -11 -11c-67 -5 -107 45 -107 117
c-2 104 81 242 276 239c35 0 73 -4 112 -11s91 -17 154 -32l24 -5c54 -12 96 -21 127 -26s61 -8 89 -8c69 0 127 18 175 53c3 2 6 3 9 3c6 0 9 -3 10 -9c1 -3 1 -8 1 -15c0 -65 -77 -131 -194 -131c-61 0 -131 15 -240 43c-24 -28 -50 -83 -91 -179l-24 -54h133
c11 0 15 -7 11 -16l-15 -34c-3 -7 -8 -11 -17 -11h-140l-91 -195c-25 -54 -41 -98 -49 -132s-13 -69 -14 -105c0 -9 -4 -14 -13 -14c-69 -4 -112 30 -112 103z" />
    <glyph glyph-name="G.ss01" horiz-adv-x="670" 
d="M184 -236c-1 3 -2 5 -2 6c0 4 2 8 7 13c26 23 47 44 63 64s32 48 49 83l73 157c-57 -60 -117 -90 -182 -90c-113 0 -169 69 -169 176c0 75 24 157 71 246c48 89 111 165 188 226c78 62 160 93 246 93c118 0 174 -69 174 -135c0 -51 -33 -93 -82 -93c-35 0 -52 20 -52 48
c0 29 20 59 51 71c-7 28 -37 49 -80 49c-54 0 -109 -28 -164 -85c-55 -56 -100 -123 -136 -201s-54 -146 -54 -203c0 -65 27 -106 84 -106c60 0 133 81 230 272c3 7 8 11 16 11h115c9 0 14 -7 10 -16l-203 -436c-48 -103 -114 -176 -194 -176c-31 0 -50 9 -59 26z" />
    <glyph glyph-name="H.ss01" horiz-adv-x="794" 
d="M466 -13c0 79 26 174 78 285l10 21h-174l-131 -283c-3 -7 -8 -10 -17 -10h-125c-9 0 -14 7 -10 16l233 500c25 53 47 86 86 110c-20 3 -45 11 -53 14c-43 12 -61 17 -93 17c-85 0 -134 -57 -134 -133c0 -30 7 -59 22 -88c1 -4 2 -6 2 -7c0 -7 -4 -10 -11 -10
c-68 -5 -109 46 -109 117c0 103 91 193 215 193c43 0 75 -10 124 -29c57 -20 86 -29 130 -29c13 0 27 1 41 3h4c5 0 8 -2 8 -5s-1 -6 -3 -9c-18 -25 -36 -57 -53 -97l-90 -194h173l136 291c3 7 8 10 16 10h126c9 0 14 -7 10 -16l-193 -414c-42 -89 -63 -169 -63 -238
c0 -48 9 -86 27 -114c2 -2 3 -4 3 -7c0 -5 -4 -10 -11 -14c-25 -14 -50 -21 -75 -21c-63 0 -99 52 -99 141z" />
    <glyph glyph-name="I.ss01" horiz-adv-x="471" 
d="M38 -50c-1 3 -2 5 -2 6c0 4 2 8 7 13c23 21 41 41 54 60c13 20 29 49 47 87l187 401c25 53 48 86 85 110c-15 3 -32 7 -52 14c-41 12 -61 17 -94 17c-84 0 -134 -57 -134 -133c0 -30 7 -59 22 -88c1 -4 2 -6 2 -7c0 -7 -4 -10 -11 -10c-68 -5 -109 46 -109 117
c0 103 93 193 216 193c41 0 70 -9 123 -28c57 -20 86 -29 131 -29c18 0 32 1 41 2h5c5 0 8 -2 8 -5c0 -1 -1 -4 -4 -9c-13 -18 -30 -50 -53 -97l-216 -464c-48 -104 -114 -176 -195 -176c-30 0 -49 9 -58 26z" />
    <glyph glyph-name="J.ss01" horiz-adv-x="557" 
d="M-139 -237c0 44 18 95 55 152s86 108 148 154c63 47 131 78 204 93l135 290c33 71 50 126 50 165c0 36 -15 54 -44 54c-31 0 -63 -18 -94 -54s-57 -81 -77 -136s-30 -108 -30 -159c0 -36 5 -68 16 -95c1 -1 1 -3 1 -6c0 -8 -4 -11 -13 -9c-75 12 -113 72 -113 155
c0 53 14 108 43 165c29 58 68 106 119 144c51 39 107 58 169 58c101 0 147 -56 147 -148c0 -63 -23 -141 -59 -220l-94 -201c7 -3 18 -4 31 -9c10 -3 15 -11 15 -24c0 -19 -11 -34 -27 -34c-5 0 -8 1 -11 2c-11 4 -22 7 -33 9l-52 -111c-40 -85 -92 -162 -156 -231
s-136 -104 -216 -104c-76 0 -114 39 -114 100zM169 -53l66 143c-165 -54 -313 -243 -309 -322c0 -28 14 -42 41 -42c36 0 72 23 108 68s67 96 94 153z" />
    <glyph glyph-name="K.ss01" horiz-adv-x="793" 
d="M467 133c-8 112 -12 164 -72 170h-10l-136 -293c-3 -7 -8 -10 -17 -10h-124c-9 0 -14 7 -10 16l232 500c25 53 47 86 86 110c-20 3 -45 11 -53 14c-43 12 -61 17 -93 17c-85 0 -134 -57 -134 -133c0 -30 7 -59 22 -88c1 -4 2 -6 2 -7c0 -7 -4 -10 -11 -10
c-68 -5 -109 46 -109 117c0 103 91 193 215 193c43 0 75 -10 124 -29c57 -20 86 -29 130 -29c13 0 27 1 41 3h4c5 0 8 -2 8 -5s-1 -6 -3 -9c-18 -25 -36 -57 -53 -97l-93 -199c35 3 67 13 97 32c60 39 100 86 161 165c27 34 48 60 64 78c33 37 73 66 116 66
c36 0 57 -20 64 -59l1 -4c0 -7 -4 -11 -11 -13c-53 -17 -89 -52 -150 -121c-41 -45 -79 -82 -113 -111c-34 -28 -75 -50 -123 -67c23 -10 41 -25 53 -45c24 -39 29 -81 36 -153c4 -43 9 -77 14 -102c12 -49 44 -89 115 -94c11 -1 16 -4 15 -8c-9 -28 -62 -59 -119 -59
c-46 0 -81 13 -104 38c-47 51 -54 115 -62 226z" />
    <glyph glyph-name="L.ss01" horiz-adv-x="696" 
d="M307 -66c-33 31 -58 53 -75 67c-33 -15 -69 -22 -108 -22c-51 0 -79 24 -79 53c0 32 34 62 90 62c20 0 41 -3 62 -9c33 33 55 77 88 158c-140 17 -208 98 -208 199c-2 120 105 254 234 251c28 0 48 -11 55 -23l1 -4c0 -5 -4 -9 -13 -10c-104 -5 -197 -122 -194 -216
c0 -73 48 -128 148 -140c49 122 105 225 168 310s130 128 203 128c67 0 99 -38 99 -99c3 -124 -149 -336 -334 -384c-45 -96 -90 -167 -147 -214l66 -40c101 -65 164 -98 237 -98c26 0 51 6 76 17c3 1 6 2 10 2c5 0 7 -2 7 -5c-6 -57 -59 -122 -148 -122c-28 0 -55 6 -82 19
c-26 13 -50 28 -73 46c-22 18 -50 43 -83 74zM711 646c0 24 -9 39 -26 39c-48 0 -97 -103 -188 -312l-20 -46c138 59 236 240 234 319z" />
    <glyph glyph-name="M.ss01" horiz-adv-x="966" 
d="M638 -13c0 79 26 174 78 285l117 251l-392 -515c-3 -5 -9 -8 -17 -8h-58c-9 0 -14 5 -13 15l56 495l-142 -282c-41 -82 -83 -149 -126 -202c-42 -52 -81 -78 -118 -78c-36 0 -58 15 -66 59l-1 4c0 6 4 10 11 12c41 13 83 43 124 89c42 47 80 102 114 166l122 227l21 41
c24 48 36 70 53 90c-5 1 -16 3 -32 8c-31 8 -66 15 -98 15c-84 0 -134 -57 -134 -133c0 -30 7 -59 21 -87c1 -2 2 -5 2 -8c0 -6 -3 -9 -10 -9c-68 -5 -109 46 -109 117c0 102 92 192 216 192c43 0 77 -10 134 -29c51 -17 83 -27 119 -27c11 0 24 1 38 3h2c9 0 13 -5 11 -14
c-3 -17 -7 -45 -11 -85l-38 -355l350 438c4 5 10 8 18 8h159c9 0 14 -7 10 -16l-193 -414c-41 -88 -62 -168 -62 -239c0 -48 9 -86 26 -113c2 -2 3 -4 3 -7c0 -5 -4 -10 -11 -14c-24 -14 -49 -21 -75 -21c-63 0 -99 52 -99 141z" />
    <glyph glyph-name="N.ss01" horiz-adv-x="795" 
d="M-60 7v3c0 7 4 11 11 13c85 28 173 135 281 347l147 290c3 7 9 11 16 11l117 6h2c9 0 12 -5 10 -15c-2 -11 -3 -22 -3 -35c0 -4 1 -21 3 -51l28 -364l106 228c30 64 55 115 76 153c43 77 91 135 140 135c36 0 58 -16 66 -59l1 -4c0 -7 -4 -11 -12 -13
c-76 -23 -141 -118 -209 -263l-181 -388c-3 -7 -9 -11 -16 -12l-77 -12h-3c-7 0 -11 4 -12 13l-41 518l-96 -188c-131 -257 -207 -367 -288 -372c-36 0 -58 15 -66 59z" />
    <glyph glyph-name="O.ss01" horiz-adv-x="712" 
d="M8 123c-4 182 135 438 311 511c40 65 104 104 185 104c119 0 178 -90 178 -226c0 -81 -22 -176 -61 -267l32 5h3c8 0 13 -5 12 -13c-3 -43 -42 -69 -89 -76c-45 -78 -99 -141 -163 -190s-133 -73 -206 -73c-136 0 -202 90 -202 225zM448 178c-55 21 -97 58 -128 109
c-30 51 -46 108 -47 169c-35 -55 -64 -116 -86 -181c-21 -65 -32 -122 -32 -172c0 -75 26 -120 82 -120c72 0 148 78 211 195zM563 568c0 65 -21 106 -62 106c-84 0 -143 -98 -143 -203c0 -92 43 -175 130 -210c47 108 75 226 75 307z" />
    <glyph glyph-name="P.ss01" horiz-adv-x="755" 
d="M56 -50c-1 3 -2 5 -2 6c0 4 2 8 7 13c23 21 42 41 55 60c13 20 29 49 47 87l100 215c88 188 166 309 263 353c-17 1 -31 2 -42 2c-175 4 -314 -128 -311 -259c0 -30 6 -59 19 -86c1 -4 2 -6 2 -7c0 -7 -4 -10 -11 -10c-73 -6 -112 61 -112 121c-4 122 162 299 409 294
c204 0 316 -110 316 -236c2 -145 -154 -299 -425 -296h-12l-50 -107c-47 -103 -114 -176 -194 -176c-29 0 -49 9 -59 26zM383 260h4c149 -5 291 159 287 280c0 57 -28 104 -85 128c-33 -25 -65 -90 -126 -231l-47 -106z" />
    <glyph glyph-name="Q.ss01" horiz-adv-x="682" 
d="M393 -108c-33 27 -58 45 -74 56c-39 -15 -77 -22 -116 -22c-129 0 -193 83 -193 207c-3 168 126 410 285 491c47 68 118 114 206 114c120 0 179 -86 179 -215c2 -176 -120 -428 -283 -534c24 -12 42 -21 53 -28c104 -57 168 -86 241 -86c29 0 48 5 76 17c4 2 7 3 10 3
c6 0 8 -2 7 -6c-6 -57 -58 -122 -149 -122c-27 0 -55 6 -82 18c-27 11 -51 25 -74 41c-22 16 -51 38 -86 66zM563 565c0 68 -21 109 -65 109c-73 4 -155 -120 -152 -235c0 -18 2 -36 6 -54v-5c0 -7 -4 -11 -13 -10c-41 4 -69 27 -81 63c-30 -52 -55 -107 -74 -166
c-19 -58 -29 -109 -29 -152c0 -33 6 -58 18 -76c10 4 24 6 41 6c29 0 59 -5 91 -16c45 26 87 71 126 134c40 64 72 133 96 208s36 139 36 194z" />
    <glyph glyph-name="R.ss01" horiz-adv-x="786" 
d="M480 133c-9 111 -13 164 -73 170h-14l-137 -293c-3 -7 -8 -10 -16 -10h-125c-9 0 -14 7 -10 16l148 315c32 69 60 124 83 163c48 79 102 128 177 140l4 1c6 0 10 -3 13 -9l1 -1c1 -2 2 -5 2 -8c0 -5 -2 -9 -5 -12c-19 -21 -32 -52 -60 -124c-13 -36 -30 -77 -49 -122h36
c128 0 212 92 212 182c0 78 -63 145 -192 145c-163 4 -306 -131 -302 -261c0 -29 6 -57 19 -84c1 -4 2 -6 2 -7c0 -7 -4 -10 -11 -10c-74 -6 -112 61 -112 121c0 41 17 85 50 131s81 85 142 116c62 31 134 47 216 47c225 0 320 -103 320 -203c0 -93 -83 -187 -251 -215
c52 -33 64 -89 72 -189c5 -43 10 -77 15 -102c12 -48 45 -89 114 -94c12 -1 17 -4 16 -8c-11 -28 -61 -59 -120 -59c-46 0 -81 13 -104 38c-47 51 -54 115 -61 226z" />
    <glyph glyph-name="S.ss01" horiz-adv-x="585" 
d="M-70 28c-2 105 102 220 252 217c43 0 82 -7 117 -22c-5 24 -14 61 -27 110c-23 80 -35 132 -35 180c-3 136 124 227 244 225c108 0 161 -68 161 -135c0 -51 -31 -92 -80 -92c-35 0 -53 20 -53 48s20 58 49 70c-4 28 -33 49 -74 49c-33 0 -60 -12 -81 -37
c-20 -25 -30 -53 -30 -86c0 -36 13 -76 44 -163c33 -91 53 -154 58 -215c57 5 109 26 125 63c3 7 8 10 17 10c12 0 27 -10 27 -22c0 -1 -1 -4 -2 -8c-25 -56 -94 -87 -167 -96c-13 -143 -161 -280 -322 -276c-125 0 -223 73 -223 180zM308 144c0 12 0 21 -1 27
c-39 17 -80 25 -123 25c-116 0 -186 -85 -186 -165c0 -76 70 -116 130 -116c99 0 180 110 180 229z" />
    <glyph glyph-name="T.ss01" horiz-adv-x="564" 
d="M136 -36c0 50 19 115 56 194l83 177c63 131 130 240 214 287c-89 25 -155 38 -197 38c-112 0 -169 -80 -169 -167c0 -35 7 -66 21 -92c1 -4 2 -6 2 -7c0 -6 -4 -10 -11 -11c-67 -5 -107 45 -107 117c-2 104 81 242 276 239c35 0 72 -4 111 -11s89 -17 150 -32l20 -5
c53 -12 95 -21 126 -26s60 -8 88 -8c67 0 126 18 176 53c3 2 6 3 9 3c6 0 9 -3 10 -9c1 -3 1 -8 1 -15c0 -65 -77 -131 -194 -131c-64 0 -140 17 -243 46c-12 -15 -25 -35 -38 -62c-13 -26 -30 -65 -53 -118c-10 -25 -23 -55 -39 -89l-103 -223c-25 -54 -41 -98 -50 -132
c-8 -34 -13 -69 -14 -105c0 -9 -4 -14 -13 -14c-69 -4 -112 30 -112 103z" />
    <glyph glyph-name="U.ss01" horiz-adv-x="754" 
d="M431 29c0 25 4 53 12 85c-71 -92 -140 -138 -209 -138c-68 0 -112 41 -112 117c0 48 17 105 50 172l111 220c23 45 35 84 35 117c0 41 -20 66 -61 66c-81 0 -142 -97 -142 -191c0 -31 6 -59 19 -84c1 -2 2 -5 2 -9c0 -5 -3 -8 -10 -9c-65 -5 -108 44 -108 115
c-3 102 117 245 250 240c96 0 177 -68 177 -173c0 -43 -13 -90 -39 -140l-91 -177c-20 -39 -30 -72 -30 -97c0 -31 14 -46 38 -46c55 0 145 100 248 319l114 244c3 7 8 10 16 10h126c9 0 14 -7 10 -16l-208 -446c-28 -59 -42 -113 -42 -160c0 -38 9 -69 26 -94
c2 -2 3 -5 3 -8c0 -5 -3 -9 -10 -12c-27 -15 -52 -22 -76 -22c-64 0 -99 42 -99 117z" />
    <glyph glyph-name="V.ss01" horiz-adv-x="679" 
d="M205 54c0 34 8 98 23 192l38 238c9 59 14 100 14 121c0 44 -13 63 -46 63c-75 0 -135 -100 -135 -193c0 -31 6 -58 18 -82c1 -2 2 -5 2 -9c0 -5 -3 -8 -10 -9c-64 -5 -107 44 -107 115c-3 102 118 245 249 240c105 0 162 -62 162 -187c0 -28 -3 -60 -9 -96l-44 -263
l365 478c3 5 9 8 17 8h81c8 0 12 -3 12 -8c0 -2 -1 -5 -4 -9l-550 -678c-4 -5 -10 -8 -17 -8c-43 3 -59 27 -59 87z" />
    <glyph glyph-name="W.ss01" horiz-adv-x="992" 
d="M192 84c0 41 7 95 22 162l52 238l6 31c11 47 16 81 16 100c0 35 -13 53 -48 53c-83 0 -140 -96 -140 -191c0 -31 6 -59 18 -84l2 -8c0 -6 -4 -9 -11 -10c-64 -5 -107 44 -107 115c-3 102 117 245 250 240c104 0 162 -61 162 -178c0 -31 -4 -66 -12 -105l-49 -224l-8 -40
l293 478c4 6 10 9 17 9h118c10 0 14 -5 13 -15l-67 -432c-4 -27 -6 -41 -6 -44l321 482c3 6 9 9 17 9h82c8 0 12 -3 12 -9c0 -2 -1 -5 -3 -8l-495 -677c-4 -6 -10 -9 -17 -9c-48 4 -67 33 -67 104c0 35 6 93 18 175l36 243l-318 -513c-4 -6 -10 -9 -17 -9
c-61 3 -90 37 -90 117z" />
    <glyph glyph-name="X.ss01" horiz-adv-x="666" 
d="M296 184v40l-20 -23l-25 -29c-41 -47 -74 -84 -100 -111c-51 -55 -108 -99 -153 -99c-37 0 -58 22 -58 53c0 6 0 11 1 14c1 7 6 12 15 13c30 3 59 13 87 30c56 36 95 78 162 154l25 29l68 75l2 140v67c0 88 -11 131 -62 131c-70 0 -117 -90 -117 -179
c0 -40 8 -73 25 -100c2 -3 3 -6 3 -9c0 -5 -3 -7 -10 -8c-67 -5 -114 49 -114 124c-2 97 89 238 233 234c117 0 191 -83 187 -224l-2 -76l26 30l37 44c37 44 68 79 91 104c47 51 99 91 143 91c37 0 58 -22 58 -53c0 -6 0 -11 -1 -14c-1 -7 -6 -12 -15 -13
c-28 -3 -55 -12 -81 -28c-52 -32 -88 -71 -148 -142l-38 -43l-75 -85l-3 -92c-1 -15 -1 -36 -1 -65c0 -136 21 -220 98 -269c9 -5 12 -9 10 -12c-15 -20 -43 -37 -86 -37c-65 0 -109 32 -130 96s-32 145 -32 242z" />
    <glyph glyph-name="Y.ss01" horiz-adv-x="738" 
d="M-23 -123c0 81 53 126 101 126c25 0 46 -14 53 -38l1 -4c0 -4 -3 -8 -10 -13c-23 -13 -46 -46 -46 -83c0 -45 34 -76 86 -76c34 0 65 12 92 35c56 47 94 113 139 210l30 64c-59 -66 -119 -99 -178 -99c-68 0 -112 41 -112 117c0 47 17 104 51 172l99 197
c23 47 34 86 34 118c0 41 -20 65 -60 65c-81 0 -141 -97 -141 -192c0 -31 6 -59 18 -83c1 -2 2 -5 2 -9c0 -5 -3 -8 -10 -9c-65 -5 -108 44 -108 115c-3 102 117 245 250 240c96 0 177 -68 177 -173c0 -43 -13 -90 -39 -140l-79 -153c-20 -37 -30 -70 -30 -97
c0 -31 14 -47 38 -47c51 0 131 84 224 269l126 271c3 7 8 10 17 10h125c9 0 14 -7 10 -16l-275 -590c-49 -105 -107 -189 -174 -253c-66 -64 -139 -96 -218 -96c-97 0 -193 53 -193 162z" />
    <glyph glyph-name="Z.ss01" horiz-adv-x="614" 
d="M176 -6c-28 15 -42 21 -61 21s-34 -7 -55 -19c-24 -12 -36 -18 -53 -18c-24 0 -39 15 -39 38c0 7 3 14 8 19l513 514c-19 2 -46 8 -80 17c-57 13 -84 19 -121 19c-40 0 -79 -9 -131 -44c-3 -2 -6 -3 -9 -3c-6 0 -9 3 -9 10c-4 80 49 173 166 173c57 0 94 -18 151 -53
c39 -24 63 -36 90 -36c22 0 47 11 74 32c3 3 7 5 11 5c3 0 5 -1 8 -4c10 -10 15 -22 15 -37s-6 -29 -18 -42l-473 -472c27 7 54 10 79 10c40 0 65 -6 96 -18c29 -9 44 -14 69 -14s53 5 85 15l9 2c5 0 8 -2 7 -7c-10 -70 -70 -147 -184 -147c-67 0 -101 14 -148 39z" />
    <glyph glyph-name="A.ss02" horiz-adv-x="755" 
d="M-126 -14c0 6 0 10 1 13c2 7 7 12 15 13c81 9 151 82 243 199l36 44l53 63c-29 8 -57 12 -84 12c-57 0 -108 -21 -151 -62c-3 -3 -6 -5 -10 -5s-7 3 -9 8c-2 7 -3 14 -3 21c0 56 60 111 161 111c45 0 93 -10 142 -31l95 113c43 51 82 93 118 127c72 69 162 120 263 120
c29 0 60 -5 93 -15c9 -1 13 -10 9 -18l-240 -513c-17 -35 -26 -64 -26 -87c0 -19 9 -30 22 -30c40 0 120 70 168 171c3 7 8 10 17 10c12 0 27 -10 27 -22c0 -1 -1 -4 -2 -8c-64 -139 -192 -243 -297 -243c-59 0 -93 29 -93 89c0 29 8 64 24 105c-47 52 -97 91 -150 117
l-73 -87l-39 -47c-117 -144 -191 -223 -252 -223c-37 0 -58 23 -58 55zM470 226l204 437c-77 -28 -136 -85 -204 -168l-133 -158c47 -29 91 -66 133 -111z" />
    <glyph glyph-name="B.ss02" horiz-adv-x="845" 
d="M256 -76c0 11 4 22 12 31c3 3 6 4 9 4s7 -2 10 -5c23 -21 54 -32 93 -32c127 -3 224 123 222 230c0 89 -59 154 -175 154h-33l-75 -163c-48 -103 -114 -176 -194 -176c-30 0 -50 9 -59 27c-1 3 -2 5 -2 6c0 4 2 8 7 13c23 20 41 40 54 59s29 49 47 88l80 171
c32 69 60 123 84 162c48 80 102 129 177 141l4 1c6 0 10 -3 13 -9l1 -1c1 -2 2 -5 2 -8c0 -4 -2 -8 -5 -11c-20 -21 -32 -51 -60 -123c-18 -47 -34 -86 -47 -117h39c126 0 208 90 208 178c0 76 -63 142 -192 142c-163 4 -307 -131 -303 -261c0 -29 6 -57 19 -84
c1 -4 2 -6 2 -7c0 -7 -4 -10 -11 -10c-74 -6 -112 61 -112 121c0 41 17 85 50 131s81 85 142 116c62 31 134 47 216 47c224 0 320 -101 320 -200c0 -91 -80 -173 -229 -201c108 -32 163 -113 163 -206c3 -138 -130 -291 -324 -287c-101 0 -153 39 -153 79z" />
    <glyph glyph-name="C.ss02" horiz-adv-x="803" 
d="M191 96c0 66 16 138 48 215c-93 32 -139 102 -139 183c-3 118 107 253 235 249c29 0 48 -10 55 -23l1 -4c0 -5 -4 -9 -13 -10c-103 -5 -198 -121 -195 -215c0 -53 27 -98 82 -123c99 197 293 373 484 370c95 0 141 -39 141 -99c0 -44 -22 -93 -67 -147
c-45 -53 -105 -99 -181 -138s-158 -60 -247 -63c-25 -69 -38 -130 -38 -183c0 -91 40 -147 127 -147c47 0 93 15 138 46s85 68 118 111c34 43 60 84 78 122c3 7 8 10 17 10c12 0 27 -10 27 -22c0 -1 -1 -4 -2 -8c-25 -50 -58 -101 -99 -153s-92 -97 -153 -135
s-127 -57 -200 -57c-147 0 -217 88 -217 221zM816 629c0 31 -22 49 -63 49c-115 4 -257 -158 -333 -328c70 6 135 25 196 58s110 70 146 112c36 43 54 79 54 109z" />
    <glyph glyph-name="E.ss02" horiz-adv-x="758" 
d="M142 60c-2 118 106 260 291 304c-6 4 -14 11 -24 21h-25c-182 0 -263 79 -263 171c0 94 89 187 212 187c28 0 48 -10 55 -23l1 -4c0 -6 -4 -9 -13 -9c-99 -6 -171 -82 -171 -151c0 -63 55 -109 170 -113c-5 18 -8 36 -8 54c-3 124 127 265 311 261
c104 0 157 -41 157 -102c3 -92 -128 -222 -316 -257c5 -6 12 -12 21 -19c21 1 37 2 48 2c40 0 62 -14 62 -30c0 -17 -23 -32 -59 -32c-32 0 -62 4 -89 11c-119 -34 -198 -154 -196 -246c0 -73 44 -124 128 -124c141 -5 294 182 339 279c3 7 8 10 17 10c13 0 27 -10 27 -22
l-2 -8c-21 -46 -53 -95 -96 -148c-42 -53 -94 -99 -156 -138s-129 -59 -202 -59c-144 0 -219 83 -219 185zM761 648c0 31 -24 51 -71 51c-109 4 -202 -120 -200 -218c0 -10 1 -20 3 -29c161 30 268 131 268 196z" />
    <glyph glyph-name="F.ss02" horiz-adv-x="618" 
d="M152 -36c0 50 19 115 56 194l70 149h-71c-11 0 -15 7 -11 16l15 34c3 7 8 11 17 11h79c67 133 134 222 199 269c-77 15 -137 23 -181 23c-70 0 -121 -16 -152 -49c-31 -32 -46 -71 -46 -117c0 -31 7 -62 20 -93l2 -8c0 -6 -4 -9 -11 -10c-65 -5 -107 45 -107 117
c0 63 23 119 68 167s125 72 240 72c39 0 83 -4 130 -11c48 -7 114 -18 199 -33c113 -21 213 -37 300 -49c88 -11 179 -17 272 -17c183 0 290 27 373 82c3 2 6 3 9 3c5 0 8 -3 9 -10c1 -3 1 -8 1 -15c0 -44 -30 -82 -89 -113s-160 -46 -302 -46c-101 0 -198 7 -293 21
c-94 15 -202 35 -323 61l-40 9c-29 -40 -56 -96 -108 -212l-18 -41h134c11 0 15 -7 11 -16l-15 -34c-3 -7 -8 -11 -17 -11h-141l-90 -195c-25 -54 -41 -98 -50 -132c-8 -34 -13 -69 -14 -105c0 -9 -4 -14 -13 -14c-69 -4 -112 30 -112 103z" />
    <glyph glyph-name="G.ss02" horiz-adv-x="956" 
d="M170 -241c0 99 137 171 409 191l70 149c-67 -73 -138 -108 -219 -108c-119 0 -176 67 -176 174c0 53 13 112 40 177c-88 32 -130 100 -130 177c-3 118 106 249 235 246c28 0 47 -11 54 -24l1 -4c0 -5 -4 -9 -13 -10c-103 -5 -196 -120 -194 -210c0 -49 24 -92 75 -117
c97 187 294 362 489 359c95 0 142 -38 142 -98c0 -44 -23 -93 -69 -147c-46 -53 -108 -99 -187 -137c-78 -38 -162 -57 -253 -58c-19 -54 -29 -99 -29 -136c0 -67 30 -107 91 -107c39 0 79 21 120 62c41 42 89 114 142 217c3 7 8 11 16 11h116c9 0 14 -7 10 -16l-171 -367
c95 40 173 132 232 257c3 7 8 10 17 10c12 0 27 -10 27 -22c0 -1 -1 -4 -2 -8c-76 -163 -187 -266 -308 -299c-45 -75 -100 -140 -163 -193c-63 -54 -133 -81 -209 -81c-45 0 -84 10 -116 30c-31 20 -47 47 -47 82zM555 -97c-169 -12 -315 -69 -315 -139
c0 -37 40 -55 83 -55c44 0 86 19 127 58c41 38 76 83 105 136zM882 653c0 29 -20 46 -60 46c-127 3 -276 -160 -353 -321c73 4 141 22 204 54c63 33 114 70 152 112c38 43 57 79 57 109z" />
    <glyph glyph-name="I.ss02" horiz-adv-x="572" 
d="M204 -8c-72 7 -126 11 -163 11c-40 0 -77 -3 -112 -8h-3c-8 0 -12 4 -13 11c-1 3 -1 7 -1 13c0 51 56 87 159 87l58 -1c3 31 16 70 39 118l31 65c77 160 140 267 217 320c-63 15 -103 22 -152 22c-37 0 -68 -11 -93 -33c-25 -21 -38 -47 -38 -78c0 -25 8 -47 24 -68
c3 -3 4 -7 4 -10c0 -5 -6 -7 -17 -7c-64 0 -99 50 -99 117c0 108 99 173 230 173c64 0 114 -11 182 -28c64 -15 96 -22 137 -22c30 0 59 4 86 12l6 1c6 0 10 -3 12 -9s3 -12 3 -18c0 -43 -53 -71 -152 -71c-19 0 -37 1 -52 4c-28 -37 -59 -107 -111 -227l-34 -78l-51 -111
c-16 -35 -27 -63 -34 -84c31 -3 59 -5 84 -5c29 0 58 2 86 7h6c6 0 9 -1 10 -4c0 -42 -52 -107 -143 -107c-19 0 -54 3 -106 8z" />
    <glyph glyph-name="J.ss02" horiz-adv-x="557" 
d="M-139 -237c0 45 18 96 55 153s86 108 149 154s131 77 204 92l166 355c25 55 46 86 85 110c-15 3 -32 7 -52 14c-10 3 -65 20 -94 17c-84 0 -134 -57 -134 -133c0 -30 7 -59 22 -88c1 -4 2 -6 2 -7c0 -7 -4 -10 -11 -10c-68 -5 -109 46 -109 117c0 103 90 193 216 193
c41 0 70 -9 123 -28c57 -20 86 -29 131 -29c18 0 32 1 41 2h5c5 0 8 -2 8 -5c0 -1 -1 -4 -4 -9c-13 -18 -30 -50 -53 -97l-186 -400c14 -3 24 -6 30 -8c10 -3 15 -11 15 -24c0 -19 -11 -34 -27 -34c-5 0 -8 1 -11 2c-9 4 -20 7 -33 9l-52 -111c-40 -85 -92 -162 -156 -231
s-136 -104 -216 -104c-76 0 -114 39 -114 100zM169 -53l67 143c-165 -54 -314 -243 -310 -322c0 -28 14 -42 41 -42c36 0 72 23 108 68s67 96 94 153z" />
    <glyph glyph-name="K.ss02" horiz-adv-x="789" 
d="M485 121c-28 116 -47 167 -92 167h-15l-156 -335c-3 -6 -8 -10 -16 -11l-130 -10h-2c-11 0 -14 6 -9 15l265 569c24 51 47 85 86 110c-20 3 -45 11 -53 14c-43 12 -61 17 -93 17c-85 0 -134 -57 -134 -133c0 -30 7 -59 22 -88c1 -4 2 -6 2 -7c0 -7 -4 -10 -11 -10
c-68 -5 -109 46 -109 117c0 103 91 193 215 193c43 0 75 -10 124 -29c57 -20 86 -29 130 -29c13 0 27 1 41 3h4c5 0 8 -2 8 -5s-1 -6 -3 -9c-18 -25 -36 -57 -53 -97l-100 -215c36 2 70 14 103 36c33 23 62 49 88 79c26 31 57 70 93 119c29 39 52 70 71 93
c37 45 79 80 122 80c32 0 57 -16 66 -48c1 -1 1 -3 1 -5c0 -5 -3 -10 -9 -13c-33 -17 -62 -38 -87 -64c-25 -25 -54 -60 -87 -103c-30 -38 -56 -69 -78 -93c-44 -48 -106 -94 -185 -118c23 -11 43 -27 58 -48c31 -40 45 -80 68 -155c16 -50 31 -89 44 -117
c27 -57 77 -103 165 -103c12 0 21 0 28 1h3c11 0 15 -5 11 -12c-23 -41 -79 -75 -134 -75c-57 0 -102 16 -137 47c-34 31 -59 68 -76 111c-16 42 -32 96 -49 161z" />
    <glyph glyph-name="L.ss02" horiz-adv-x="696" 
d="M308 -31l-63 38c-36 -19 -76 -28 -121 -28c-51 0 -79 24 -79 53c0 32 34 62 90 62c17 0 38 -2 63 -7c33 33 55 79 87 156c-140 17 -208 98 -208 199c-2 120 105 254 234 251c28 0 48 -11 55 -23l1 -4c0 -5 -4 -9 -13 -10c-104 -5 -197 -122 -194 -216
c0 -73 48 -128 148 -140c49 122 105 225 168 310s130 128 203 128c67 0 99 -38 99 -99c3 -124 -149 -336 -334 -384c-41 -89 -83 -156 -135 -204c21 -9 54 -23 97 -44c5 -3 13 -6 22 -10c64 -30 119 -54 165 -73c92 -37 204 -68 316 -68c72 0 122 13 173 36c9 4 18 5 18 2
c-6 -57 -97 -146 -249 -146c-61 0 -124 11 -187 33s-120 48 -173 77s-114 66 -183 111zM711 646c0 24 -9 39 -26 39c-48 0 -97 -103 -188 -312l-20 -46c138 59 236 240 234 319z" />
    <glyph glyph-name="M.ss02" horiz-adv-x="960" 
d="M-69 -14l-1 4c0 7 4 11 11 13c80 28 167 133 244 273l205 384c4 7 9 11 16 11l133 6c10 0 14 -5 12 -15c-3 -16 -8 -45 -13 -87l-47 -349l350 436c4 5 10 8 18 8h159c9 0 14 -7 10 -16l-217 -468c-17 -35 -26 -64 -26 -87c0 -19 9 -30 22 -30c40 0 120 70 168 171
c3 7 8 10 17 10c12 0 27 -10 27 -22c0 -1 -1 -4 -2 -8c-64 -139 -192 -243 -296 -243c-59 0 -94 29 -94 89c0 39 14 87 41 144l146 314l-396 -516c-3 -5 -9 -8 -17 -8h-58c-9 0 -14 5 -13 15l66 499l-150 -289c-95 -181 -177 -298 -249 -298c-36 0 -58 16 -66 59z" />
    <glyph glyph-name="O.ss02" horiz-adv-x="696" 
d="M8 123c0 65 14 133 43 206s70 138 121 195s108 97 170 120c13 55 75 95 159 95c111 0 173 -81 180 -210c160 21 299 102 394 203c3 3 7 5 10 5c4 0 7 -3 9 -8c3 -7 4 -16 4 -25c3 -91 -145 -227 -419 -240c-7 -85 -33 -171 -76 -259s-100 -161 -169 -219
c-69 -59 -143 -88 -224 -88c-136 0 -202 90 -202 225zM550 465c-104 11 -165 46 -193 94c-109 -96 -204 -324 -202 -456c0 -75 26 -120 82 -120c43 0 86 25 129 75c43 51 81 113 114 188s57 148 70 219zM561 566c0 71 -23 109 -63 109c-44 0 -77 -28 -77 -63
c0 -41 45 -80 138 -88c1 20 2 34 2 42z" />
    <glyph glyph-name="P.ss02" horiz-adv-x="786" 
d="M383 165c0 5 0 8 1 11c2 7 7 11 15 12c152 10 287 192 284 328c0 99 -68 170 -200 170c-166 3 -313 -129 -310 -259c0 -30 6 -59 19 -86c1 -4 2 -6 2 -7c0 -7 -4 -10 -11 -10c-73 -6 -112 61 -112 121c-3 122 161 299 411 294c214 0 318 -116 318 -254
c3 -165 -158 -356 -386 -350c-19 0 -31 11 -31 30zM32 -114c-1 3 -2 5 -2 6c0 4 2 8 7 13c22 20 40 42 53 67c14 24 37 69 68 136l105 223c32 69 60 123 84 162c48 80 101 129 176 141l4 1c5 0 10 -3 13 -9l1 -1c2 -3 3 -6 3 -9s-2 -6 -5 -11c-20 -21 -33 -52 -60 -124
l-23 -59c-12 -30 -25 -60 -40 -91l-111 -240c-69 -149 -134 -231 -214 -231c-30 0 -50 9 -59 26z" />
    <glyph glyph-name="Q.ss02" horiz-adv-x="649" 
d="M403 -38c-31 23 -55 41 -73 53c-59 -29 -120 -44 -185 -44c-71 0 -112 35 -112 79c0 48 49 90 129 90c39 0 88 -14 146 -41c123 107 229 343 226 469c0 67 -25 106 -76 106c-43 0 -85 -22 -125 -67c-39 -44 -71 -98 -96 -163s-37 -125 -37 -181c0 -29 4 -55 12 -77
c1 -1 1 -3 1 -6c0 -7 -4 -10 -13 -10c-83 5 -123 60 -123 141c0 57 18 120 53 187s83 124 144 170c61 47 128 70 201 70c125 0 189 -82 189 -205c2 -155 -108 -373 -268 -480c18 -11 37 -22 57 -33c64 -37 119 -67 166 -90c95 -48 208 -86 320 -86c72 0 122 13 173 36
c5 2 8 3 11 3c5 0 8 -4 7 -8c-16 -59 -102 -139 -249 -139c-53 0 -107 11 -162 33c-54 21 -104 47 -151 78c-47 30 -102 68 -165 115zM259 61c-40 23 -72 34 -97 34c-41 0 -68 -19 -68 -40c0 -19 18 -31 51 -31c36 0 74 12 114 37z" />
    <glyph glyph-name="R.ss02" horiz-adv-x="782" 
d="M495 121c-28 116 -47 167 -92 167h-17l-156 -335c-3 -6 -8 -10 -16 -11l-130 -10h-2c-11 0 -14 6 -9 15l180 384c32 69 60 124 83 163c48 79 102 128 177 140l4 1c6 0 10 -3 13 -9l1 -1c1 -2 2 -5 2 -8c0 -5 -2 -9 -5 -12c-19 -21 -33 -54 -61 -125
c-15 -43 -34 -88 -55 -135h43c129 0 212 95 212 189c0 82 -63 152 -192 152c-163 4 -306 -131 -302 -261c0 -29 6 -57 19 -84c1 -4 2 -6 2 -7c0 -7 -4 -10 -11 -10c-74 -6 -112 61 -112 121c0 41 17 85 50 131s81 85 142 116c62 31 134 47 216 47c225 0 320 -103 320 -203
c0 -98 -91 -206 -272 -232c20 -12 37 -28 50 -48c28 -40 40 -76 63 -148c16 -50 31 -89 44 -117c27 -57 77 -103 165 -103c12 0 21 0 28 1h3c11 0 15 -5 11 -12c-11 -21 -29 -38 -55 -53c-25 -15 -52 -22 -79 -22c-57 0 -102 16 -137 47c-34 31 -59 68 -76 110
c-16 42 -32 96 -49 162z" />
    <glyph glyph-name="S.ss02" horiz-adv-x="585" 
d="M-64 44c0 112 109 221 340 239l-14 50c-23 80 -35 132 -35 180c-3 136 124 227 244 225c108 0 161 -68 161 -135c0 -51 -31 -92 -80 -92c-35 0 -53 20 -53 48s20 58 49 70c-4 28 -33 49 -74 49c-33 0 -60 -12 -81 -37c-20 -25 -30 -53 -30 -86c0 -36 13 -76 44 -163
c13 -35 24 -70 35 -103c95 11 185 53 233 110c4 5 10 8 17 8c13 0 24 -9 24 -21c0 -6 -2 -12 -7 -17c-48 -65 -149 -113 -254 -129c7 -33 11 -62 11 -89c4 -155 -152 -287 -314 -284c-131 0 -216 83 -216 177zM298 144c0 27 -4 57 -11 90c-200 -14 -286 -104 -286 -188
c0 -63 49 -112 120 -112c99 0 177 91 177 210z" />
    <glyph glyph-name="T.ss02" horiz-adv-x="567" 
d="M139 -37c0 50 19 115 57 195l83 177c29 61 61 119 98 175c37 57 77 100 119 129c-77 14 -134 21 -171 21c-70 0 -121 -16 -152 -49c-31 -32 -46 -71 -46 -117c0 -31 7 -62 20 -93l2 -8c0 -6 -4 -9 -11 -10c-65 -5 -107 45 -107 117c0 63 23 119 68 167s125 72 240 72
c39 0 82 -4 128 -11s111 -18 196 -33c109 -21 207 -37 294 -49c87 -11 177 -17 271 -17c183 0 290 27 373 82c3 2 6 3 9 3c5 0 8 -3 9 -10c1 -3 1 -8 1 -15c0 -44 -30 -82 -89 -113s-160 -46 -303 -46c-101 0 -197 7 -290 21c-92 15 -198 35 -318 61l-47 10
c-28 -39 -59 -103 -108 -214l-33 -73l-104 -223c-25 -54 -41 -98 -49 -131c-8 -34 -13 -69 -15 -106c0 -9 -4 -14 -13 -14c-69 -4 -112 30 -112 102z" />
    <glyph glyph-name="V.ss02" horiz-adv-x="708" 
d="M124 113c0 58 20 128 61 209l81 163c23 45 35 85 35 118c0 41 -20 65 -60 65c-83 0 -142 -96 -142 -191c0 -31 6 -59 18 -84c1 -2 2 -5 2 -9c0 -5 -3 -8 -10 -9c-64 -5 -107 44 -107 115c-3 102 117 245 250 240c96 0 177 -67 177 -173c0 -43 -13 -90 -39 -140l-74 -143
c-25 -49 -38 -91 -38 -128c0 -47 22 -73 57 -73c42 0 88 35 138 106s92 154 127 249s53 174 53 237c0 17 -1 31 -4 42l-1 5c0 6 3 10 9 12c12 5 24 7 35 7c40 0 71 -28 71 -99c0 -72 -27 -162 -81 -269c-53 -107 -119 -200 -198 -279s-154 -118 -225 -118
c-77 0 -135 52 -135 147z" />
    <glyph glyph-name="W.ss02" horiz-adv-x="1005" 
d="M440 112c-73 -91 -145 -136 -214 -136s-117 44 -117 123c0 49 17 108 52 177l105 209c23 45 35 85 35 118c0 41 -20 65 -60 65c-83 0 -142 -96 -142 -191c0 -31 6 -59 18 -84c1 -2 2 -5 2 -9c0 -5 -3 -8 -10 -9c-64 -5 -107 44 -107 115c-3 102 117 245 250 240
c96 0 177 -68 177 -173c0 -43 -13 -90 -39 -140l-86 -165c-21 -41 -31 -75 -31 -103c0 -33 16 -52 41 -52c51 0 123 94 228 319l114 244c3 7 8 10 16 10h125c9 0 14 -7 10 -16l-177 -383c-26 -55 -39 -101 -39 -136c0 -43 21 -62 49 -62c39 0 83 35 132 106s91 155 126 250
c35 96 53 175 53 237c0 17 -1 30 -4 41l-1 5c0 6 3 10 10 12c12 5 24 7 35 7c40 0 71 -28 71 -99s-27 -160 -82 -267c-54 -107 -120 -200 -197 -280c-77 -79 -147 -119 -211 -119c-34 0 -65 12 -92 35s-40 60 -40 111z" />
    <glyph glyph-name="X.ss02" horiz-adv-x="654" 
d="M288 201l-195 -194c-5 -5 -10 -7 -17 -7h-74c-8 0 -12 3 -12 8c0 3 2 6 5 9l298 287l7 166c1 39 2 66 2 82c0 77 -13 116 -64 116c-70 0 -117 -90 -117 -179c0 -40 8 -73 25 -100c2 -3 3 -6 3 -9c0 -5 -3 -7 -10 -8c-67 -5 -114 49 -114 124c-2 97 89 238 233 234
c119 0 194 -84 187 -224l-4 -63l226 224c5 5 10 7 17 7h76c8 0 12 -3 12 -8c0 -3 -2 -6 -5 -9l-332 -319l-6 -109c-5 -116 24 -156 63 -156c27 0 58 15 91 46c34 31 63 71 86 121c3 7 8 10 17 10c12 0 27 -10 27 -22c0 -1 -1 -4 -2 -8c-34 -71 -75 -130 -123 -176
s-99 -69 -154 -69c-97 0 -146 81 -146 226z" />
    <glyph glyph-name="Y.ss02" horiz-adv-x="807" 
d="M262 -313c-2 3 -3 5 -3 8s2 6 7 11c27 22 52 50 73 83c22 33 49 84 82 155l73 157c-61 -68 -121 -102 -180 -102c-68 0 -112 41 -112 117c0 48 17 105 50 172l114 229c28 56 49 86 85 110c-19 3 -41 7 -66 14c-53 12 -74 17 -109 17c-87 0 -139 -59 -139 -136
c0 -29 7 -57 21 -85c1 -4 2 -6 2 -7c0 -7 -4 -10 -11 -10c-68 -5 -109 46 -109 117c0 103 94 193 220 193c41 0 78 -9 139 -28c67 -20 101 -29 146 -29c18 0 32 1 41 2h5c5 0 8 -2 8 -5c0 -1 -1 -4 -4 -9c-13 -18 -30 -50 -53 -97l-147 -300c-20 -41 -30 -74 -30 -99
c0 -29 14 -45 38 -45c52 0 140 92 237 295l113 245c3 7 8 10 17 10h125c9 0 14 -7 10 -16l-338 -727c-89 -191 -157 -271 -240 -271c-30 0 -52 10 -65 31z" />
    <glyph glyph-name="A.ss03" horiz-adv-x="990" 
d="M-141 29c0 53 19 107 57 162c38 56 93 102 166 139s159 56 258 56c55 0 111 -7 166 -20l92 119c113 149 233 247 381 247c29 0 59 -5 92 -14c9 -3 13 -11 9 -19l-239 -513c-17 -37 -26 -66 -26 -87c0 -20 7 -30 21 -30c40 0 121 70 169 171c3 7 8 10 17 10
c12 0 27 -10 27 -22c0 -1 -1 -4 -2 -8c-64 -139 -192 -243 -297 -243c-59 0 -94 29 -94 89c0 39 14 87 41 144l5 10c-44 32 -95 58 -152 78l-87 -112c-149 -192 -295 -308 -440 -308c-105 0 -164 63 -164 151zM409 240l61 79c-47 9 -92 14 -135 14
c-255 5 -410 -165 -407 -284c0 -60 38 -102 103 -102c101 0 227 98 378 293zM724 269l185 394c-79 -28 -144 -91 -204 -168l-120 -153c49 -19 96 -43 139 -73z" />
    <glyph glyph-name="B.ss03" horiz-adv-x="798" 
d="M149 58c0 35 9 72 28 113l75 160c32 69 60 123 84 162c48 80 102 129 177 141l4 1c6 0 10 -3 13 -9l1 -1c1 -2 2 -5 2 -8c0 -4 -2 -8 -5 -11c-20 -21 -32 -51 -60 -123c-18 -47 -34 -86 -47 -117h39c126 0 208 90 208 178c0 76 -63 142 -192 142
c-163 4 -307 -131 -303 -261c0 -29 6 -57 19 -84c1 -4 2 -6 2 -7c0 -7 -4 -10 -11 -10c-74 -6 -112 61 -112 121c0 41 17 85 50 131s81 85 142 116c62 31 134 47 216 47c224 0 320 -101 320 -200c0 -91 -78 -172 -226 -200c83 -28 126 -90 126 -165
c3 -131 -140 -286 -346 -282c-133 0 -204 67 -204 166zM571 195c0 65 -42 111 -126 111h-52l-87 -189c-16 -34 -24 -63 -24 -87c0 -40 24 -62 65 -62c120 -4 227 130 224 227z" />
    <glyph glyph-name="C.ss03" horiz-adv-x="577" 
d="M24 131c0 91 21 184 64 279s102 173 176 235c75 62 156 93 243 93c112 0 165 -65 165 -129c0 -53 -36 -99 -87 -99c-35 0 -52 20 -52 48c0 31 21 62 54 71c-3 28 -27 49 -63 49c-51 0 -105 -31 -160 -92s-101 -136 -138 -225s-55 -173 -55 -251c0 -147 71 -242 228 -242
c63 0 106 12 161 47c5 3 8 4 11 4c5 0 6 -4 5 -13c-5 -31 -24 -58 -57 -81c-33 -24 -87 -36 -162 -36c-230 0 -333 150 -333 342z" />
    <glyph glyph-name="D.ss03" horiz-adv-x="831" 
d="M149 58c0 35 9 72 28 113l76 160c31 69 59 123 83 162c48 80 101 129 177 141l4 1c6 0 10 -3 13 -9l1 -1c1 -2 2 -5 2 -8c0 -5 -2 -9 -5 -12c-19 -21 -34 -55 -61 -126c-26 -66 -46 -115 -61 -148l-100 -214c-17 -39 -26 -69 -26 -92c0 -33 18 -49 54 -49
c52 0 105 27 158 81c54 55 98 122 133 201c35 80 53 154 53 223c0 124 -62 205 -197 205c-167 4 -312 -131 -308 -261c0 -29 6 -57 19 -84c1 -4 2 -6 2 -7c0 -7 -4 -10 -11 -10c-74 -6 -112 61 -112 121c0 41 17 85 50 131c34 46 82 85 144 116c63 31 135 47 217 47
c225 0 327 -135 327 -308c0 -81 -21 -163 -62 -246s-97 -151 -169 -204c-72 -54 -152 -81 -239 -81c-124 0 -190 63 -190 158z" />
    <glyph glyph-name="E.ss03" horiz-adv-x="547" 
d="M-18 85c0 116 84 230 235 276c-47 31 -70 78 -70 131c-2 119 127 253 317 250c119 0 176 -69 176 -136c0 -52 -33 -96 -84 -96c-35 0 -52 20 -52 48c0 31 23 63 56 72c-7 33 -37 57 -93 57c-111 4 -199 -113 -197 -206c0 -43 18 -80 51 -101c23 1 40 2 51 2
c40 0 62 -14 62 -30s-23 -32 -59 -32c-31 0 -59 3 -84 9c-48 -17 -87 -48 -116 -91s-43 -88 -43 -136c0 -110 84 -204 260 -204c53 0 100 10 142 31c5 3 9 4 12 4c5 0 7 -2 6 -7c-3 -27 -21 -52 -54 -74s-85 -33 -158 -33c-233 -3 -360 128 -358 266z" />
    <glyph glyph-name="F.ss03" horiz-adv-x="643" 
d="M176 -37c0 50 19 115 57 195l70 149h-71c-11 0 -15 7 -11 16l15 34c3 7 8 11 17 11h78c77 158 151 261 223 308c-69 11 -123 16 -160 16c-188 3 -262 -133 -262 -237c0 -21 3 -40 10 -55c1 -4 2 -7 2 -8c0 -5 -3 -8 -10 -9c-68 -5 -109 45 -109 117
c-3 132 150 276 382 272c43 0 93 -4 152 -12s146 -21 259 -39c5 -1 13 -3 22 -4c175 -29 323 -51 444 -66s239 -22 355 -22c221 0 363 34 443 83c3 2 6 3 8 3c6 0 9 -5 9 -14c0 -81 -131 -171 -464 -171c-115 0 -235 9 -360 26s-276 42 -454 74l-22 4
c-67 13 -123 22 -167 29c-16 -19 -33 -46 -50 -82c-17 -35 -42 -87 -73 -156l-25 -57h133c11 0 15 -7 11 -16l-15 -34c-3 -7 -8 -11 -17 -11h-140l-91 -195c-25 -54 -41 -98 -49 -131s-13 -69 -15 -106c0 -9 -4 -14 -13 -14c-69 -4 -112 29 -112 102z" />
    <glyph glyph-name="G.ss03" horiz-adv-x="711" 
d="M-68 -241c0 99 137 171 410 191l69 148c-67 -72 -137 -107 -218 -107c-120 0 -176 67 -176 174c0 77 26 163 79 257s123 174 208 239c86 65 176 98 269 98c113 0 165 -65 165 -130c0 -53 -34 -98 -85 -98c-35 0 -53 20 -53 48c0 31 22 61 55 72c-4 27 -30 48 -71 48
c-61 0 -123 -30 -186 -90c-63 -59 -116 -130 -158 -213s-63 -154 -63 -213c0 -67 29 -107 92 -107c39 0 79 21 120 62c41 42 88 114 141 217c3 7 8 11 16 11h116c9 0 14 -7 10 -16l-163 -352c-4 -9 -11 -23 -22 -43c75 -3 150 -12 225 -27s138 -35 187 -60
c50 -25 75 -55 75 -89c0 -32 -14 -62 -41 -79c-2 -1 -5 -2 -8 -2c-4 0 -8 3 -11 8c-49 104 -296 185 -457 197c-45 -72 -99 -133 -161 -182c-61 -49 -128 -74 -201 -74c-45 0 -84 10 -115 30c-32 20 -48 47 -48 82zM318 -97c-166 -9 -319 -69 -316 -139c0 -37 40 -55 83 -55
c45 0 87 19 127 57c41 38 76 84 106 137z" />
    <glyph glyph-name="H.ss03" horiz-adv-x="803" 
d="M-129 -8c-3 142 166 280 374 342l85 182c25 53 47 86 86 110c-20 3 -45 11 -53 14c-43 12 -61 17 -93 17c-85 0 -134 -57 -134 -133c0 -30 7 -59 22 -88c1 -4 2 -6 2 -7c0 -7 -4 -10 -11 -10c-68 -5 -109 46 -109 117c0 103 91 193 215 193c43 0 75 -10 124 -29
c57 -20 86 -29 130 -29c13 0 27 1 41 3h4c5 0 8 -2 8 -5s-1 -6 -3 -9c-18 -25 -36 -57 -53 -97l-91 -195c25 3 53 4 84 4s61 -1 90 -4l136 292c3 7 8 10 17 10h125c9 0 14 -7 10 -16l-146 -313c39 -15 59 -32 59 -52c0 -17 -11 -33 -27 -41c-2 -1 -4 -2 -7 -2s-7 1 -12 4
c-9 5 -24 13 -45 22l-19 -40c-34 -73 -51 -135 -51 -188c0 -37 8 -67 24 -90c2 -3 3 -6 3 -9c0 -4 -2 -7 -7 -10c-31 -18 -57 -27 -78 -27c-63 0 -98 42 -98 118c0 63 22 143 67 238l19 40c-23 3 -50 4 -79 4c-32 0 -64 -2 -95 -6l-58 -125c-39 -85 -85 -158 -137 -219
c-51 -61 -114 -92 -187 -92c-81 0 -132 46 -132 126zM148 126l63 136c-163 -60 -277 -167 -277 -262c0 -47 28 -71 60 -71c20 0 39 10 57 29c36 39 60 85 97 168z" />
    <glyph glyph-name="K.ss03" horiz-adv-x="781" 
d="M483 128c-28 112 -46 160 -90 160h-15l-156 -335c-3 -6 -8 -10 -16 -11l-130 -10h-2c-11 0 -14 6 -9 15l265 569c24 51 47 85 86 110c-20 3 -45 11 -53 14c-43 12 -61 17 -93 17c-85 0 -134 -57 -134 -133c0 -30 7 -59 22 -88c1 -4 2 -6 2 -7c0 -7 -4 -10 -11 -10
c-68 -5 -109 46 -109 117c0 103 91 193 215 193c43 0 75 -10 124 -29c57 -20 86 -29 130 -29c13 0 27 1 41 3h4c5 0 8 -2 8 -5s-1 -6 -3 -9c-18 -25 -36 -57 -53 -97l-100 -215c36 2 70 14 103 36c33 23 62 49 88 79c26 31 57 70 93 119c29 39 52 70 71 93
c37 45 79 80 122 80c32 0 57 -16 66 -48c1 -1 1 -3 1 -5c0 -5 -3 -10 -9 -13c-33 -17 -62 -38 -87 -64c-25 -25 -54 -60 -87 -103c-31 -39 -57 -70 -79 -94c-44 -48 -105 -94 -185 -118c61 -32 89 -91 125 -202c21 -63 42 -114 63 -153c43 -79 129 -141 280 -141
c86 0 168 21 245 63c15 8 20 6 19 -1c-16 -61 -135 -166 -324 -163c-97 0 -174 21 -232 64c-57 42 -99 91 -125 147c-25 55 -49 123 -71 204z" />
    <glyph glyph-name="L.ss03" horiz-adv-x="697" 
d="M361 -7l-23 17c-17 13 -31 23 -40 29c-63 -59 -134 -89 -213 -89c-85 0 -134 46 -134 103c0 62 60 124 164 124c34 0 75 -10 123 -31c18 33 33 66 46 97c-140 17 -207 98 -207 199c-2 120 105 254 234 251c28 0 48 -11 55 -23l1 -4c0 -5 -4 -9 -13 -10
c-104 -5 -197 -122 -194 -216c0 -73 48 -128 148 -140c49 122 105 225 168 310s130 128 203 128c67 0 99 -38 99 -99c3 -124 -149 -336 -334 -384c-31 -65 -63 -120 -98 -164c19 -10 41 -23 67 -39c67 -39 125 -70 172 -94c96 -48 212 -87 324 -87c72 0 122 13 173 36
c5 2 8 3 11 3c5 0 7 -3 6 -8c-14 -58 -102 -139 -248 -139c-53 0 -108 11 -164 34c-55 22 -107 48 -154 78s-105 69 -172 118zM209 97c-38 22 -70 33 -96 33c-61 0 -101 -35 -101 -72c0 -29 25 -51 72 -51c43 0 85 30 125 90zM711 646c0 24 -9 39 -26 39
c-48 0 -97 -103 -188 -312l-20 -46c138 59 236 240 234 319z" />
    <glyph glyph-name="M.ss03" horiz-adv-x="973" 
d="M666 32c0 85 22 175 66 271l103 221l-408 -552c-4 -6 -10 -9 -17 -9h-58c-9 0 -14 5 -13 15l67 525l-156 -313c-47 -94 -94 -171 -140 -231c-45 -60 -88 -90 -127 -90c-31 0 -54 19 -61 60l-1 4c0 7 4 11 11 13c41 14 84 49 130 104c47 56 89 119 126 190l139 265l21 41
c24 48 36 70 53 90c-5 1 -16 3 -32 8c-31 8 -66 15 -98 15c-84 0 -134 -57 -134 -133c0 -30 7 -59 21 -87c1 -2 2 -5 2 -8c0 -6 -3 -9 -10 -9c-68 -5 -109 46 -109 117c0 102 92 192 216 192c43 0 77 -10 134 -29c51 -17 83 -27 119 -27c11 0 24 1 38 3h2c9 0 13 -5 11 -14
c-3 -16 -5 -32 -7 -49l-4 -36l-49 -384l362 467c3 5 9 8 17 8h159c9 0 14 -7 10 -16l-181 -390c-37 -80 -59 -162 -59 -233c0 -131 73 -215 234 -215c100 0 174 27 242 62c5 2 9 3 12 3c4 0 6 -3 5 -7c-18 -61 -137 -164 -316 -161c-205 0 -320 131 -320 319z" />
    <glyph glyph-name="N.ss03" horiz-adv-x="806" 
d="M-78 -71l-1 4c0 7 4 11 11 13c41 14 84 49 130 104c47 56 89 119 126 190l139 265l18 35c25 51 36 73 55 94c-17 4 -30 7 -38 10c-39 11 -59 16 -91 16c-84 0 -134 -57 -134 -133c0 -30 7 -59 22 -88c1 -4 2 -6 2 -7c0 -7 -4 -10 -11 -10c-68 -5 -109 46 -109 117
c0 103 93 193 216 193c44 0 77 -11 128 -31c47 -17 71 -26 104 -26c16 0 28 1 37 3h3c9 0 12 -4 10 -13c-1 -7 -2 -17 -2 -31c0 -16 3 -43 3 -54l24 -387l58 140c135 324 332 505 575 505c170 0 265 -93 265 -176c0 -41 -24 -75 -68 -87h-4c-8 0 -12 5 -12 15
c0 119 -79 171 -202 171c-185 -2 -327 -117 -492 -476l-150 -326c-3 -7 -8 -11 -15 -12l-58 -11c-1 0 -3 -1 -4 0c-7 0 -11 4 -12 12l-40 553l-155 -311c-47 -94 -94 -171 -140 -231c-45 -60 -88 -90 -127 -90c-31 0 -54 19 -61 60z" />
    <glyph glyph-name="O.ss03" horiz-adv-x="805" 
d="M104 87c0 53 11 109 32 167c-25 30 -38 68 -38 113c0 57 19 116 56 177c38 61 90 112 156 153c67 41 141 61 222 61c90 0 156 -25 199 -74s65 -113 65 -194c0 -87 -23 -179 -70 -276c-46 -96 -107 -176 -184 -241s-158 -97 -243 -97c-132 0 -195 84 -195 211zM672 508
c0 113 -48 186 -153 186c-53 0 -104 -17 -155 -50c-50 -33 -91 -74 -122 -123c-31 -48 -47 -93 -47 -134v-10c72 115 171 199 282 222h4c7 0 11 -3 14 -8l1 -1c1 -2 2 -5 2 -9s-2 -7 -5 -10c-76 -69 -146 -178 -193 -290c5 -1 14 -1 27 -1c24 0 50 2 77 7h4
c8 0 12 -5 11 -14c-11 -53 -64 -80 -120 -80c-13 0 -23 0 -30 1c-14 -49 -21 -91 -21 -126c0 -69 27 -110 84 -110c51 0 102 30 155 90c53 61 97 134 132 221s53 167 53 239z" />
    <glyph glyph-name="R.ss03" horiz-adv-x="784" 
d="M493 140c-11 40 -19 70 -26 91c-13 41 -33 72 -64 72h-10l-163 -350c-3 -6 -8 -10 -16 -11l-130 -10h-2c-11 0 -14 6 -9 15l180 384c32 69 60 124 83 163c48 79 102 128 177 140l4 1c6 0 10 -3 13 -9l1 -1c1 -2 2 -5 2 -8c0 -5 -2 -9 -5 -12c-19 -21 -32 -52 -60 -124
c-13 -36 -30 -77 -49 -122h36c128 0 212 92 212 182c0 78 -63 145 -192 145c-163 4 -306 -131 -302 -261c0 -29 6 -57 19 -84c1 -4 2 -6 2 -7c0 -7 -4 -10 -11 -10c-74 -6 -112 61 -112 121c0 41 17 85 50 131s81 85 142 116c62 31 134 47 216 47c225 0 320 -103 320 -203
c0 -97 -91 -196 -275 -218c55 -35 79 -93 114 -201c21 -65 42 -118 63 -158c43 -80 129 -145 280 -145c86 0 168 21 245 63c5 3 10 4 13 4c5 0 7 -3 6 -6c-16 -61 -134 -165 -325 -162c-97 0 -174 22 -231 65s-99 94 -125 151c-25 57 -49 128 -71 211z" />
    <glyph glyph-name="T.ss03" horiz-adv-x="594" 
d="M166 -36c0 49 19 113 56 194l100 212c30 63 64 123 102 180s78 99 121 127c-68 10 -118 15 -151 15c-188 3 -262 -133 -262 -237c0 -21 3 -40 10 -55c1 -4 2 -7 2 -8c0 -5 -3 -8 -10 -9c-68 -5 -109 45 -109 117c-3 132 150 276 382 272c43 0 95 -4 157 -13
c62 -8 144 -21 246 -38l27 -4c171 -28 317 -50 437 -65c121 -15 239 -23 355 -23c221 0 363 34 442 83c3 2 6 3 8 3c6 0 9 -5 9 -15c0 -80 -132 -170 -464 -170c-115 0 -234 9 -357 26s-273 42 -449 74l-22 4l-173 31c-29 -36 -66 -112 -114 -221l-34 -74l-120 -258
c-25 -54 -41 -98 -49 -131s-13 -69 -15 -106c0 -9 -4 -14 -13 -14c-69 -4 -112 28 -112 103z" />
    <glyph glyph-name="U.ss03" horiz-adv-x="760" 
d="M453 34c0 35 4 72 12 111c-80 -116 -155 -169 -231 -169c-68 0 -112 41 -112 117c0 48 17 105 50 172l111 220c23 45 35 84 35 117c0 41 -20 66 -61 66c-81 0 -142 -97 -142 -191c0 -31 6 -59 19 -84c1 -2 2 -5 2 -9c0 -5 -3 -8 -10 -9c-65 -5 -108 44 -108 115
c-3 102 117 245 250 240c96 0 177 -68 177 -173c0 -43 -13 -90 -39 -140l-91 -177c-20 -39 -30 -72 -30 -97c0 -31 14 -46 38 -46c55 0 145 100 248 319l114 244c3 7 8 10 16 10h126c9 0 14 -7 10 -16l-182 -390c-37 -80 -59 -162 -59 -233c0 -131 72 -215 235 -215
c100 0 173 27 241 62c5 2 9 3 12 3c5 0 6 -3 4 -10c-19 -62 -139 -161 -314 -158c-206 0 -321 132 -321 321z" />
    <glyph glyph-name="V.ss03" horiz-adv-x="673" 
d="M176 29c0 41 8 98 24 171l66 284c13 64 20 99 20 128c0 37 -13 56 -46 56c-80 0 -141 -97 -141 -192c0 -30 6 -58 18 -83c1 -2 2 -5 2 -9c0 -5 -3 -8 -10 -9c-64 -5 -107 44 -107 115c-3 102 117 245 250 240c104 0 159 -61 159 -177c0 -31 -4 -67 -12 -106l-59 -270
c-8 -39 -13 -62 -14 -70l239 349c73 107 157 197 252 271c96 74 201 111 314 111c166 0 256 -95 256 -178c0 -41 -23 -73 -64 -85h-4c-8 0 -12 4 -12 13c-1 115 -67 173 -199 173c-186 -3 -303 -103 -486 -352l-353 -479c-4 -6 -10 -9 -17 -9c-52 4 -76 36 -76 108z" />
    <glyph glyph-name="W.ss03" horiz-adv-x="1004" 
d="M178 38c0 39 8 93 23 162l65 284l6 27c12 51 18 86 18 105c0 35 -14 52 -50 52c-83 0 -140 -96 -140 -191c0 -31 6 -59 18 -84l2 -8c0 -6 -4 -9 -11 -10c-64 -5 -107 44 -107 115c-3 102 117 245 250 240c103 0 160 -61 160 -177c0 -27 -4 -63 -13 -106l-59 -270l-8 -39
l316 523c4 6 10 9 17 9h117c9 0 13 -6 12 -15l-80 -478c-1 -7 -4 -22 -7 -46l211 324c163 255 347 383 550 383c167 0 260 -91 260 -172c0 -43 -25 -77 -70 -90c-1 -1 -3 -1 -5 -1c-7 0 -11 5 -11 14c-1 124 -72 172 -201 172c-185 -4 -285 -85 -466 -353l-326 -478
c-4 -6 -10 -9 -17 -9c-52 4 -74 39 -74 116c0 39 6 93 17 163l47 280l-336 -550c-4 -6 -10 -9 -17 -9c-61 3 -91 38 -91 117z" />
    <glyph glyph-name="Y.ss03" horiz-adv-x="736" 
d="M-19 -202c0 81 131 174 389 186l58 125c-56 -61 -111 -87 -170 -87c-68 0 -111 42 -111 118c0 48 16 105 49 171l87 174c23 45 34 85 34 118c0 40 -20 65 -60 65c-81 0 -141 -97 -141 -192c0 -31 6 -59 18 -83c1 -2 2 -5 2 -9c0 -5 -3 -8 -10 -9c-65 -5 -108 44 -108 115
c-3 102 117 245 250 240c96 0 177 -67 177 -172c0 -44 -13 -91 -39 -141l-67 -131c-20 -39 -30 -72 -30 -97c0 -29 15 -46 38 -46c52 0 124 67 216 254l122 263c3 7 8 10 17 10h125c9 0 14 -7 10 -16l-311 -669c218 -11 471 -75 466 -174c0 -32 -14 -62 -41 -79
c-2 -1 -5 -2 -8 -2c-4 0 -8 3 -11 8c-48 98 -271 176 -433 194c-39 -71 -85 -130 -140 -176c-55 -47 -118 -70 -190 -70c-116 0 -188 50 -188 112zM347 -66c-201 -16 -297 -78 -297 -131c0 -32 37 -55 92 -55c81 0 149 62 205 186z" />
    <glyph glyph-name="Z.ss03" horiz-adv-x="558" 
d="M320 -92c-96 55 -146 79 -190 79c-21 0 -37 -6 -65 -19c-24 -11 -43 -17 -58 -17c-24 0 -39 14 -39 37c0 6 3 12 8 19l515 542c-29 3 -70 13 -81 16c-51 13 -85 20 -122 20c-40 0 -79 -9 -131 -44c-3 -2 -6 -3 -9 -3c-6 0 -9 3 -9 10c-4 80 49 173 166 173
c57 0 94 -18 151 -53c39 -24 63 -36 90 -36c22 0 47 11 74 32c3 3 7 5 11 5c3 0 5 -1 8 -4c10 -10 15 -22 15 -37s-6 -29 -18 -42l-500 -523c4 1 10 1 18 1c38 0 76 -7 113 -20c38 -13 87 -34 146 -63c77 -38 147 -67 210 -88c64 -21 135 -32 213 -32c71 0 121 13 173 36
c9 4 18 5 18 2c-8 -57 -96 -146 -253 -146c-57 0 -112 8 -165 23s-100 32 -143 53c-42 21 -91 47 -146 79z" />
    <glyph glyph-name="A.ss04" horiz-adv-x="985" 
d="M-145 24c-4 150 184 353 473 347c45 0 89 -5 165 -17l101 131c113 149 233 247 380 247c29 0 60 -5 93 -15c9 -1 13 -10 9 -18l-169 -360c33 5 63 13 90 23c1 1 3 1 6 1c5 0 10 -3 10 -8c0 -28 -31 -56 -99 -72l-36 -7l-42 -90c-17 -36 -25 -65 -25 -87
c0 -19 8 -30 21 -30c40 0 120 70 168 171c3 7 8 10 17 10c13 0 27 -10 27 -22l-2 -8c-64 -139 -192 -243 -296 -243c-59 0 -94 29 -94 89c0 39 14 87 41 144l28 59c-46 2 -106 9 -181 21l-82 -104c-149 -192 -293 -308 -440 -308c-105 0 -163 59 -163 146zM404 240l50 64
c-56 9 -99 14 -130 14c-250 4 -402 -159 -400 -273c0 -59 38 -98 103 -98c101 0 227 98 377 293zM747 326l157 337c-79 -28 -141 -89 -204 -168l-120 -154c71 -9 126 -14 167 -15z" />
    <glyph glyph-name="B.ss04" horiz-adv-x="704" 
d="M116 -76c0 11 4 22 12 31c3 3 6 4 9 4s7 -2 10 -5c23 -21 54 -32 93 -32c126 -3 224 123 221 230c0 89 -58 154 -174 154h-34l-74 -163c-48 -103 -114 -176 -195 -176c-31 0 -50 9 -58 27c-1 3 -2 5 -2 6c0 4 2 8 7 13c23 20 41 40 54 59c13 20 29 49 47 88l83 178
c40 83 65 187 65 276c0 15 0 27 -1 34v3c0 7 4 11 12 12l94 7h2c9 0 13 -5 13 -14l-4 -121c72 139 162 224 287 224c117 -1 178 -58 178 -139c3 -111 -128 -260 -318 -287c99 -35 149 -112 149 -201c3 -138 -130 -291 -324 -287c-99 0 -152 36 -152 79zM280 366h39
c171 -5 310 156 307 255c0 47 -28 77 -83 77c-46 0 -90 -31 -132 -92s-86 -141 -131 -240z" />
    <glyph glyph-name="C.ss04" horiz-adv-x="645" 
d="M-4 97c0 87 26 180 79 281s123 187 209 256s176 104 269 104c111 0 162 -53 162 -130c4 -117 -133 -286 -253 -280c-59 0 -87 36 -87 85c0 75 62 168 128 168c24 0 36 -14 37 -31v-2c0 -4 -4 -8 -12 -12c-21 -8 -40 -24 -56 -47s-24 -45 -24 -64c0 -24 12 -36 36 -36
c68 -5 163 128 160 210c0 48 -26 79 -86 79c-58 0 -118 -32 -180 -96c-61 -64 -113 -141 -154 -232s-62 -171 -62 -240c0 -93 41 -149 129 -149c152 -5 322 175 369 279c3 7 8 10 16 10c13 0 28 -10 28 -22c0 -1 -1 -4 -2 -8c-23 -47 -57 -98 -104 -151
c-46 -53 -102 -99 -169 -137c-66 -38 -137 -57 -213 -57c-148 0 -220 87 -220 222z" />
    <glyph glyph-name="F.ss04" horiz-adv-x="611" 
d="M28 500c-2 104 81 242 276 239c35 0 73 -4 112 -11s91 -17 154 -32l24 -5c54 -12 96 -21 127 -26s61 -8 89 -8c69 0 127 18 175 53c3 2 6 3 9 3c6 0 9 -3 10 -9c1 -3 1 -8 1 -15c0 -65 -77 -131 -194 -131c-35 0 -72 4 -113 13s-96 22 -167 41c-112 31 -183 48 -239 48
c-112 0 -169 -80 -169 -167c0 -35 7 -66 21 -92c1 -4 2 -6 2 -7c0 -6 -4 -10 -11 -11c-67 -5 -107 45 -107 117zM149 -36c0 49 19 113 56 194l70 149h-71c-11 0 -15 7 -11 16l15 34c3 7 8 11 17 11h81c63 116 125 178 216 194l5 1c6 0 10 -3 13 -9l1 -2c2 -3 3 -6 3 -9
c0 -4 -1 -7 -4 -10c-23 -29 -39 -62 -72 -137c-3 -7 -8 -16 -13 -28h134c11 0 15 -7 11 -16l-15 -34c-3 -7 -8 -11 -17 -11h-140l-91 -195c-25 -54 -41 -98 -49 -131c-8 -34 -13 -69 -14 -106c0 -9 -4 -14 -13 -14c-69 -4 -112 28 -112 103z" />
    <glyph glyph-name="H.ss04" horiz-adv-x="728" 
d="M395 -13c0 79 26 174 78 285l9 20h-173l-158 -339c-3 -6 -8 -10 -16 -11l-130 -10h-2c-11 0 -14 6 -9 15l161 345h-228c-11 0 -15 8 -10 17l21 39c3 7 8 10 16 10l230 -4l142 306c3 7 8 10 17 10h125c9 0 14 -7 10 -16l-141 -303l172 -2l145 311c3 7 8 10 17 10h125
c9 0 14 -7 10 -16l-143 -308l37 -1c11 0 15 -7 10 -16l-14 -27c-3 -7 -8 -10 -16 -10h-43l-24 -52c-41 -88 -62 -168 -62 -239c0 -48 9 -86 26 -113c2 -2 3 -4 3 -7c0 -5 -4 -10 -11 -14c-24 -14 -49 -21 -75 -21c-63 0 -99 52 -99 141z" />
    <glyph glyph-name="K.ss04" horiz-adv-x="781" 
d="M484 156c-11 37 -20 65 -27 83c-13 37 -33 64 -64 64h-8l-163 -350c-3 -6 -8 -10 -16 -11l-130 -10h-2c-11 0 -14 6 -9 15l265 569c24 51 47 85 86 110c-20 3 -45 11 -53 14c-43 12 -61 17 -93 17c-85 0 -134 -57 -134 -133c0 -30 7 -59 22 -88c1 -4 2 -6 2 -7
c0 -7 -4 -10 -11 -10c-68 -5 -109 46 -109 117c0 103 91 193 215 193c43 0 75 -10 124 -29c57 -20 86 -29 130 -29c13 0 27 1 41 3h4c5 0 8 -2 8 -5s-1 -6 -3 -9c-18 -25 -36 -57 -53 -97l-93 -199c35 3 67 16 98 37c31 22 59 47 83 75c25 29 54 66 88 113
c27 38 50 68 67 89c36 44 76 77 119 77c32 0 57 -16 66 -48c1 -1 1 -3 1 -5c0 -5 -3 -10 -9 -13c-33 -17 -62 -37 -85 -62s-51 -58 -84 -101c-29 -37 -54 -66 -75 -89c-41 -45 -102 -89 -179 -112c56 -29 83 -83 119 -187c29 -79 60 -143 93 -194s88 -95 165 -133
c77 -39 182 -60 316 -63h36c124 0 231 14 321 42s159 57 207 88c5 4 10 6 14 6s5 -2 4 -7c-31 -82 -218 -237 -592 -234h-39c-159 4 -285 33 -376 88c-91 54 -155 115 -192 183s-68 149 -95 242z" />
    <glyph glyph-name="L.ss04" horiz-adv-x="697" 
d="M332 14l-34 25c-63 -59 -134 -89 -213 -89c-85 0 -134 46 -134 103c0 62 60 124 164 124c36 0 77 -11 123 -32c13 25 28 57 46 98c-140 17 -207 98 -207 199c-2 120 105 254 234 251c28 0 48 -11 55 -23l1 -4c0 -5 -4 -9 -13 -10c-104 -5 -197 -122 -194 -216
c0 -73 48 -128 148 -140c49 122 105 225 168 310s130 128 203 128c67 0 99 -38 99 -99c3 -124 -149 -336 -334 -384c-33 -69 -66 -125 -101 -168l35 -21c90 -55 174 -100 251 -137c78 -37 177 -70 296 -98s256 -42 411 -42c141 0 259 14 352 41s164 55 213 86c6 4 10 6 13 6
c4 0 5 -5 4 -9c-11 -29 -40 -62 -85 -97c-89 -72 -273 -135 -549 -135c-157 0 -295 17 -415 51s-218 74 -295 119s-157 99 -242 163zM210 99c-38 21 -70 31 -97 31c-61 0 -101 -35 -101 -72c0 -29 25 -51 72 -51c44 0 86 31 126 92zM711 646c0 24 -9 39 -26 39
c-48 0 -97 -103 -188 -312l-20 -46c138 59 236 240 234 319z" />
    <glyph glyph-name="O.ss04" horiz-adv-x="739" 
d="M45 131c0 63 14 132 41 207c-69 36 -102 95 -102 155c0 69 48 133 108 133c12 0 15 -7 11 -18c-15 -31 -23 -62 -23 -93c0 -40 14 -73 41 -98c86 176 243 323 403 321c91 0 141 -39 150 -102c31 -36 47 -88 47 -156c0 -81 -21 -167 -62 -258s-97 -168 -168 -230
c-71 -63 -148 -94 -233 -94c-144 0 -213 93 -213 233zM603 451c-77 -88 -199 -148 -346 -148h-20c-28 -79 -42 -146 -42 -202c0 -76 28 -122 87 -122c46 0 92 25 137 74c46 50 86 112 119 186s55 145 65 212zM603 610c0 44 -23 74 -66 74c-44 0 -91 -30 -142 -91
c-50 -61 -94 -134 -131 -221c185 -3 343 113 339 238z" />
    <glyph glyph-name="P.ss04" horiz-adv-x="655" 
d="M-35 16l150 322c39 84 65 190 65 278c0 15 0 25 -1 32v3c0 7 4 11 12 12l94 7h2c9 0 13 -5 13 -14l-4 -124c73 136 170 227 286 227c99 -1 154 -68 154 -164c3 -167 -175 -391 -462 -385h-66l-92 -200c-3 -7 -8 -10 -17 -10h-124c-9 0 -14 7 -10 16zM230 258h3
c76 0 142 20 198 59c57 39 100 87 129 142c30 56 45 107 45 154c0 52 -21 85 -62 85c-43 0 -88 -35 -136 -105c-48 -69 -91 -147 -130 -234z" />
    <glyph glyph-name="R.ss04" horiz-adv-x="780" 
d="M494 156c-11 37 -20 64 -27 83c-13 37 -33 64 -64 64h-10l-163 -350c-3 -6 -8 -10 -16 -11l-130 -10h-2c-11 0 -14 6 -9 15l180 384c32 69 60 124 83 163c48 79 102 128 177 140l4 1c6 0 10 -3 13 -9l1 -1c1 -2 2 -5 2 -8c0 -5 -2 -9 -5 -12c-19 -21 -32 -52 -60 -124
c-13 -36 -30 -77 -49 -122h36c128 0 212 92 212 182c0 78 -63 145 -192 145c-163 4 -306 -131 -302 -261c0 -29 6 -57 19 -84c1 -4 2 -6 2 -7c0 -7 -4 -10 -11 -10c-74 -6 -112 61 -112 121c0 41 17 85 50 131s81 85 142 116c62 31 134 47 216 47c225 0 320 -103 320 -203
c0 -97 -90 -196 -274 -218c49 -32 72 -83 107 -180c29 -78 60 -142 93 -193s88 -96 165 -134c77 -39 182 -60 316 -63h36c124 0 231 14 321 42s159 57 207 88c3 3 7 4 12 4s7 -2 5 -7c-33 -83 -219 -236 -591 -233l-39 1c-159 4 -285 33 -376 88c-91 54 -156 115 -193 184
c-37 68 -68 148 -94 241z" />
    <glyph glyph-name="S.ss04" horiz-adv-x="732" 
d="M50 55c0 101 69 201 166 201c37 0 58 -24 58 -53c0 -36 -29 -70 -76 -70c-16 0 -29 5 -38 16c-21 -23 -34 -56 -34 -89c0 -68 44 -126 120 -126c102 0 206 96 206 297c0 23 -1 51 -3 83c-30 -5 -59 -8 -88 -8c-178 0 -258 90 -258 197c-3 114 99 238 231 235
c29 0 48 -10 55 -23l1 -4c0 -5 -4 -9 -13 -10c-103 -5 -194 -116 -192 -204c0 -79 58 -134 181 -134c27 0 53 3 80 8c-4 64 -6 104 -6 120c-3 182 125 267 215 266c68 0 116 -47 116 -122c0 -43 -15 -89 -44 -137s-70 -89 -121 -122c9 -57 14 -107 14 -148
c4 -224 -174 -369 -355 -367c-147 0 -215 93 -215 194zM708 638c0 35 -14 59 -42 59c-37 0 -83 -46 -83 -146c0 -25 4 -61 12 -109c71 57 113 137 113 196z" />
    <glyph glyph-name="T.ss04" horiz-adv-x="564" 
d="M28 500c-2 104 81 242 276 239c35 0 72 -4 111 -11s89 -17 150 -32l20 -5c53 -12 95 -21 126 -26s60 -8 88 -8c67 0 126 18 176 53c3 2 6 3 9 3c6 0 9 -3 10 -9c1 -3 1 -8 1 -15c0 -65 -77 -131 -194 -131c-35 0 -72 4 -112 13c-39 9 -93 22 -162 41
c-111 31 -179 48 -235 48c-112 0 -169 -80 -169 -167c0 -35 7 -66 21 -92c1 -4 2 -6 2 -7c0 -6 -4 -10 -11 -11c-67 -5 -107 45 -107 117zM136 -36c0 49 19 113 56 194l61 130c41 87 81 151 118 194c38 43 84 70 138 80l5 1c6 0 10 -3 13 -9l1 -2c2 -3 3 -6 3 -9
c0 -4 -1 -7 -4 -10c-23 -31 -40 -65 -75 -145l-46 -100l-81 -176c-25 -55 -41 -99 -50 -132c-8 -34 -13 -69 -14 -105c0 -9 -4 -14 -13 -14c-69 -4 -112 28 -112 103z" />
    <glyph glyph-name="Z.ss04" horiz-adv-x="599" 
d="M-144 -209c0 39 20 82 59 128s91 85 156 116c66 31 137 47 213 47c10 0 18 0 23 -1c1 5 1 13 1 24c0 84 -48 145 -152 161c-8 1 -12 4 -12 9c0 3 2 6 6 9l347 267c-29 4 -56 9 -82 15c-56 13 -98 19 -127 19c-40 0 -79 -9 -131 -44c-3 -2 -6 -3 -9 -3c-6 0 -9 3 -9 10
c-4 80 49 173 166 173c57 0 101 -20 164 -53c45 -24 70 -36 97 -36c22 0 47 11 74 32c3 3 7 5 11 5c3 0 5 -1 8 -4c9 -8 18 -25 18 -40s-7 -28 -21 -39l-344 -270c105 -27 158 -99 158 -194c0 -26 -3 -51 -10 -75c11 -6 18 -11 21 -14c5 -4 7 -9 7 -16
c0 -13 -11 -26 -23 -26c-3 0 -7 1 -10 3l-10 6c-59 -159 -236 -314 -429 -311c-107 0 -160 41 -160 102zM299 39c-5 1 -12 1 -21 1c-187 6 -352 -148 -348 -233c0 -33 25 -55 73 -55c120 -4 263 152 296 287z" />
    <glyph glyph-name="B.ss05" horiz-adv-x="815" 
d="M156 -11c-47 -33 -93 -49 -137 -49c-69 0 -108 35 -108 79c0 47 46 88 122 88c32 0 64 -10 96 -29c31 48 55 99 98 195l26 58l11 24c35 77 67 140 94 190c28 50 60 97 97 140c-153 -6 -286 -134 -282 -260c0 -29 6 -57 19 -84c1 -4 2 -6 2 -7c0 -7 -4 -10 -11 -10
c-73 -6 -112 61 -112 121c-3 122 163 299 409 294h27c49 43 98 72 147 87c1 1 4 1 7 1c5 0 9 -2 12 -7c1 -4 2 -7 2 -8c0 -5 -2 -8 -7 -11c-22 -15 -46 -40 -72 -73c137 -27 203 -106 203 -190c0 -89 -92 -189 -221 -217c89 -23 134 -84 134 -159
c3 -124 -137 -274 -324 -270c-103 0 -164 37 -232 97zM98 37c-22 17 -44 25 -66 25c-35 0 -58 -19 -58 -39c0 -17 16 -30 45 -30c27 0 53 15 79 44zM571 206c0 61 -34 102 -102 102c-9 0 -14 7 -10 16l4 10c3 7 7 11 10 11h6c111 0 188 94 188 187c0 64 -36 118 -107 142
c-45 -75 -79 -154 -126 -270l-30 -73c-57 -136 -129 -240 -205 -308c53 -45 90 -68 145 -68c123 -5 229 148 227 251z" />
    <glyph glyph-name="D.ss05" horiz-adv-x="840" 
d="M150 -15c-45 -30 -88 -45 -131 -45c-69 0 -108 35 -108 79c0 47 46 88 122 88c32 0 64 -10 95 -31c31 47 56 102 95 189l30 66l11 24c35 77 67 140 94 190c28 50 60 97 97 140c-155 -9 -285 -137 -282 -260c0 -29 6 -57 19 -84c1 -4 2 -6 2 -7c0 -7 -4 -10 -11 -10
c-74 -6 -112 61 -112 121c0 41 17 85 50 131c34 46 82 85 144 116c63 31 135 47 217 47c11 0 20 0 25 -1c48 43 97 73 147 88c1 1 4 1 7 1c5 0 9 -2 12 -7c1 -4 2 -7 2 -8c0 -5 -2 -8 -7 -11c-25 -18 -49 -43 -73 -75c148 -36 220 -151 220 -299c0 -81 -20 -164 -61 -247
s-96 -152 -166 -206c-70 -55 -146 -82 -229 -82c-95 0 -150 36 -209 93zM97 36c-23 17 -45 26 -65 26c-35 0 -58 -19 -58 -39c0 -17 16 -30 45 -30c27 0 53 14 78 43zM680 482c0 96 -37 166 -120 193c-23 -38 -44 -78 -63 -121c-19 -42 -40 -93 -65 -154
c-12 -31 -21 -54 -28 -69c-59 -140 -134 -246 -211 -313c44 -41 75 -63 122 -63c55 0 110 28 167 85s105 128 142 211s56 160 56 231z" />
    <glyph glyph-name="F.ss05" horiz-adv-x="655" 
d="M193 -36c0 49 19 113 56 194l70 149h-70c-11 0 -15 7 -11 16l14 34c3 7 8 11 17 11h79l15 33c35 75 80 141 136 197l-24 9c-89 36 -138 53 -193 53c-103 0 -159 -82 -159 -170c0 -33 7 -63 20 -89l2 -8c0 -6 -4 -9 -11 -10c-65 -5 -107 45 -107 117
c-2 103 87 243 269 239c67 0 124 -21 216 -62l52 -23c65 48 127 72 187 72c68 0 105 -31 105 -71c0 -50 -60 -104 -162 -104c-29 0 -61 4 -94 13c-33 -49 -67 -115 -100 -196h134c11 0 15 -7 11 -16l-15 -34c-3 -7 -8 -11 -17 -11h-141l-90 -195c-25 -54 -41 -98 -50 -132
c-8 -34 -13 -69 -14 -105c0 -9 -4 -14 -13 -14c-69 -4 -112 30 -112 103zM785 652c0 13 -15 25 -39 25c-31 0 -63 -17 -97 -51c22 -6 45 -9 68 -9c43 0 68 18 68 35z" />
    <glyph glyph-name="H.ss05" horiz-adv-x="802" 
d="M493 -218l-4 -1c-7 1 -11 6 -12 13l-1 39c0 155 29 308 87 460h-183l-158 -340c-3 -7 -8 -10 -17 -10h-124c-9 0 -14 7 -10 16l260 558c25 53 47 86 86 110c-20 3 -45 11 -53 14c-41 12 -61 17 -94 17c-84 0 -134 -57 -134 -133c0 -30 7 -59 22 -88c1 -4 2 -6 2 -7
c0 -7 -4 -10 -11 -10c-68 -5 -109 46 -109 117c0 103 93 193 216 193c41 0 70 -9 123 -28c57 -20 86 -29 131 -29c18 0 32 1 41 2h5c5 0 8 -2 8 -5c0 -1 -1 -4 -4 -9c-13 -18 -30 -50 -53 -97l-91 -195h179c110 245 292 423 428 420c72 0 108 -36 108 -80
c0 -31 -19 -59 -50 -67h-3c-8 0 -11 7 -10 16c4 33 -14 59 -49 59c-47 0 -101 -43 -163 -130c-61 -87 -114 -193 -159 -320c-44 -127 -66 -246 -66 -357c0 -29 1 -55 4 -77v-3c0 -7 -4 -11 -11 -13z" />
    <glyph glyph-name="K.ss05" horiz-adv-x="786" 
d="M467 133c-8 112 -12 164 -72 170h-10l-136 -293c-3 -7 -8 -10 -17 -10h-124c-9 0 -14 7 -10 16l232 500c25 53 47 86 86 110c-20 3 -45 11 -53 14c-43 12 -61 17 -93 17c-85 0 -134 -57 -134 -133c0 -30 7 -59 22 -88c1 -4 2 -6 2 -7c0 -7 -4 -10 -11 -10
c-68 -5 -109 46 -109 117c0 103 91 193 215 193c43 0 75 -10 124 -29c57 -20 86 -29 130 -29c13 0 27 1 41 3h4c5 0 8 -2 8 -5s-1 -6 -3 -9c-18 -25 -36 -57 -53 -97l-93 -199c31 3 62 13 91 30c60 35 105 81 178 164c54 59 101 108 142 145c81 75 195 135 335 135
c171 0 266 -93 266 -176c0 -41 -25 -75 -69 -87h-4c-8 0 -11 6 -10 14c1 5 1 13 1 22c0 100 -81 150 -197 150c-53 0 -100 -10 -143 -30c-42 -19 -79 -44 -112 -73c-32 -29 -71 -68 -116 -117c-50 -55 -94 -99 -133 -132c-38 -33 -81 -58 -130 -76c25 -9 44 -24 57 -44
c27 -40 32 -82 39 -157c4 -43 9 -77 14 -102c12 -49 44 -89 115 -94c11 -1 16 -4 15 -8c-9 -28 -62 -59 -119 -59c-46 0 -81 13 -104 38c-47 51 -54 115 -62 226z" />
    <glyph glyph-name="O.ss05" horiz-adv-x="696" 
d="M8 123c0 65 14 133 43 206s70 138 121 195s108 97 170 120c13 55 75 95 159 95c104 0 167 -72 178 -189c37 3 75 9 115 17l162 37c87 21 159 36 217 47s113 16 165 16c172 0 302 -79 320 -159l1 -4c0 -5 -3 -8 -10 -8c-4 0 -7 1 -9 2c-71 39 -186 55 -297 55
c-48 0 -101 -3 -158 -9s-132 -15 -224 -26l-52 -6c-81 -11 -171 -20 -228 -23c-4 -85 -27 -174 -70 -267c-42 -92 -98 -169 -169 -231s-148 -93 -232 -93c-136 0 -202 90 -202 225zM554 485c-101 5 -167 30 -196 75c-110 -96 -206 -326 -203 -457c0 -75 26 -120 82 -120
c45 0 89 27 133 80c45 53 83 119 116 198s56 153 68 224zM561 566c0 73 -24 109 -73 109c-37 0 -68 -25 -68 -56c0 -37 43 -70 140 -74c1 5 1 12 1 21z" />
    <glyph glyph-name="R.ss05" horiz-adv-x="789" 
d="M471 154c-1 35 -2 61 -5 80c-5 39 -23 69 -64 69h-13l-133 -292c-3 -7 -8 -11 -17 -11h-124c-9 0 -14 7 -10 16l147 315c88 188 166 309 263 353c-16 1 -29 2 -40 2c-163 4 -306 -131 -302 -261c0 -29 6 -57 19 -84c1 -4 2 -6 2 -7c0 -7 -4 -10 -11 -10
c-74 -6 -112 61 -112 121c0 41 17 85 50 131s81 85 142 116c62 31 134 47 216 47c225 0 320 -103 320 -203c0 -92 -83 -187 -250 -215c20 -12 35 -28 45 -47c20 -39 23 -74 24 -133c3 -61 7 -89 35 -89c36 0 87 53 151 188c3 7 8 10 17 10c12 0 27 -10 27 -22
c0 -1 -1 -4 -2 -8c-84 -179 -163 -260 -260 -260c-35 0 -60 9 -77 28c-33 36 -37 83 -38 166zM415 359h40c128 0 212 92 212 182c0 55 -30 102 -89 127c-36 -25 -68 -94 -133 -241z" />
    <glyph glyph-name="S.ss05" horiz-adv-x="685" 
d="M-41 72c-2 120 87 246 217 243c81 0 119 -50 119 -111c0 -55 -30 -102 -70 -102c-9 0 -20 7 -24 16c-1 1 -1 3 -1 5c0 3 2 7 7 12c19 19 29 47 29 72c0 36 -22 61 -63 61c-94 0 -156 -97 -156 -193c0 -92 54 -165 158 -165c127 -3 226 117 224 238c0 47 -12 90 -39 181
l-30 109c-6 26 -9 51 -9 75c-3 144 127 237 257 235c120 0 178 -78 178 -162c0 -75 -52 -145 -128 -145c-55 0 -82 35 -82 79c0 43 27 82 60 82c14 0 23 -7 27 -20v-3c0 -5 -3 -9 -10 -14c-13 -8 -22 -25 -22 -42c0 -20 12 -34 35 -34c36 0 62 42 62 91
c0 65 -36 117 -109 117c-87 0 -125 -75 -125 -142c0 -36 13 -79 44 -164c37 -105 59 -174 59 -237c4 -158 -169 -315 -361 -311c-167 0 -247 108 -247 229z" />
    <glyph glyph-name="T.ss05" horiz-adv-x="623" 
d="M193 -36c0 49 19 113 56 194l114 243c35 75 80 141 136 197l-24 9c-89 36 -138 53 -193 53c-103 0 -159 -82 -159 -170c0 -33 7 -63 20 -89l2 -8c0 -6 -4 -9 -11 -10c-65 -5 -107 45 -107 117c-2 103 87 243 269 239c67 0 124 -21 216 -62l52 -23c65 48 127 72 187 72
c68 0 105 -31 105 -71c0 -50 -60 -104 -162 -104c-29 0 -61 4 -94 13c-36 -53 -63 -101 -81 -146c-17 -45 -27 -68 -28 -71l-109 -235c-25 -54 -41 -98 -50 -132c-8 -34 -13 -69 -14 -105c0 -9 -4 -14 -13 -14c-69 -4 -112 30 -112 103zM785 652c0 13 -15 25 -39 25
c-31 0 -63 -17 -97 -51c22 -6 45 -9 68 -9c43 0 68 18 68 35z" />
    <glyph glyph-name="B.ss06" horiz-adv-x="792" 
d="M219 -4l-29 10c-35 -23 -72 -34 -109 -34c-47 0 -72 20 -72 45c0 33 42 68 107 68c6 0 16 -1 29 -2c15 27 35 73 62 140c16 42 31 78 45 108c88 188 165 309 264 353c-17 1 -31 2 -40 2c-163 4 -307 -131 -303 -261c0 -29 6 -57 19 -84c1 -4 2 -6 2 -7
c0 -7 -4 -10 -11 -10c-74 -6 -112 61 -112 121c0 41 17 85 50 131s81 85 142 116c62 31 134 47 216 47c224 0 320 -101 320 -200c0 -89 -76 -170 -220 -199c85 -25 130 -81 130 -146c3 -110 -133 -233 -333 -230c-65 0 -104 11 -157 32zM566 212c0 55 -41 94 -121 94h-52
c-47 -107 -92 -192 -149 -253c41 -16 71 -25 110 -25c118 -3 215 104 212 184zM419 366h41c126 0 208 90 208 178c0 53 -30 100 -90 124c-19 -13 -39 -41 -60 -82s-48 -103 -83 -184z" />
    <glyph glyph-name="D.ss06" horiz-adv-x="811" 
d="M214 -5c-11 5 -19 9 -25 11c-35 -23 -71 -34 -108 -34c-47 0 -72 19 -72 46c0 33 42 68 107 68c7 0 17 -1 29 -2c17 31 39 80 64 145c19 47 33 81 43 102c87 185 157 302 245 355h-16c-167 4 -312 -131 -308 -261c0 -29 6 -57 19 -84c1 -4 2 -6 2 -7c0 -7 -4 -10 -11 -10
c-74 -6 -112 61 -112 121c0 41 17 85 50 131c34 46 82 85 144 116c63 31 135 47 217 47c223 0 324 -127 324 -287c0 -75 -20 -150 -60 -226s-95 -139 -165 -188s-147 -74 -232 -74c-59 0 -88 11 -135 31zM675 497c0 84 -33 147 -104 174c-17 -18 -36 -47 -55 -86
s-44 -96 -76 -171l-36 -83c-53 -123 -98 -212 -161 -279c29 -12 55 -18 78 -18c55 0 110 25 165 74c55 50 101 111 136 184s53 142 53 205z" />
    <glyph glyph-name="H.ss06" horiz-adv-x="921" 
d="M-129 -8c-3 132 172 257 361 314l98 210c25 53 47 86 86 110c-20 3 -45 11 -53 14c-43 12 -61 17 -93 17c-85 0 -134 -57 -134 -133c0 -30 7 -59 22 -88c1 -4 2 -6 2 -7c0 -7 -4 -10 -11 -10c-68 -5 -109 46 -109 117c0 103 91 193 215 193c43 0 75 -10 124 -29
c57 -20 86 -29 130 -29c13 0 27 1 41 3h4c5 0 8 -2 8 -5s-1 -6 -3 -9c-18 -25 -36 -57 -53 -97l-101 -217l191 37l21 45c41 87 87 161 139 224c53 63 114 94 184 94c67 0 101 -33 101 -86c2 -93 -117 -240 -303 -304l-58 -124c-34 -73 -51 -136 -51 -189c0 -36 8 -66 24 -89
c2 -3 3 -6 3 -8c0 -5 -2 -8 -7 -11c-31 -18 -57 -27 -78 -27c-63 0 -98 41 -98 118c0 63 22 142 67 238l24 51l-190 -36l-47 -102c-39 -85 -85 -158 -137 -219c-51 -61 -114 -92 -187 -92c-81 0 -132 46 -132 126zM148 126l52 112c-147 -54 -266 -153 -266 -238
c0 -47 28 -71 60 -71c20 0 39 10 57 29c36 39 60 85 97 168zM983 654c0 24 -12 39 -35 39c-18 0 -35 -9 -51 -27s-31 -40 -44 -66s-33 -66 -58 -121l-22 -48c135 59 210 163 210 223z" />
    <glyph glyph-name="K.ss06" horiz-adv-x="780" 
d="M461 154c-1 33 -2 60 -5 79c-4 40 -23 70 -63 70h-8l-136 -293c-3 -7 -8 -10 -17 -10h-124c-9 0 -14 7 -10 16l232 500c25 53 47 86 86 110c-20 3 -45 11 -53 14c-43 12 -61 17 -93 17c-85 0 -134 -57 -134 -133c0 -30 7 -59 22 -88c1 -4 2 -6 2 -7c0 -7 -4 -10 -11 -10
c-68 -5 -109 46 -109 117c0 103 91 193 215 193c43 0 75 -10 124 -29c57 -20 86 -29 130 -29c13 0 27 1 41 3h4c5 0 8 -2 8 -5s-1 -6 -3 -9c-18 -25 -36 -57 -53 -97l-93 -200c53 5 102 35 155 96l178 203c5 5 11 8 17 8h96c8 0 12 -3 12 -8c0 -3 -1 -6 -4 -9l-225 -236
c-37 -40 -78 -69 -123 -86c26 -10 45 -25 58 -46c27 -40 31 -80 32 -144c1 -61 6 -89 34 -89c36 0 89 55 152 188c3 7 8 10 17 10c12 0 27 -10 27 -22c0 -1 -1 -4 -2 -8c-85 -179 -165 -260 -261 -260c-35 0 -60 9 -77 27c-32 36 -37 83 -38 167z" />
    <glyph glyph-name="L.ss06" horiz-adv-x="601" 
d="M275 -76l-39 34c-22 19 -44 35 -66 50c-37 -18 -77 -27 -120 -27c-51 0 -79 25 -79 54c0 32 34 61 90 61c23 0 43 -2 62 -7c18 19 34 41 47 66c14 25 31 61 52 108c3 7 7 18 14 33c39 85 76 159 112 220c37 62 80 114 130 157c51 43 107 65 168 65c50 0 88 -14 113 -42
c26 -27 39 -60 39 -97c0 -31 -9 -59 -26 -83c-17 -23 -38 -35 -65 -35c-35 0 -52 20 -52 48c0 32 23 64 59 73c1 3 1 8 1 14c0 39 -23 69 -63 69c-27 0 -54 -14 -79 -42c-25 -27 -48 -62 -69 -105c-21 -42 -48 -100 -80 -173l-27 -62c-48 -112 -99 -198 -164 -254
c16 -8 34 -18 54 -30l44 -24c50 -30 92 -52 125 -67c34 -15 68 -22 103 -22c29 0 50 5 75 17c3 1 6 2 10 2c5 0 7 -2 7 -5c-6 -57 -59 -122 -148 -122c-37 0 -73 11 -106 32s-74 52 -122 94z" />
    <glyph glyph-name="R.ss06" horiz-adv-x="658" 
d="M348 120c-9 106 -13 157 -73 163h-33l-126 -273c-3 -7 -8 -10 -17 -10h-124c-9 0 -14 7 -10 16l150 322c39 84 65 190 65 278c0 15 0 25 -1 32v3c0 7 4 11 12 12l94 7h2c9 0 13 -5 13 -14l-4 -121c73 140 163 224 292 224c108 -1 164 -58 164 -139
c3 -125 -139 -293 -345 -313c21 -10 36 -24 47 -43c23 -37 27 -75 34 -142c4 -41 9 -73 15 -97c12 -47 44 -86 113 -90c12 -1 17 -4 16 -7c-8 -26 -58 -60 -119 -60c-46 0 -81 12 -104 36c-47 48 -54 111 -61 216zM270 343h41c57 0 109 15 156 46s85 69 112 114
s41 85 41 121c0 45 -23 74 -71 74c-35 0 -68 -16 -100 -48c-63 -63 -111 -154 -172 -291z" />
    <glyph glyph-name="A.ss07" horiz-adv-x="710" 
d="M22 156c0 81 24 168 71 261s112 172 194 236c83 65 174 97 274 97c130 0 187 -66 187 -137c0 -60 -43 -111 -104 -111c-33 0 -55 9 -68 26c-1 1 -2 4 -2 7c0 5 3 9 8 12c31 20 58 60 58 92c0 31 -23 52 -75 52c-67 0 -130 -30 -189 -90c-58 -60 -104 -132 -139 -216
s-52 -158 -52 -222c0 -69 23 -111 70 -111c68 0 128 83 235 316l28 59c3 7 8 10 16 10h125c9 0 14 -7 10 -16l-109 -235c-17 -36 -25 -65 -25 -87c0 -19 8 -30 21 -30c40 0 121 70 169 171c3 7 8 10 17 10c12 0 27 -10 27 -22c0 -1 -1 -4 -2 -8
c-66 -139 -192 -243 -297 -243c-59 0 -93 29 -93 88c0 7 0 13 1 17c-61 -79 -124 -116 -197 -116c-105 0 -159 75 -159 190z" />
    <glyph glyph-name="B.ss07" horiz-adv-x="814" 
d="M-49 50c0 112 107 228 279 240l19 41c33 70 61 125 84 164c48 79 100 127 176 139l4 1c6 0 10 -3 13 -9l1 -1c1 -2 2 -5 2 -8c0 -5 -2 -9 -5 -12c-19 -21 -33 -55 -61 -127c-14 -37 -29 -75 -45 -112h38c126 0 208 90 208 178c0 76 -63 142 -192 142
c-138 0 -299 -94 -296 -261l1 -20c0 -11 -6 -16 -18 -16c-49 0 -76 40 -76 87c-4 106 151 268 392 263c224 0 320 -101 320 -200c0 -91 -78 -172 -226 -201c88 -29 138 -100 138 -181c3 -147 -167 -316 -466 -312c-193 0 -290 96 -290 205zM578 173c0 77 -49 133 -137 133
h-50l-16 -34c49 -20 77 -54 77 -91c0 -21 -7 -40 -22 -57c-3 -3 -6 -5 -10 -5c-5 0 -8 3 -10 9c-15 39 -36 66 -64 81l-18 -39c-48 -103 -114 -176 -195 -176c-29 0 -49 9 -58 27c-1 3 -2 5 -2 6c0 5 2 9 7 12c23 20 40 40 53 59s29 49 48 89l19 40
c-111 -18 -180 -96 -180 -175s70 -148 209 -148c221 -4 351 148 349 269z" />
    <glyph glyph-name="D.ss07" horiz-adv-x="834" 
d="M-60 58c-3 130 123 273 311 275c31 68 59 122 82 161c48 80 102 128 177 140l4 1c5 0 10 -3 13 -9l1 -1c2 -3 3 -6 3 -9s-2 -6 -5 -11c-20 -23 -34 -56 -62 -128c-24 -61 -44 -110 -61 -146l-11 -24c40 -20 62 -52 62 -84c0 -20 -8 -39 -23 -56c-3 -4 -6 -6 -9 -6
c-5 0 -8 3 -10 10c-13 32 -29 56 -50 71l-25 -56c-45 -103 -114 -176 -195 -176c-29 0 -49 9 -58 27c-1 3 -2 5 -2 6c0 5 2 9 7 12c23 19 40 39 53 58c13 20 29 50 48 90l33 70c-130 -12 -212 -116 -212 -215c0 -88 65 -154 186 -154c83 0 162 30 235 91
c74 61 133 136 177 225s66 173 66 252c0 129 -65 214 -198 214c-141 1 -307 -96 -301 -266v-2c0 -9 -6 -14 -17 -14c-47 0 -73 38 -73 82c-3 107 156 257 384 253c228 0 338 -140 338 -320c0 -88 -25 -177 -74 -266s-119 -163 -210 -221c-90 -58 -193 -87 -310 -87
c-184 0 -274 97 -274 213z" />
    <glyph glyph-name="S.ss08" horiz-adv-x="635" 
d="M-39 80c0 127 93 215 185 215c45 0 73 -26 73 -61s-27 -64 -68 -64c-25 0 -44 15 -48 36c-40 -24 -67 -66 -67 -122c0 -85 64 -150 146 -150c88 0 173 68 173 231c0 21 -1 50 -3 86c0 13 -1 34 -2 63c-4 79 -6 128 -6 148c-3 206 145 309 280 307c111 0 196 -67 196 -173
c0 -63 -35 -102 -83 -102c-35 0 -53 20 -53 48c0 32 23 65 58 73c0 47 -45 79 -104 79c-75 0 -151 -55 -151 -172c0 -35 9 -105 18 -170c9 -68 19 -145 19 -185c0 -181 -141 -306 -322 -306c-153 0 -241 93 -241 219z" />
    <glyph glyph-name="D.ss09" horiz-adv-x="855" 
d="M171 52c0 37 10 77 29 119l6 12c-103 27 -156 101 -156 194c-4 164 177 367 443 362c232 0 339 -137 339 -311c0 -82 -21 -165 -63 -248s-100 -152 -173 -206c-73 -55 -153 -82 -241 -82c-120 0 -184 65 -184 160zM700 481c0 124 -62 205 -199 205
c-189 6 -350 -181 -346 -309c0 -57 29 -101 86 -118l34 72c32 69 60 123 84 162c48 80 102 129 177 141l4 1c6 0 10 -3 13 -9l1 -1c1 -2 2 -5 2 -8c0 -4 -2 -8 -5 -11c-19 -21 -35 -56 -60 -124c-20 -53 -41 -104 -63 -151l-31 -67c23 6 52 15 87 28c1 1 3 1 6 1
c7 0 11 -4 11 -13c0 -49 -59 -87 -143 -100l-29 -63c-19 -40 -28 -73 -28 -99c0 -33 16 -50 48 -50c53 0 106 28 161 83s100 123 136 204s54 157 54 226z" />
    <glyph glyph-name="C.ss11" horiz-adv-x="613" 
d="M1 105c0 88 26 183 79 286s123 190 209 261c87 71 177 106 270 106c91 0 144 -44 157 -103c37 -1 76 -4 115 -9c40 -4 93 -10 159 -18c141 -19 243 -29 338 -29c113 0 229 18 301 54l8 2c7 0 9 -4 7 -12c-16 -76 -145 -144 -321 -144c-51 0 -101 4 -152 12
c-50 9 -113 22 -189 39l-37 8c-59 12 -105 21 -136 26s-63 9 -96 11c-12 -37 -41 -64 -81 -64c-35 0 -52 20 -52 48c0 31 21 62 54 71c-3 28 -28 48 -71 48c-57 0 -117 -33 -179 -98c-61 -65 -113 -144 -154 -237c-41 -92 -62 -174 -62 -245c0 -97 43 -157 136 -157
c125 -5 274 172 324 279c3 7 8 10 17 10c12 0 27 -10 27 -22c0 -1 -1 -4 -2 -8c-23 -49 -56 -99 -98 -152s-93 -98 -153 -136c-59 -38 -123 -57 -191 -57c-153 0 -227 91 -227 230z" />
    <glyph glyph-name="E.ss11" horiz-adv-x="566" 
d="M-51 60c-2 118 106 260 291 304c-43 32 -65 80 -65 132c-3 123 127 265 313 262c99 0 156 -43 172 -103c55 -1 136 -9 245 -23l34 -4c141 -19 243 -29 338 -29c57 0 112 4 166 13s99 23 134 41l8 2c7 0 9 -4 8 -12c-16 -76 -145 -144 -321 -144c-51 0 -101 4 -151 12
c-50 9 -114 22 -191 39c-63 14 -114 24 -153 31s-77 12 -116 14c-11 -37 -40 -64 -80 -64c-35 0 -52 20 -52 47c0 31 22 63 57 72c-8 28 -35 49 -84 49c-113 4 -206 -122 -204 -218c0 -45 17 -79 50 -101c20 1 36 2 47 2c40 0 62 -14 62 -30s-23 -32 -59 -32
c-33 0 -62 4 -88 11c-120 -38 -197 -151 -197 -246c0 -73 45 -124 129 -124c47 0 94 16 140 48c47 33 87 71 122 114s60 82 77 117c3 7 8 10 17 10c12 0 27 -10 27 -22c0 -1 -1 -4 -2 -8c-22 -46 -54 -96 -97 -149c-42 -53 -94 -98 -156 -137c-61 -39 -128 -59 -201 -59
c-143 0 -220 83 -220 185z" />
    <glyph glyph-name="F.ss11" horiz-adv-x="611" 
d="M-171 6c-6 155 217 344 471 353c60 120 124 218 203 261c-100 27 -162 40 -211 40c-112 0 -169 -80 -169 -167c0 -35 7 -66 21 -92c1 -4 2 -6 2 -7c0 -6 -4 -10 -11 -11c-67 -5 -107 45 -107 117c-2 104 81 242 276 239c35 0 73 -4 112 -11s91 -17 154 -32l24 -5
c54 -12 96 -21 127 -26s61 -8 89 -8c69 0 127 18 175 53c3 2 6 3 9 3c6 0 9 -3 10 -9c1 -3 1 -8 1 -15c0 -65 -77 -131 -194 -131c-61 0 -131 15 -240 43c-23 -28 -44 -74 -87 -170c-2 -6 -11 -27 -28 -63c101 3 152 -12 152 -44c0 -12 -7 -28 -18 -37c-5 -4 -12 -5 -19 -3
c-27 9 -75 16 -144 21l-71 -149c-39 -83 -89 -151 -150 -205s-132 -81 -213 -81c-109 0 -164 56 -164 136zM223 202l50 102c-202 -22 -385 -177 -380 -293c0 -47 28 -79 76 -79c91 0 169 99 254 270z" />
    <glyph glyph-name="G.ss11" horiz-adv-x="718" 
d="M-68 -241c0 99 137 171 410 191l69 148c-67 -72 -137 -107 -218 -107c-120 0 -176 67 -176 174c0 77 26 163 79 257s123 174 208 239c86 65 176 98 269 98c95 0 150 -44 163 -104c73 -3 178 -15 274 -27c144 -19 244 -29 339 -29c113 0 228 17 300 54l8 2c7 0 9 -4 8 -12
c-16 -76 -144 -144 -322 -144c-51 0 -101 4 -150 12c-49 9 -113 22 -191 39l-34 7c-55 12 -99 21 -133 26c-34 6 -68 10 -101 12c-12 -37 -41 -64 -81 -64c-35 0 -53 20 -53 48c0 31 22 61 55 72c-4 27 -30 48 -71 48c-61 0 -123 -30 -186 -90c-63 -59 -116 -130 -158 -213
s-63 -154 -63 -213c0 -67 29 -107 92 -107c39 0 79 21 120 62c41 42 88 114 142 217c3 7 8 11 16 11h115c9 0 14 -7 10 -16l-170 -366c93 40 172 131 231 256c3 7 8 10 17 10c12 0 27 -10 27 -22c0 -1 -1 -4 -2 -8c-77 -163 -187 -267 -307 -299
c-45 -76 -100 -141 -164 -194c-63 -53 -133 -80 -209 -80c-45 0 -84 10 -115 30c-32 20 -48 47 -48 82zM318 -97c-166 -9 -319 -69 -316 -139c0 -37 40 -55 83 -55c45 0 87 19 127 57c41 38 76 84 106 137z" />
    <glyph glyph-name="M.ss11" horiz-adv-x="1080" 
d="M744 -9c0 79 28 172 83 281l100 197c24 46 36 83 36 110c0 25 -11 37 -32 37c-32 0 -72 -29 -119 -88s-91 -130 -131 -215l-142 -303c-3 -7 -8 -10 -16 -10h-125c-9 0 -14 7 -10 16l213 459c18 38 27 68 27 91c0 25 -11 39 -31 39c-64 4 -187 -163 -263 -326l-125 -269
c-3 -7 -8 -10 -17 -10h-125c-9 0 -14 7 -10 16l213 457c25 51 37 93 37 125c0 39 -18 58 -55 58c-83 0 -138 -90 -138 -180c0 -32 6 -61 19 -86l2 -8c0 -6 -4 -9 -11 -10c-64 -5 -107 44 -107 115c-3 101 117 236 239 232c95 0 153 -67 153 -170c0 -13 -1 -26 -3 -39
c93 147 181 217 277 217c65 0 98 -32 98 -96c0 -25 -4 -51 -11 -78c85 116 168 174 249 174c68 0 110 -39 110 -111c0 -46 -16 -100 -48 -161l-112 -215c-44 -86 -66 -165 -66 -236c0 -48 9 -87 27 -116c2 -2 3 -5 3 -8c0 -5 -3 -9 -10 -13c-25 -14 -51 -21 -76 -21
c-63 0 -103 54 -103 145z" />
    <glyph glyph-name="N.ss11" horiz-adv-x="768" 
d="M432 -9c0 76 26 172 82 281l101 197c20 39 30 72 30 98c0 29 -15 46 -39 46c-64 3 -181 -139 -255 -300l-142 -303c-3 -7 -8 -10 -16 -10h-126c-9 0 -14 7 -10 16l213 457c25 51 37 93 37 125c0 39 -18 58 -55 58c-83 0 -138 -90 -138 -180c0 -32 6 -61 19 -86l2 -8
c0 -6 -4 -9 -11 -10c-64 -5 -107 44 -107 115c-3 101 117 236 239 232c95 0 153 -68 153 -171c0 -9 -1 -25 -4 -46c99 150 194 225 286 225c72 0 124 -46 124 -123c0 -40 -13 -84 -38 -132l-120 -232c-44 -86 -66 -165 -66 -236c0 -48 9 -87 27 -116c2 -2 3 -4 3 -7
c0 -5 -4 -10 -11 -14c-24 -14 -49 -21 -75 -21c-64 0 -103 54 -103 145z" />
    <glyph glyph-name="S.ss11" horiz-adv-x="597" 
d="M-55 51c0 103 72 205 171 205c37 0 57 -22 57 -53c0 -36 -29 -70 -76 -70c-16 0 -29 5 -38 16c-24 -23 -37 -57 -37 -93c0 -67 43 -122 119 -122c99 0 173 94 173 209c0 53 -13 101 -41 193c-24 79 -37 128 -37 176c-4 137 133 249 251 247c89 0 142 -44 158 -103
c54 -2 142 -10 264 -24l52 -6c167 -21 288 -35 391 -35c59 0 116 5 171 14s101 24 136 43l8 2c7 0 9 -4 8 -12c-16 -80 -151 -161 -329 -161c-53 0 -109 5 -166 15s-133 26 -227 47c-75 17 -135 30 -180 39s-87 15 -128 18c-11 -37 -38 -64 -77 -64c-35 0 -53 20 -53 48
s19 58 50 70c-5 28 -34 49 -74 49c-68 0 -112 -80 -112 -144c0 -36 13 -79 44 -163c39 -109 59 -175 59 -240c4 -152 -143 -294 -322 -291c-147 0 -215 89 -215 190z" />
    <glyph glyph-name="C.ss13" horiz-adv-x="613" 
d="M1 105c0 88 26 183 79 286s123 190 209 261c87 71 177 106 270 106c87 0 139 -31 156 -82c43 -1 137 -8 283 -21l36 -3c283 -25 482 -38 597 -38c75 0 147 5 217 16s124 27 162 48l8 2c7 0 9 -4 8 -12c-18 -78 -190 -163 -408 -161c-65 0 -138 5 -218 15s-178 25 -294 44
c-173 29 -290 47 -383 50c-7 -104 -118 -235 -227 -231c-57 0 -88 33 -88 81c0 78 85 180 228 204c-15 19 -40 28 -73 28c-57 0 -117 -33 -179 -98c-61 -65 -113 -144 -154 -237c-41 -92 -62 -174 -62 -245c0 -97 43 -157 136 -157c125 -5 274 172 324 279c3 7 8 10 17 10
c12 0 27 -10 27 -22c0 -1 -1 -4 -2 -8c-23 -49 -56 -99 -98 -152s-93 -98 -153 -136c-59 -38 -123 -57 -191 -57c-153 0 -227 91 -227 230zM653 615c-109 -12 -174 -80 -174 -127c0 -23 15 -38 42 -38c62 0 130 93 132 165z" />
    <glyph glyph-name="E.ss13" horiz-adv-x="566" 
d="M-51 60c-2 118 106 258 291 304c-44 32 -66 80 -66 133c-3 121 128 265 314 261c91 0 146 -31 170 -82c33 -1 88 -4 165 -10l140 -10l55 -4c325 -25 547 -38 664 -38c76 0 149 5 219 16c71 11 125 27 163 48l8 2c7 0 9 -4 8 -12c-18 -78 -190 -163 -410 -161
c-65 0 -142 5 -231 15c-88 11 -199 26 -332 46l-260 36c-67 9 -126 14 -177 16c2 -86 -72 -178 -161 -178c-52 0 -89 40 -89 91c0 63 55 122 162 138c-19 19 -45 28 -80 28c-113 4 -207 -122 -205 -218c0 -43 17 -78 50 -101c20 1 36 2 48 2c40 0 62 -14 62 -30
s-23 -32 -59 -32c-33 0 -62 4 -88 11c-120 -38 -197 -151 -197 -246c0 -73 45 -124 129 -124c47 0 94 16 140 48c47 33 87 71 122 114s60 82 77 117c3 7 8 10 17 10c12 0 27 -10 27 -22c0 -1 -1 -4 -2 -8c-21 -45 -53 -95 -96 -148c-42 -53 -94 -99 -156 -138
s-129 -59 -202 -59c-143 0 -220 83 -220 185zM607 605c0 7 0 12 -1 15c-84 -4 -126 -42 -126 -82c0 -24 17 -43 40 -43c24 0 44 11 61 34s26 48 26 76z" />
    <glyph glyph-name="G.ss13" horiz-adv-x="718" 
d="M-68 -241c0 99 137 171 410 191l69 148c-67 -72 -137 -107 -218 -107c-120 0 -176 67 -176 174c0 77 26 163 79 257s123 174 208 239c86 65 176 98 269 98c88 0 143 -32 163 -83c49 -1 130 -6 243 -16c46 -3 79 -5 98 -7c292 -24 494 -39 633 -39c75 0 148 6 218 17
c71 11 125 27 164 47l8 2c7 0 9 -4 8 -12c-22 -80 -187 -161 -411 -161c-65 0 -139 5 -222 15c-83 11 -187 26 -314 46c-102 16 -184 28 -247 36c-63 9 -119 14 -168 16c-2 -86 -76 -178 -164 -178c-51 0 -85 41 -85 90c0 63 56 124 167 140c-19 18 -46 27 -80 27
c-61 0 -123 -30 -186 -90c-63 -59 -116 -130 -158 -213s-63 -154 -63 -213c0 -67 29 -107 92 -107c39 0 79 21 120 62c41 42 88 114 142 217c3 7 8 11 16 11h115c9 0 14 -7 10 -16l-170 -366c93 40 172 131 231 256c3 7 8 10 17 10c12 0 27 -10 27 -22c0 -1 -1 -4 -2 -8
c-77 -163 -187 -267 -307 -299c-45 -76 -100 -141 -164 -194c-63 -53 -133 -80 -209 -80c-45 0 -84 10 -115 30c-32 20 -48 47 -48 82zM318 -97c-166 -9 -319 -69 -316 -139c0 -37 40 -55 83 -55c45 0 87 19 127 57c41 38 76 84 106 137zM686 612v9
c-87 -4 -129 -44 -129 -84c0 -23 15 -41 36 -41c49 0 93 60 93 116z" />
    <glyph glyph-name="M.ss13" horiz-adv-x="938" 
d="M602 -9c0 79 28 172 83 281l100 197c24 46 36 83 36 110c0 25 -11 37 -32 37c-32 0 -72 -29 -119 -88s-91 -130 -131 -215l-142 -303c-3 -7 -8 -10 -16 -10h-125c-9 0 -14 7 -10 16l221 476c21 45 32 80 32 105c0 23 -10 35 -29 35c-68 4 -194 -170 -270 -337l-133 -285
c-3 -7 -8 -10 -17 -10h-124c-9 0 -14 7 -10 16l154 332c53 113 86 206 106 303c1 8 6 12 15 12h94c9 0 13 -6 12 -15l-29 -127c93 149 182 222 279 222c66 0 99 -32 99 -97c0 -23 -5 -53 -14 -88c84 113 166 169 246 169c67 0 109 -39 109 -110c0 -47 -16 -101 -48 -162
l-112 -215c-44 -85 -66 -164 -66 -235c0 -47 9 -86 28 -117c1 -3 2 -5 2 -7c0 -5 -3 -10 -10 -14c-25 -14 -51 -21 -76 -21c-63 0 -103 54 -103 145z" />
    <glyph glyph-name="N.ss13" horiz-adv-x="626" 
d="M290 -9c0 76 26 172 82 281l101 197c20 39 30 72 30 98c0 29 -15 46 -39 46c-64 3 -181 -139 -255 -300l-142 -303c-3 -7 -8 -10 -16 -10h-125c-9 0 -14 7 -10 16l154 332c53 113 86 206 106 303c1 8 6 12 15 12h94c9 0 13 -6 12 -15l-33 -143c99 148 194 222 285 222
c72 0 124 -46 124 -123c0 -40 -13 -84 -38 -132l-120 -232c-44 -86 -66 -165 -66 -236c0 -48 9 -87 27 -116c2 -2 3 -5 3 -8c0 -5 -3 -9 -10 -13c-25 -14 -51 -21 -76 -21c-64 0 -103 54 -103 145z" />
    <glyph glyph-name="S.ss13" horiz-adv-x="597" 
d="M-55 51c0 103 72 205 171 205c37 0 57 -22 57 -53c0 -36 -29 -70 -76 -70c-16 0 -29 5 -38 16c-24 -23 -37 -57 -37 -93c0 -67 43 -122 119 -122c99 0 173 94 173 209c0 53 -13 101 -41 193c-24 79 -37 128 -37 176c-4 137 133 249 251 247c87 0 141 -32 165 -83
c33 -1 86 -4 158 -10c73 -5 116 -9 130 -10c9 -1 22 -3 41 -4c293 -25 497 -38 613 -38c75 0 148 5 218 16c71 11 125 27 163 48l8 2c7 0 9 -4 8 -12c-18 -78 -190 -163 -410 -161c-65 0 -138 5 -219 15c-80 11 -180 26 -299 46c-97 16 -176 28 -237 36
c-60 9 -114 14 -163 16c2 -80 -59 -161 -134 -161c-51 0 -83 38 -83 83c0 53 43 107 126 127c-18 20 -43 30 -74 30c-75 0 -119 -80 -119 -144c0 -36 13 -79 44 -163c39 -109 59 -175 59 -240c4 -152 -143 -294 -322 -291c-147 0 -215 89 -215 190zM594 602c0 8 0 14 -1 17
c-61 -7 -93 -38 -93 -70c0 -20 15 -36 35 -36c33 0 59 42 59 89z" />
    <glyph glyph-name="B.ss15" horiz-adv-x="815" 
d="M1016 -156c-91 18 -167 32 -226 43c-59 10 -115 18 -170 25c-77 -93 -195 -156 -332 -156c-97 0 -156 38 -156 87c0 64 107 132 314 132c14 0 38 -1 73 -2c35 53 54 112 54 164c0 81 -49 136 -152 136h-42l-62 -135c-49 -104 -115 -176 -195 -176c-31 0 -50 9 -58 27
c-1 3 -2 5 -2 6c0 4 2 8 7 13c23 20 41 40 54 59c13 20 29 49 47 88l82 176c32 69 60 123 84 162c48 80 102 129 177 141l4 1c6 0 10 -3 13 -9l1 -1c1 -2 2 -5 2 -8c0 -4 -2 -8 -5 -11c-10 -11 -19 -26 -27 -43s-19 -44 -34 -82c-24 -61 -44 -110 -61 -147h44
c124 -3 216 108 214 202c0 85 -64 150 -188 150c-163 4 -307 -131 -303 -261c0 -29 6 -57 19 -84c1 -4 2 -6 2 -7c0 -7 -4 -10 -11 -10c-74 -6 -112 61 -112 121c0 41 17 85 50 131s81 85 142 116c62 31 134 47 216 47c225 0 320 -101 320 -201c0 -91 -84 -193 -240 -230
c95 -27 143 -98 143 -186c0 -52 -16 -105 -47 -159c74 -8 179 -21 314 -39c165 -22 305 -39 420 -50s229 -17 340 -17c81 0 158 4 229 13c72 9 129 22 170 39c3 1 6 2 9 2c7 0 9 -3 7 -10c-22 -83 -170 -151 -432 -151c-100 0 -204 8 -313 25c-108 16 -236 39 -383 69z
M481 -76c-10 1 -25 1 -45 1c-158 0 -229 -36 -229 -70c0 -20 25 -36 64 -36c79 0 153 41 210 105z" />
    <glyph glyph-name="C.ss15" horiz-adv-x="575" 
d="M23 143c0 91 23 183 70 276s109 169 185 229c77 60 156 90 238 90c107 0 158 -64 158 -128c0 -55 -34 -100 -85 -100c-35 0 -53 20 -53 48c0 31 22 61 55 72c-3 27 -27 48 -66 48c-47 0 -99 -29 -154 -88s-102 -132 -141 -220c-38 -87 -57 -171 -57 -251
c0 -93 30 -169 89 -226c60 -58 155 -87 286 -87c57 0 124 5 199 15c75 9 177 24 304 45c128 21 234 37 318 48s158 16 223 16c216 0 338 -76 356 -161v-3c0 -9 -8 -13 -17 -8c-43 21 -95 37 -157 48c-61 11 -121 17 -179 17c-131 0 -305 -15 -561 -40l-23 -2
c-225 -24 -368 -38 -465 -38c-370 0 -523 178 -523 400z" />
    <glyph glyph-name="D.ss15" horiz-adv-x="857" 
d="M1016 -156c-176 34 -311 57 -404 68c-95 -97 -210 -156 -334 -156c-99 0 -148 36 -148 85c0 67 101 134 297 134c15 0 42 -1 79 -2c52 67 94 144 127 232s49 170 49 245c0 143 -65 236 -201 236c-167 4 -312 -131 -308 -261c0 -29 6 -57 19 -84c1 -4 2 -6 2 -7
c0 -7 -4 -10 -11 -10c-74 -6 -112 61 -112 121c0 41 17 85 50 131c34 46 82 85 144 116c63 31 135 47 217 47c232 0 337 -146 337 -337c0 -73 -15 -149 -44 -228c-29 -78 -68 -149 -119 -213c67 -6 172 -18 313 -37c165 -22 305 -39 420 -50s229 -17 340 -17
c81 0 158 4 229 13c72 9 129 22 170 39c3 1 6 2 9 2c6 0 8 -3 7 -9c-22 -84 -167 -152 -432 -152c-100 0 -204 8 -313 25c-108 16 -236 39 -383 69zM463 -76c-11 1 -26 1 -47 1c-147 0 -211 -36 -211 -72c0 -20 17 -34 58 -34c67 0 137 38 200 105zM64 -11c-1 3 -2 5 -2 6
c0 4 2 8 7 13c23 20 41 40 54 59c13 20 29 49 47 88l82 176c32 69 60 123 84 162c48 80 102 129 177 141l4 1c6 0 10 -3 13 -9l1 -1c1 -2 2 -5 2 -8c0 -4 -2 -8 -5 -11c-19 -21 -35 -56 -60 -124c-20 -53 -41 -104 -63 -151l-88 -193c-49 -104 -115 -176 -195 -176
c-31 0 -50 9 -58 27z" />
    <glyph glyph-name="E.ss15" horiz-adv-x="546" 
d="M-39 76c0 121 97 242 266 286c-49 33 -76 84 -76 139c-2 114 116 240 296 237c133 0 193 -69 193 -137c0 -49 -34 -91 -82 -91c-35 0 -53 20 -53 48c0 31 22 63 57 72c-9 28 -41 49 -100 49c-108 0 -187 -100 -187 -190c0 -45 19 -86 59 -109c24 1 43 2 56 2
c40 0 62 -14 62 -30c0 -17 -23 -32 -59 -32c-34 0 -65 4 -93 11c-121 -36 -196 -142 -196 -252c0 -143 127 -273 398 -273c58 0 126 5 203 15c78 10 182 25 313 45c132 21 241 37 327 48s161 16 226 16c218 0 338 -75 356 -160l1 -4c0 -7 -3 -10 -10 -10l-8 2
c-42 21 -94 37 -156 48c-61 11 -121 17 -179 17c-131 0 -306 -15 -570 -40c-6 0 -14 -1 -25 -2c-236 -24 -383 -38 -480 -38c-352 -4 -542 166 -539 333z" />
    <glyph glyph-name="G.ss15" horiz-adv-x="670" 
d="M-69 -194c0 46 29 86 88 120s159 53 302 58l60 129c-58 -59 -122 -88 -193 -88c-108 0 -160 64 -160 165c0 71 23 150 70 237s108 161 184 221c77 60 157 90 241 90c118 0 175 -69 175 -135c0 -51 -33 -93 -82 -93c-35 0 -53 20 -53 48c0 29 21 60 52 71
c-7 28 -37 49 -80 49c-53 0 -106 -27 -160 -82c-53 -55 -98 -120 -133 -196s-53 -141 -53 -195c0 -59 24 -95 75 -95c33 0 67 18 104 54c37 37 79 100 126 191c3 7 8 11 16 11h116c9 0 14 -7 10 -16l-172 -369c51 -3 105 -7 164 -14s132 -17 220 -30l51 -7
c159 -23 295 -40 409 -52c115 -13 227 -19 338 -19c80 0 156 4 228 12s129 21 170 38l8 2c7 0 10 -5 7 -13c-26 -81 -175 -146 -428 -146c-99 0 -199 8 -301 25c-102 16 -230 40 -385 72c-122 26 -220 46 -293 59s-144 21 -212 24c-39 -74 -84 -133 -136 -178
s-116 -68 -192 -68c-51 0 -93 10 -128 31s-53 50 -53 89zM298 -65c-115 -6 -194 -21 -235 -45s-62 -50 -62 -79c0 -41 35 -63 86 -63c97 0 160 75 211 187z" />
    <glyph glyph-name="H.ss15" horiz-adv-x="795" 
d="M1827 -177c-103 0 -306 -11 -610 -34l-87 -6c-183 -13 -298 -20 -343 -20c-203 0 -330 98 -330 248c0 50 13 102 39 157l58 125h-174l-158 -340c-3 -6 -8 -10 -16 -11l-130 -10h-2c-11 0 -14 6 -9 15l266 570c24 52 47 86 86 110c-20 3 -45 11 -53 14
c-41 12 -61 17 -94 17c-84 0 -134 -57 -134 -133c0 -30 7 -59 22 -88c1 -4 2 -6 2 -7c0 -7 -4 -10 -11 -10c-68 -5 -109 46 -109 117c0 103 93 193 216 193c41 0 70 -9 123 -28c57 -20 86 -29 131 -29c18 0 32 1 41 2h5c5 0 8 -2 8 -5c0 -1 -1 -4 -4 -9
c-13 -18 -30 -50 -53 -97l-91 -195h174l135 291c3 7 8 10 17 10h125c9 0 14 -7 10 -16l-238 -511c-27 -57 -40 -108 -40 -153c0 -100 68 -163 224 -163c63 0 166 12 358 37l50 6c154 20 278 35 372 45s173 15 238 15c221 0 349 -74 369 -160l1 -4c0 -7 -3 -10 -10 -10l-8 2
c-85 43 -217 65 -366 65z" />
    <glyph glyph-name="M.ss15" horiz-adv-x="967" 
d="M2000 -177c-103 0 -307 -11 -611 -34l-87 -6c-183 -13 -298 -20 -343 -20c-203 0 -330 98 -330 248c0 50 13 102 39 157l164 353l-405 -549c-4 -6 -10 -9 -17 -9h-58c-9 0 -14 5 -13 15l67 525l-156 -313c-47 -94 -94 -171 -140 -231c-45 -60 -88 -90 -127 -90
c-31 0 -54 19 -61 60l-1 4c0 7 4 11 11 13c41 14 84 49 130 104c47 56 89 119 126 190l139 265l21 41c24 48 36 70 53 90c-5 1 -16 3 -32 8c-31 8 -66 15 -98 15c-84 0 -134 -57 -134 -133c0 -30 7 -59 21 -87c1 -2 2 -5 2 -8c0 -6 -3 -9 -10 -9c-68 -5 -109 46 -109 117
c0 102 92 192 216 192c43 0 77 -10 134 -29c51 -17 83 -27 119 -27c11 0 24 1 38 3h2c9 0 13 -5 11 -14c-3 -16 -5 -32 -7 -49l-4 -36l-49 -384l362 467c3 5 9 8 17 8h159c9 0 14 -7 10 -16l-238 -511c-27 -59 -40 -110 -40 -153c0 -100 68 -163 224 -163
c63 0 166 12 358 37l50 6c154 20 278 35 372 45s174 15 239 15c220 0 348 -74 368 -160l1 -4c0 -7 -3 -10 -10 -10l-8 2c-85 43 -216 65 -365 65z" />
    <glyph glyph-name="N.ss15" horiz-adv-x="804" 
d="M-78 -71l-1 4c0 7 4 11 11 13c41 14 84 49 130 104c47 56 89 119 126 190l139 265l18 35c25 51 36 73 55 94c-17 4 -30 7 -38 10c-39 11 -59 16 -91 16c-84 0 -134 -57 -134 -133c0 -30 7 -59 22 -88c1 -4 2 -6 2 -7c0 -7 -4 -10 -11 -10c-68 -5 -109 46 -109 117
c0 103 93 193 216 193c44 0 77 -11 128 -31c47 -17 71 -26 104 -26c16 0 28 1 37 3h3c9 0 12 -4 10 -13c-1 -7 -2 -17 -2 -31c0 -16 3 -43 3 -54l24 -382l104 234c43 97 98 173 165 230s153 86 257 86c81 0 204 -16 412 -48c231 -36 385 -56 496 -56c53 0 106 4 161 13
s101 22 136 41l8 2c7 0 9 -4 8 -12c-13 -74 -157 -146 -320 -144c-117 0 -279 29 -524 78l-60 11c-88 17 -157 29 -207 37s-90 12 -121 12c-151 0 -258 -103 -349 -300l-196 -423c-3 -7 -8 -11 -15 -12l-58 -11c-1 0 -3 -1 -4 0c-7 0 -11 4 -12 12l-40 553l-155 -311
c-47 -94 -94 -171 -140 -231c-45 -60 -88 -90 -127 -90c-31 0 -54 19 -61 60z" />
    <glyph glyph-name="S.ss15" horiz-adv-x="581" 
d="M522 -129l-51 18l-90 31c-39 -58 -90 -104 -152 -139s-127 -53 -196 -53c-132 0 -183 74 -183 142c0 83 79 155 248 155c49 0 102 -6 159 -17c12 37 18 77 18 118c0 33 -3 64 -10 94c-6 31 -15 70 -28 118c-11 43 -20 77 -25 100c-5 24 -7 48 -7 72
c-4 140 130 230 250 228c109 0 162 -68 162 -135c0 -51 -31 -92 -80 -92c-35 0 -53 20 -53 48s20 58 49 70c-4 28 -33 49 -74 49c-33 0 -60 -12 -81 -37c-20 -25 -30 -54 -30 -87c0 -37 14 -81 42 -161c39 -108 61 -179 61 -255c0 -57 -13 -113 -40 -166l94 -26
c106 -29 200 -53 283 -72c165 -39 391 -70 644 -70c85 0 164 4 238 12c75 8 133 21 175 38c5 2 9 3 11 3c5 0 6 -2 5 -6c-18 -87 -176 -154 -476 -154c-114 0 -222 8 -323 25s-191 37 -268 60s-167 52 -272 89zM238 -41c-51 11 -99 16 -142 16c-123 0 -181 -44 -181 -101
c0 -47 37 -82 100 -82c88 0 175 66 223 167z" />
    <glyph glyph-name="U.ss15" horiz-adv-x="754" 
d="M1787 -177c-102 0 -306 -11 -611 -34l-91 -6c-181 -13 -293 -20 -338 -20c-203 0 -328 95 -328 248c0 29 4 58 13 89c-67 -83 -133 -124 -198 -124c-68 0 -112 41 -112 117c0 48 17 105 50 172l111 220c23 45 35 84 35 117c0 41 -20 66 -61 66c-81 0 -142 -97 -142 -191
c0 -31 6 -59 19 -84c1 -2 2 -5 2 -9c0 -5 -3 -8 -10 -9c-65 -5 -108 44 -108 115c-3 102 117 245 250 240c96 0 177 -68 177 -173c0 -43 -13 -90 -39 -140l-91 -177c-20 -39 -30 -72 -30 -97c0 -31 14 -46 38 -46c55 0 145 100 248 319l114 244c3 7 8 10 16 10h126
c9 0 14 -7 10 -16l-238 -511c-27 -57 -40 -108 -40 -153c0 -100 68 -163 224 -163c63 0 174 13 362 37l46 6l21 3c149 19 269 33 359 43c90 9 167 14 230 14c221 0 349 -74 369 -160l1 -4c0 -7 -3 -10 -10 -10l-8 2c-87 43 -217 65 -366 65z" />
    <glyph glyph-name="V.ss15" horiz-adv-x="684" 
d="M176 29c0 41 8 98 24 171l66 284l8 39c8 36 15 73 15 94c0 33 -13 51 -49 51c-80 0 -141 -97 -141 -192c0 -30 6 -58 18 -83c1 -2 2 -5 2 -9c0 -5 -3 -8 -10 -9c-64 -5 -107 44 -107 115c-3 102 117 245 250 240c104 0 159 -61 159 -177c0 -31 -4 -67 -12 -106l-59 -270
c-5 -21 -10 -42 -13 -62l235 326c47 65 91 119 131 160c80 83 190 140 342 140c40 0 87 -3 142 -10c55 -6 139 -17 252 -32l28 -4c219 -32 366 -51 473 -51c53 0 106 4 161 13s101 22 136 41l8 2c7 0 9 -4 8 -12c-13 -74 -158 -146 -321 -144c-51 0 -111 5 -179 14
c-68 10 -163 25 -285 46l-28 5c-109 19 -195 34 -258 43c-62 9 -113 14 -154 14c-52 0 -98 -9 -138 -28c-40 -18 -79 -46 -117 -84s-84 -92 -139 -163l-354 -462c-3 -5 -9 -8 -18 -8c-52 4 -76 36 -76 108z" />
    <glyph glyph-name="W.ss15" horiz-adv-x="1005" 
d="M178 38c0 39 8 93 23 162l65 284l6 27c12 51 18 86 18 105c0 35 -14 52 -50 52c-83 0 -140 -96 -140 -191c0 -31 6 -59 18 -84l2 -8c0 -6 -4 -9 -11 -10c-64 -5 -107 44 -107 115c-3 102 117 245 250 240c103 0 160 -61 160 -177c0 -27 -4 -63 -13 -106l-59 -270l-8 -39
l316 523c4 6 10 9 17 9h117c9 0 13 -6 12 -15l-84 -501l175 287c113 182 238 297 473 300c40 0 87 -3 142 -10c55 -6 139 -17 252 -32l28 -4c219 -32 366 -51 473 -51c52 0 105 4 160 13s100 22 136 41l8 2c7 0 9 -4 8 -12c-14 -75 -156 -144 -320 -144
c-53 0 -115 5 -187 15c-72 11 -163 26 -273 45c-6 1 -17 2 -32 5c-109 19 -195 34 -258 43c-62 9 -113 14 -154 14c-163 -2 -256 -66 -395 -275l-297 -461c-3 -6 -9 -9 -17 -9c-52 4 -74 39 -74 116c0 39 6 93 17 163l47 280l-336 -550c-4 -6 -10 -9 -17 -9
c-61 3 -91 38 -91 117z" />
    <glyph glyph-name="Y.ss15" horiz-adv-x="735" 
d="M-19 -199c0 81 103 171 389 183l58 125c-56 -61 -111 -87 -170 -87c-68 0 -111 42 -111 118c0 48 16 105 49 171l87 174c23 45 34 85 34 118c0 40 -20 65 -60 65c-81 0 -141 -97 -141 -192c0 -31 6 -59 18 -83c1 -2 2 -5 2 -9c0 -5 -3 -8 -10 -9c-65 -5 -108 44 -108 115
c-3 102 117 245 250 240c96 0 177 -67 177 -172c0 -44 -13 -91 -39 -141l-67 -131c-20 -39 -30 -72 -30 -97c0 -29 15 -46 38 -46c53 0 125 69 217 257l121 260c3 7 8 10 17 10h124c9 0 14 -7 10 -16l-313 -673c51 -3 105 -7 164 -14s132 -17 220 -30l51 -7
c159 -23 295 -40 409 -52c115 -13 227 -19 338 -19c80 0 156 4 228 12s129 21 170 38l8 2c7 0 10 -5 7 -13c-26 -81 -175 -146 -428 -146c-99 0 -199 8 -301 25c-102 16 -230 40 -385 72c-121 25 -219 45 -293 58s-145 22 -213 25c-89 -164 -201 -246 -336 -246
c-51 0 -94 11 -129 32s-52 49 -52 83zM347 -66c-224 -14 -297 -79 -297 -129c0 -36 41 -57 89 -57c84 0 153 62 208 186z" />
    <glyph glyph-name="B.ss16" horiz-adv-x="815" 
d="M1254 -163l-21 3l-42 6l-246 32c-130 17 -238 29 -324 36c-77 -95 -194 -158 -333 -158c-97 0 -156 38 -156 87c0 64 107 132 314 132c11 0 36 -1 73 -2c35 53 54 112 54 164c0 81 -49 136 -152 136h-42l-62 -135c-49 -104 -115 -176 -195 -176c-31 0 -50 9 -58 27
c-1 3 -2 5 -2 6c0 4 2 8 7 13c23 20 41 40 54 59c13 20 29 49 47 88l82 176c32 69 60 123 84 162c48 80 102 129 177 141l4 1c6 0 10 -3 13 -9l1 -1c1 -2 2 -5 2 -8c0 -4 -2 -8 -5 -11c-10 -11 -19 -26 -27 -43s-19 -44 -34 -82c-24 -61 -44 -110 -61 -147h44
c124 -3 216 108 214 202c0 85 -64 150 -188 150c-163 4 -307 -131 -303 -261c0 -29 6 -57 19 -84c1 -4 2 -6 2 -7c0 -7 -4 -10 -11 -10c-74 -6 -112 61 -112 121c0 41 17 85 50 131s81 85 142 116c62 31 134 47 216 47c225 0 320 -101 320 -201c0 -91 -84 -193 -240 -230
c95 -27 143 -98 143 -186c0 -52 -15 -104 -46 -156c148 -11 286 -23 397 -32l107 -9c314 -27 581 -48 800 -63s413 -23 580 -23c129 0 246 5 349 16c104 11 180 25 228 44c4 2 7 3 9 3c4 0 6 -2 6 -7l-2 -8c-35 -84 -253 -172 -613 -170c-148 0 -320 10 -515 31
c-195 20 -445 50 -748 89zM481 -76c-11 1 -26 1 -45 1c-158 0 -229 -36 -229 -70c0 -20 25 -36 64 -36c79 0 153 41 210 105z" />
    <glyph glyph-name="C.ss16" horiz-adv-x="566" 
d="M29 158c0 90 23 180 68 270c46 91 106 165 180 223s151 87 230 87c108 0 159 -64 159 -128c0 -55 -35 -100 -86 -100c-35 0 -53 20 -53 48c0 31 22 61 55 72c-3 27 -27 48 -66 48c-45 0 -95 -28 -148 -84c-53 -55 -97 -125 -134 -210c-36 -84 -54 -166 -54 -246
c0 -103 35 -187 105 -252s182 -97 337 -97c197 0 402 7 615 21c213 13 472 33 778 59l45 4c203 18 369 32 496 41s233 14 318 14c337 2 550 -96 568 -184v-3c0 -6 -3 -9 -9 -9c-4 0 -7 1 -9 2c-44 21 -114 39 -209 52s-205 20 -330 20s-258 -3 -400 -8s-327 -14 -554 -25
l-63 -3l-44 -2c-257 -13 -478 -24 -665 -31s-366 -11 -539 -11c-418 0 -591 194 -591 432z" />
    <glyph glyph-name="D.ss16" horiz-adv-x="857" 
d="M1213 -160l-36 5l-310 40c-101 13 -186 22 -253 28c-95 -99 -212 -157 -336 -157c-99 0 -148 36 -148 85c0 67 101 134 297 134c13 0 39 -1 79 -2c52 67 94 145 127 233s49 169 49 244c0 143 -65 236 -201 236c-167 4 -312 -131 -308 -261c0 -29 6 -57 19 -84
c1 -4 2 -6 2 -7c0 -7 -4 -10 -11 -10c-74 -6 -112 61 -112 121c0 41 17 85 50 131c34 46 82 85 144 116c63 31 135 47 217 47c232 0 337 -146 337 -337c0 -73 -14 -149 -43 -227c-28 -77 -67 -148 -118 -211c109 -7 270 -20 483 -39c314 -27 581 -48 800 -63
s413 -23 580 -23c129 0 246 5 349 16c104 11 180 25 227 44c4 2 7 3 9 3c5 0 7 -5 6 -10c-27 -86 -247 -177 -614 -175c-150 0 -325 11 -524 32s-453 51 -761 91zM463 -76c-11 1 -27 1 -47 1c-147 0 -211 -36 -211 -72c0 -20 17 -34 58 -34c67 0 137 38 200 105zM64 -11
c-1 3 -2 5 -2 6c0 4 2 8 7 13c23 20 41 40 54 59c13 20 29 49 47 88l82 176c32 69 60 123 84 162c48 80 102 129 177 141l4 1c6 0 10 -3 13 -9l1 -1c1 -2 2 -5 2 -8c0 -4 -2 -8 -5 -11c-19 -21 -35 -56 -60 -124c-20 -53 -41 -104 -63 -151l-88 -193
c-49 -104 -115 -176 -195 -176c-31 0 -50 9 -58 27z" />
    <glyph glyph-name="E.ss16" horiz-adv-x="547" 
d="M-38 68c0 127 95 248 266 294c-51 33 -77 83 -77 139c-2 114 117 240 297 237c132 0 192 -69 192 -137c0 -51 -33 -91 -82 -91c-35 0 -52 20 -52 48c0 31 23 63 56 72c-9 29 -40 49 -99 49c-109 0 -188 -100 -188 -190c0 -45 20 -86 60 -109c24 1 43 2 56 2
c40 0 62 -14 62 -30c0 -17 -23 -32 -59 -32c-34 0 -65 4 -93 11c-120 -38 -197 -148 -197 -260c-2 -146 129 -285 399 -282c167 0 337 7 512 20s389 31 641 56l39 4c195 20 352 35 469 45c118 9 221 14 308 14c339 2 552 -96 568 -184v-3c0 -6 -3 -9 -9 -9c-4 0 -7 1 -9 2
c-44 21 -113 39 -208 52s-205 20 -331 20c-127 0 -253 -3 -379 -8l-527 -27c-13 -1 -33 -3 -61 -4l-37 -2c-207 -13 -386 -22 -537 -29s-298 -10 -441 -10c-354 -3 -542 170 -539 342z" />
    <glyph glyph-name="G.ss16" horiz-adv-x="670" 
d="M-69 -194c0 46 29 86 88 120s159 53 302 58l60 129c-58 -59 -122 -88 -193 -88c-108 0 -160 64 -160 165c0 71 23 150 70 237s108 161 184 221c77 60 157 90 241 90c118 0 175 -69 175 -135c0 -51 -33 -93 -82 -93c-35 0 -53 20 -53 48c0 29 21 60 52 71
c-7 28 -37 49 -80 49c-53 0 -106 -27 -160 -82c-53 -55 -98 -120 -133 -196s-53 -141 -53 -195c0 -59 24 -95 75 -95c33 0 67 18 104 54c37 37 79 100 126 191c3 7 8 11 16 11h116c9 0 14 -7 10 -16l-172 -369c93 -4 271 -18 532 -43l102 -9c297 -28 553 -50 766 -66
c214 -16 405 -24 572 -24c130 0 247 5 350 16c104 11 180 25 227 44c4 1 6 2 7 2c7 0 10 -5 7 -13c-34 -84 -252 -172 -614 -171c-146 0 -314 11 -504 32c-189 21 -425 52 -707 91l-34 5l-25 3c-183 26 -329 46 -437 59c-107 13 -196 21 -267 24c-39 -73 -85 -132 -137 -177
c-51 -45 -115 -68 -190 -68c-51 0 -93 10 -128 31s-53 50 -53 89zM298 -65c-115 -6 -194 -21 -235 -45s-62 -50 -62 -79c0 -41 35 -63 86 -63c97 0 160 75 211 187z" />
    <glyph glyph-name="H.ss16" horiz-adv-x="795" 
d="M451 -9c0 54 15 113 45 177l58 125h-174l-158 -340c-3 -6 -8 -10 -16 -11l-130 -10h-2c-11 0 -14 6 -9 15l266 570c24 52 47 86 86 110c-20 3 -45 11 -53 14c-41 12 -61 17 -94 17c-84 0 -134 -57 -134 -133c0 -30 7 -59 22 -88c1 -4 2 -6 2 -7c0 -7 -4 -10 -11 -10
c-68 -5 -109 46 -109 117c0 103 93 193 216 193c41 0 70 -9 123 -28c57 -20 86 -29 131 -29c18 0 32 1 41 2h5c5 0 8 -2 8 -5c0 -1 -1 -4 -4 -9c-13 -18 -30 -50 -53 -97l-91 -195h174l135 291c3 7 8 10 17 10h125c9 0 14 -7 10 -16l-238 -511c-30 -65 -45 -121 -45 -168
c0 -124 99 -186 296 -186c120 0 329 21 661 60c217 25 399 45 545 59c147 13 271 20 372 20c337 2 550 -96 568 -184v-3c0 -6 -3 -9 -9 -9c-4 0 -7 1 -9 2c-44 21 -114 39 -209 52s-205 20 -330 20c-323 0 -682 -21 -1113 -52l-42 -3c-235 -17 -385 -25 -451 -25
c-285 0 -422 102 -422 265z" />
    <glyph glyph-name="M.ss16" horiz-adv-x="967" 
d="M623 -9c0 54 15 113 45 177l164 353l-405 -549c-4 -6 -10 -9 -17 -9h-58c-9 0 -14 5 -13 15l67 525l-156 -313c-47 -94 -94 -171 -140 -231c-45 -60 -88 -90 -127 -90c-31 0 -54 19 -61 60l-1 4c0 7 4 11 11 13c41 14 84 49 130 104c47 56 89 119 126 190l139 265l21 41
c24 48 36 70 53 90c-5 1 -16 3 -32 8c-31 8 -66 15 -98 15c-84 0 -134 -57 -134 -133c0 -30 7 -59 21 -87c1 -2 2 -5 2 -8c0 -6 -3 -9 -10 -9c-68 -5 -109 46 -109 117c0 102 92 192 216 192c43 0 77 -10 134 -29c51 -17 83 -27 119 -27c11 0 24 1 38 3h2c9 0 13 -5 11 -14
c-3 -16 -5 -32 -7 -49l-4 -36l-49 -384l362 467c3 5 9 8 17 8h159c9 0 14 -7 10 -16l-238 -511c-30 -65 -45 -121 -45 -168c0 -124 99 -186 296 -186c121 0 328 21 661 60c219 25 402 45 547 59c146 13 269 20 370 20c339 2 552 -96 568 -184v-3c0 -6 -3 -9 -9 -9
c-4 0 -7 1 -9 2c-44 21 -113 39 -208 52s-205 20 -331 20c-323 0 -684 -21 -1113 -52l-42 -3c-235 -17 -385 -25 -451 -25c-284 0 -422 102 -422 265z" />
    <glyph glyph-name="N.ss16" horiz-adv-x="804" 
d="M-78 -71l-1 4c0 7 4 11 11 13c41 14 84 49 130 104c47 56 89 119 126 190l139 265l18 35c25 51 36 73 55 94c-17 4 -30 7 -38 10c-39 11 -59 16 -91 16c-84 0 -134 -57 -134 -133c0 -30 7 -59 22 -88c1 -4 2 -6 2 -7c0 -7 -4 -10 -11 -10c-68 -5 -109 46 -109 117
c0 103 93 193 216 193c44 0 77 -11 128 -31c47 -17 71 -26 104 -26c16 0 28 1 37 3h3c9 0 12 -4 10 -13c-1 -7 -2 -17 -2 -31c0 -16 3 -43 3 -54l24 -382l104 234c46 102 103 180 170 234c67 55 157 82 269 82c75 0 178 -10 357 -33c191 -21 360 -38 508 -51
c149 -12 306 -18 473 -18c251 0 441 26 528 69c4 1 6 2 7 2c7 0 10 -4 9 -11c-12 -84 -216 -168 -554 -167c-105 0 -223 7 -354 22s-287 36 -468 63l-24 3l-23 3c-121 17 -218 30 -289 39s-127 13 -169 13c-185 0 -279 -86 -378 -300l-196 -423c-3 -7 -8 -11 -15 -12
l-58 -11c-1 0 -3 -1 -4 0c-7 0 -11 4 -12 12l-40 553l-155 -311c-47 -94 -94 -171 -140 -231c-45 -60 -88 -90 -127 -90c-31 0 -54 19 -61 60z" />
    <glyph glyph-name="S.ss16" horiz-adv-x="582" 
d="M558 -115c-35 9 -85 22 -148 37l-24 6c-39 -60 -89 -108 -152 -145s-129 -55 -200 -55c-133 0 -184 73 -184 142c0 83 78 155 250 155c39 0 91 -5 158 -15c11 37 17 76 17 116c0 33 -3 64 -10 94c-6 31 -15 70 -28 118c-11 43 -20 77 -25 100c-5 24 -7 48 -7 72
c-3 140 130 230 251 228c108 0 161 -68 161 -135c0 -51 -31 -92 -80 -92c-35 0 -53 20 -53 48c0 29 20 58 49 70c-4 28 -33 49 -74 49c-33 0 -60 -12 -81 -37c-20 -25 -30 -54 -30 -87c0 -37 15 -85 43 -161c39 -112 60 -180 60 -255c0 -52 -12 -104 -35 -156l24 -5
c25 -6 48 -11 69 -14c157 -32 303 -59 438 -81s296 -41 483 -58s389 -25 606 -25c325 0 555 25 662 66c5 2 9 3 11 3c5 0 7 -3 6 -7c-9 -31 -38 -61 -89 -88c-101 -56 -317 -96 -656 -96c-183 0 -359 10 -528 31c-168 21 -316 45 -445 73s-275 63 -439 104zM238 -40
c-59 10 -106 15 -141 15c-124 0 -182 -44 -182 -101c0 -47 38 -82 101 -82c43 0 85 15 126 46s73 71 96 122z" />
    <glyph glyph-name="U.ss16" horiz-adv-x="754" 
d="M413 -9c0 33 6 69 17 107c-67 -81 -132 -122 -196 -122c-68 0 -112 41 -112 117c0 48 17 105 50 172l111 220c23 45 35 84 35 117c0 41 -20 66 -61 66c-81 0 -142 -97 -142 -191c0 -31 6 -59 19 -84c1 -2 2 -5 2 -9c0 -5 -3 -8 -10 -9c-65 -5 -108 44 -108 115
c-3 102 117 245 250 240c96 0 177 -68 177 -173c0 -43 -13 -90 -39 -140l-91 -177c-20 -39 -30 -72 -30 -97c0 -31 14 -46 38 -46c55 0 145 100 248 319l114 244c3 7 8 10 16 10h126c9 0 14 -7 10 -16l-238 -511c-30 -65 -45 -121 -45 -168c0 -124 99 -186 296 -186
c120 0 325 21 661 60c218 25 400 45 546 59c146 13 270 20 371 20c337 2 550 -96 568 -184v-3c0 -6 -3 -9 -9 -9c-4 0 -7 1 -9 2c-44 21 -114 39 -209 52s-205 20 -330 20c-323 0 -682 -21 -1113 -52l-42 -3c-235 -17 -385 -25 -451 -25c-284 0 -420 102 -420 265z" />
    <glyph glyph-name="V.ss16" horiz-adv-x="684" 
d="M176 29c0 41 8 98 24 171l66 284l8 39c8 36 15 73 15 94c0 33 -13 51 -49 51c-80 0 -141 -97 -141 -192c0 -30 6 -58 18 -83c1 -2 2 -5 2 -9c0 -5 -3 -8 -10 -9c-64 -5 -107 44 -107 115c-3 102 117 245 250 240c104 0 159 -61 159 -177c0 -31 -4 -67 -12 -106l-59 -270
c-5 -21 -10 -42 -13 -62l235 326c48 67 92 121 132 163c80 84 190 144 341 144c76 0 183 -10 363 -33l24 -3c190 -21 356 -37 499 -49c143 -11 295 -17 456 -17c251 0 441 26 528 69c4 1 6 2 7 2c7 0 10 -4 9 -11c-13 -84 -216 -168 -555 -167c-108 0 -231 7 -370 22
c-138 15 -301 35 -488 61c-131 17 -234 30 -310 39s-136 13 -180 13c-51 0 -97 -10 -137 -29s-79 -48 -117 -87c-37 -39 -84 -94 -140 -167l-354 -462c-3 -5 -9 -8 -18 -8c-52 4 -76 36 -76 108z" />
    <glyph glyph-name="W.ss16" horiz-adv-x="1005" 
d="M178 38c0 39 8 93 23 162l65 284l6 27c12 51 18 86 18 105c0 35 -14 52 -50 52c-83 0 -140 -96 -140 -191c0 -31 6 -59 18 -84l2 -8c0 -6 -4 -9 -11 -10c-64 -5 -107 44 -107 115c-3 102 117 245 250 240c103 0 160 -61 160 -177c0 -27 -4 -63 -13 -106l-59 -270l-8 -39
l316 523c4 6 10 9 17 9h117c9 0 13 -6 12 -15l-84 -501l175 287c39 63 79 116 121 160c84 89 200 147 352 147c76 0 183 -10 363 -33c191 -22 361 -39 508 -51c148 -12 305 -18 471 -18c251 0 441 26 528 69c4 1 6 2 7 2c7 0 10 -4 9 -11c-13 -84 -216 -168 -555 -167
c-216 0 -486 31 -858 83c-131 17 -234 30 -310 39s-136 13 -180 13c-162 -3 -255 -71 -395 -283l-297 -461c-3 -6 -9 -9 -17 -9c-52 4 -74 39 -74 116c0 39 6 93 17 163l47 280l-336 -550c-4 -6 -10 -9 -17 -9c-61 3 -91 38 -91 117z" />
    <glyph glyph-name="Y.ss16" horiz-adv-x="735" 
d="M-19 -199c0 81 103 171 389 183l58 125c-56 -61 -111 -87 -170 -87c-68 0 -111 42 -111 118c0 48 16 105 49 171l87 174c23 45 34 85 34 118c0 40 -20 65 -60 65c-81 0 -141 -97 -141 -192c0 -31 6 -59 18 -83c1 -2 2 -5 2 -9c0 -5 -3 -8 -10 -9c-65 -5 -108 44 -108 115
c-3 102 117 245 250 240c96 0 177 -67 177 -172c0 -44 -13 -91 -39 -141l-67 -131c-20 -39 -30 -72 -30 -97c0 -29 15 -46 38 -46c53 0 125 69 217 257l121 260c3 7 8 10 17 10h124c9 0 14 -7 10 -16l-313 -673c93 -4 271 -18 532 -43l102 -9c297 -28 553 -50 766 -66
c214 -16 405 -24 572 -24c130 0 247 5 350 16c104 11 180 25 227 44c4 1 6 2 7 2c7 0 10 -5 7 -13c-34 -84 -252 -172 -614 -171c-146 0 -314 11 -504 32c-189 21 -425 52 -707 91l-34 5c-198 28 -351 49 -459 62s-198 21 -271 24c-90 -163 -202 -245 -335 -245
c-51 0 -94 11 -129 32s-52 49 -52 83zM347 -66c-224 -14 -297 -79 -297 -129c0 -36 41 -57 89 -57c84 0 153 62 208 186z" />
    <glyph glyph-name="C.ss17" horiz-adv-x="575" 
d="M23 143c0 91 23 183 70 276s109 169 185 229c77 60 156 90 238 90c107 0 158 -64 158 -128c0 -55 -34 -100 -85 -100c-35 0 -53 20 -53 48c0 31 22 61 55 72c-3 27 -27 48 -66 48c-47 0 -99 -29 -154 -88s-102 -132 -141 -220c-38 -87 -57 -171 -57 -251
c0 -93 30 -169 89 -226c60 -58 155 -87 286 -87c57 0 124 5 200 15c77 9 180 24 309 45c127 21 234 37 319 48c86 11 161 16 226 16c136 0 243 -32 298 -81c3 -3 5 -6 5 -9c0 -5 -3 -8 -10 -10l-226 -69c-1 -1 -3 -1 -6 -1c-4 0 -8 1 -13 4c-67 46 -161 69 -280 69
c-53 0 -109 -4 -168 -11s-135 -18 -229 -33s-174 -27 -239 -34c-65 -8 -128 -12 -188 -12c-370 0 -523 178 -523 400z" />
    <glyph glyph-name="E.ss17" horiz-adv-x="546" 
d="M-39 76c0 121 97 242 266 286c-49 33 -76 84 -76 139c-2 114 116 240 296 237c133 0 193 -69 193 -137c0 -49 -34 -91 -82 -91c-35 0 -53 20 -53 48c0 31 22 63 57 72c-9 28 -41 49 -100 49c-108 0 -187 -100 -187 -190c0 -45 19 -86 59 -109c24 1 43 2 56 2
c40 0 62 -14 62 -30c0 -17 -23 -32 -59 -32c-34 0 -65 4 -93 11c-121 -36 -196 -142 -196 -252c0 -143 127 -273 398 -273c70 0 148 5 234 16c87 10 195 25 324 44l26 4c123 19 225 34 307 45c83 10 155 15 217 15c136 0 243 -32 298 -81c3 -3 5 -6 5 -9c0 -5 -3 -8 -10 -10
l-226 -69c-1 -1 -3 -1 -6 -1c-4 0 -8 1 -13 4c-67 46 -162 69 -284 69c-55 0 -113 -4 -174 -11s-137 -18 -230 -32c-106 -15 -194 -27 -264 -35c-69 -8 -138 -12 -206 -12c-352 -4 -542 166 -539 333z" />
    <glyph glyph-name="C.ss18" horiz-adv-x="566" 
d="M29 158c0 90 23 180 68 270c46 91 106 165 180 223s151 87 230 87c108 0 159 -64 159 -128c0 -55 -35 -100 -86 -100c-35 0 -53 20 -53 48c0 31 22 61 55 72c-3 27 -27 48 -66 48c-45 0 -95 -28 -148 -84c-53 -55 -97 -125 -134 -210c-36 -84 -54 -166 -54 -246
c0 -103 35 -187 105 -252s182 -97 337 -97c174 0 356 6 546 19s424 31 703 55c239 21 434 36 583 47c150 10 287 15 410 15c64 0 136 -5 217 -14c81 -10 154 -23 221 -38c67 -16 113 -32 138 -49c4 -2 6 -5 6 -8c0 -5 -3 -9 -10 -11l-225 -69c-1 -1 -3 -1 -6 -1
c-4 0 -8 1 -13 4c-85 53 -280 75 -565 75c-129 0 -269 -4 -421 -11s-347 -18 -585 -33c-239 -15 -434 -26 -585 -33c-150 -7 -289 -11 -416 -11c-418 0 -591 194 -591 432z" />
    <glyph glyph-name="E.ss18" horiz-adv-x="547" 
d="M-38 68c0 127 95 248 266 294c-51 33 -77 83 -77 139c-2 114 117 240 297 237c132 0 192 -69 192 -137c0 -51 -33 -91 -82 -91c-35 0 -52 20 -52 48c0 31 23 63 56 72c-9 29 -40 49 -99 49c-109 0 -188 -100 -188 -190c0 -45 20 -86 60 -109c24 1 43 2 56 2
c40 0 62 -14 62 -30c0 -17 -23 -32 -59 -32c-34 0 -65 4 -93 11c-120 -38 -197 -148 -197 -260c-2 -146 129 -285 399 -282c131 0 288 7 471 21s405 33 666 58c40 4 71 7 93 8c187 17 331 29 434 37s186 12 250 12s136 -5 217 -14c81 -10 154 -23 221 -38
c67 -16 114 -32 139 -49c4 -2 6 -5 6 -8c0 -5 -3 -9 -10 -11l-226 -69c-1 -1 -3 -1 -6 -1c-4 0 -8 1 -13 4c-85 53 -267 75 -528 75c-120 0 -251 -4 -394 -12s-314 -19 -515 -34l-30 -2c-183 -13 -335 -23 -457 -30c-121 -7 -228 -10 -320 -10c-354 -3 -542 170 -539 342z
" />
    <glyph glyph-name="a" unicode="a" 
d="M-32 111c0 45 13 93 39 144c27 51 62 93 107 127c45 35 95 52 149 52c52 0 89 -17 111 -51l24 27c5 5 10 8 17 8h97c9 0 14 -7 10 -16l-98 -213c-13 -29 -20 -52 -20 -71c0 -24 12 -38 29 -38c35 0 79 55 130 160c3 7 8 10 17 10c12 0 27 -10 27 -22c0 -1 -1 -4 -2 -8
c-69 -147 -161 -235 -260 -235c-57 0 -90 31 -97 83c-49 -55 -103 -83 -161 -83c-80 0 -119 50 -119 126zM287 219l51 110c-9 27 -25 40 -50 40c-26 0 -52 -14 -79 -43c-27 -28 -49 -62 -67 -101s-27 -73 -27 -102c0 -33 13 -50 40 -50c44 0 92 59 132 146z" />
    <glyph glyph-name="aacute" unicode="&#xe1;" 
d="M-32 111c0 45 13 93 39 144c27 51 62 93 107 127c45 35 95 52 149 52c52 0 89 -17 111 -51l24 27c5 5 10 8 17 8h97c9 0 14 -7 10 -16l-98 -213c-13 -29 -20 -52 -20 -71c0 -24 12 -38 29 -38c35 0 79 55 130 160c3 7 8 10 17 10c12 0 27 -10 27 -22c0 -1 -1 -4 -2 -8
c-69 -147 -161 -235 -260 -235c-57 0 -90 31 -97 83c-49 -55 -103 -83 -161 -83c-80 0 -119 50 -119 126zM287 219l51 110c-9 27 -25 40 -50 40c-26 0 -52 -14 -79 -43c-27 -28 -49 -62 -67 -101s-27 -73 -27 -102c0 -33 13 -50 40 -50c44 0 92 59 132 146zM321 489
c0 2 1 5 4 9l116 144c5 7 11 8 19 5l57 -22c6 -2 9 -5 9 -10c0 -3 -2 -6 -5 -9l-138 -119c-4 -4 -10 -6 -17 -6h-33c-8 0 -12 3 -12 8z" />
    <glyph glyph-name="abreve" unicode="&#x103;" 
d="M-32 111c0 45 13 93 39 144c27 51 62 93 107 127c45 35 95 52 149 52c52 0 89 -17 111 -51l24 27c5 5 10 8 17 8h97c9 0 14 -7 10 -16l-98 -213c-13 -29 -20 -52 -20 -71c0 -24 12 -38 29 -38c35 0 79 55 130 160c3 7 8 10 17 10c12 0 27 -10 27 -22c0 -1 -1 -4 -2 -8
c-69 -147 -161 -235 -260 -235c-57 0 -90 31 -97 83c-49 -55 -103 -83 -161 -83c-80 0 -119 50 -119 126zM287 219l51 110c-9 27 -25 40 -50 40c-26 0 -52 -14 -79 -43c-27 -28 -49 -62 -67 -101s-27 -73 -27 -102c0 -33 13 -50 40 -50c44 0 92 59 132 146zM251 574
c0 15 2 30 7 46c3 8 9 12 16 12h12c9 0 13 -5 13 -15c-4 -39 19 -64 58 -64c40 0 99 26 128 70c4 6 10 9 17 9h13c7 0 10 -3 10 -10c0 -5 -1 -9 -4 -14c-43 -73 -119 -118 -182 -118c-51 0 -88 29 -88 84z" />
    <glyph glyph-name="acircumflex" unicode="&#xe2;" 
d="M-32 111c0 45 13 93 39 144c27 51 62 93 107 127c45 35 95 52 149 52c52 0 89 -17 111 -51l24 27c5 5 10 8 17 8h97c9 0 14 -7 10 -16l-98 -213c-13 -29 -20 -52 -20 -71c0 -24 12 -38 29 -38c35 0 79 55 130 160c3 7 8 10 17 10c12 0 27 -10 27 -22c0 -1 -1 -4 -2 -8
c-69 -147 -161 -235 -260 -235c-57 0 -90 31 -97 83c-49 -55 -103 -83 -161 -83c-80 0 -119 50 -119 126zM287 219l51 110c-9 27 -25 40 -50 40c-26 0 -52 -14 -79 -43c-27 -28 -49 -62 -67 -101s-27 -73 -27 -102c0 -33 13 -50 40 -50c44 0 92 59 132 146zM212 489
c0 3 2 6 5 9l139 136c5 5 10 7 17 7h55c8 0 14 -5 15 -13l24 -132v-4c0 -7 -4 -11 -12 -11h-29c-7 0 -13 4 -16 11l-29 83l-103 -88c-4 -4 -10 -6 -18 -6h-36c-8 0 -12 3 -12 8z" />
    <glyph glyph-name="adieresis" unicode="&#xe4;" 
d="M-32 111c0 45 13 93 39 144c27 51 62 93 107 127c45 35 95 52 149 52c52 0 89 -17 111 -51l24 27c5 5 10 8 17 8h97c9 0 14 -7 10 -16l-98 -213c-13 -29 -20 -52 -20 -71c0 -24 12 -38 29 -38c35 0 79 55 130 160c3 7 8 10 17 10c12 0 27 -10 27 -22c0 -1 -1 -4 -2 -8
c-69 -147 -161 -235 -260 -235c-57 0 -90 31 -97 83c-49 -55 -103 -83 -161 -83c-80 0 -119 50 -119 126zM287 219l51 110c-9 27 -25 40 -50 40c-26 0 -52 -14 -79 -43c-27 -28 -49 -62 -67 -101s-27 -73 -27 -102c0 -33 13 -50 40 -50c44 0 92 59 132 146zM385 544
c0 32 33 69 74 69c27 0 40 -14 40 -37c0 -32 -30 -67 -73 -67c-28 0 -41 15 -41 35zM244 544c0 32 33 69 74 69c27 0 40 -14 40 -37c0 -32 -30 -67 -73 -67c-28 0 -41 15 -41 35z" />
    <glyph glyph-name="agrave" unicode="&#xe0;" 
d="M-32 111c0 45 13 93 39 144c27 51 62 93 107 127c45 35 95 52 149 52c52 0 89 -17 111 -51l24 27c5 5 10 8 17 8h97c9 0 14 -7 10 -16l-98 -213c-13 -29 -20 -52 -20 -71c0 -24 12 -38 29 -38c35 0 79 55 130 160c3 7 8 10 17 10c12 0 27 -10 27 -22c0 -1 -1 -4 -2 -8
c-69 -147 -161 -235 -260 -235c-57 0 -90 31 -97 83c-49 -55 -103 -83 -161 -83c-80 0 -119 50 -119 126zM287 219l51 110c-9 27 -25 40 -50 40c-26 0 -52 -14 -79 -43c-27 -28 -49 -62 -67 -101s-27 -73 -27 -102c0 -33 13 -50 40 -50c44 0 92 59 132 146zM304 490l-74 123
c-1 2 -2 5 -2 8c0 6 3 9 9 10l65 17l5 1c6 0 10 -3 12 -10l50 -142c1 -1 1 -3 1 -6c0 -7 -4 -10 -12 -10h-37c-7 0 -13 3 -17 9z" />
    <glyph glyph-name="amacron" unicode="&#x101;" 
d="M-32 111c0 45 13 93 39 144c27 51 62 93 107 127c45 35 95 52 149 52c52 0 89 -17 111 -51l24 27c5 5 10 8 17 8h97c9 0 14 -7 10 -16l-98 -213c-13 -29 -20 -52 -20 -71c0 -24 12 -38 29 -38c35 0 79 55 130 160c3 7 8 10 17 10c12 0 27 -10 27 -22c0 -1 -1 -4 -2 -8
c-69 -147 -161 -235 -260 -235c-57 0 -90 31 -97 83c-49 -55 -103 -83 -161 -83c-80 0 -119 50 -119 126zM287 219l51 110c-9 27 -25 40 -50 40c-26 0 -52 -14 -79 -43c-27 -28 -49 -62 -67 -101s-27 -73 -27 -102c0 -33 13 -50 40 -50c44 0 92 59 132 146zM239 548l14 31
c3 7 8 11 17 11h218c11 0 15 -8 10 -17l-15 -31c-3 -7 -8 -10 -16 -10h-218c-9 0 -14 7 -10 16z" />
    <glyph glyph-name="aogonek" unicode="&#x105;" 
d="M234 -128c0 36 25 77 84 116c-41 8 -65 37 -70 80c-49 -55 -103 -83 -161 -83c-80 0 -119 50 -119 126c0 45 13 93 39 144c27 51 62 93 107 127c45 35 95 52 149 52c52 0 89 -17 111 -51l24 27c5 5 10 8 17 8h97c9 0 14 -7 10 -16l-98 -213c-13 -29 -20 -52 -20 -71
c0 -24 12 -38 29 -38c35 0 79 55 130 160c3 7 8 10 17 10c12 0 27 -10 27 -22c0 -1 -1 -4 -2 -8c-55 -113 -121 -193 -196 -222c-76 -43 -100 -79 -100 -106c0 -16 13 -26 33 -26c8 0 16 1 23 4c1 1 3 1 6 1c7 0 10 -4 10 -12v-29c0 -8 -3 -13 -10 -16
c-19 -9 -37 -13 -54 -13c-47 0 -83 27 -83 71zM287 219l51 110c-9 27 -25 40 -50 40c-26 0 -52 -14 -79 -43c-27 -28 -49 -62 -67 -101s-27 -73 -27 -102c0 -33 13 -50 40 -50c44 0 92 59 132 146z" />
    <glyph glyph-name="aring" unicode="&#xe5;" 
d="M-32 111c0 45 13 93 39 144c27 51 62 93 107 127c45 35 95 52 149 52c52 0 89 -17 111 -51l24 27c5 5 10 8 17 8h97c9 0 14 -7 10 -16l-98 -213c-13 -29 -20 -52 -20 -71c0 -24 12 -38 29 -38c35 0 79 55 130 160c3 7 8 10 17 10c12 0 27 -10 27 -22c0 -1 -1 -4 -2 -8
c-69 -147 -161 -235 -260 -235c-57 0 -90 31 -97 83c-49 -55 -103 -83 -161 -83c-80 0 -119 50 -119 126zM287 219l51 110c-9 27 -25 40 -50 40c-26 0 -52 -14 -79 -43c-27 -28 -49 -62 -67 -101s-27 -73 -27 -102c0 -33 13 -50 40 -50c44 0 92 59 132 146zM279 546
c0 27 11 50 32 68c22 18 47 27 74 27c41 0 70 -24 70 -65c0 -55 -49 -95 -105 -95c-41 0 -71 24 -71 65zM413 571c0 21 -14 36 -34 36c-29 0 -57 -26 -57 -57c0 -21 14 -35 35 -35c29 0 56 25 56 56z" />
    <glyph glyph-name="atilde" unicode="&#xe3;" 
d="M-32 111c0 45 13 93 39 144c27 51 62 93 107 127c45 35 95 52 149 52c52 0 89 -17 111 -51l24 27c5 5 10 8 17 8h97c9 0 14 -7 10 -16l-98 -213c-13 -29 -20 -52 -20 -71c0 -24 12 -38 29 -38c35 0 79 55 130 160c3 7 8 10 17 10c12 0 27 -10 27 -22c0 -1 -1 -4 -2 -8
c-69 -147 -161 -235 -260 -235c-57 0 -90 31 -97 83c-49 -55 -103 -83 -161 -83c-80 0 -119 50 -119 126zM287 219l51 110c-9 27 -25 40 -50 40c-26 0 -52 -14 -79 -43c-27 -28 -49 -62 -67 -101s-27 -73 -27 -102c0 -33 13 -50 40 -50c44 0 92 59 132 146zM346 531
c-21 16 -33 23 -50 23c-19 0 -41 -10 -57 -27c-5 -5 -8 -7 -11 -7c-2 0 -5 1 -8 3c-7 4 -9 10 -5 18c23 44 63 79 108 79c25 0 43 -9 68 -28c21 -15 36 -23 56 -23c25 0 52 16 71 40c5 8 11 10 18 6c7 -5 9 -11 5 -18c-24 -57 -65 -96 -118 -96c-31 0 -49 10 -77 30z" />
    <glyph glyph-name="ae" unicode="&#xe6;" horiz-adv-x="760" 
d="M308 69c-51 -55 -118 -88 -190 -88c-102 0 -158 70 -158 146c0 82 64 159 179 159c59 0 119 -16 180 -47c3 15 5 29 5 42c0 56 -29 94 -88 94c-39 0 -67 -14 -84 -43c-5 -10 -12 -12 -19 -6c-9 8 -13 17 -13 28c0 39 61 83 129 83c81 0 130 -38 147 -98
c56 59 129 95 206 95s121 -37 121 -89c3 -80 -107 -187 -278 -205v-9c0 -48 24 -77 79 -77c101 0 198 71 251 186c3 7 8 10 17 10c12 0 27 -10 27 -22c0 -1 -1 -4 -2 -8c-35 -75 -84 -134 -147 -177c-63 -42 -131 -63 -206 -63c-84 0 -136 34 -156 89zM302 187
c-41 21 -78 31 -111 31c-63 0 -98 -39 -98 -84c0 -39 26 -69 69 -69c56 0 111 53 140 122zM659 343c0 21 -16 36 -39 36c-58 0 -136 -97 -164 -185c129 20 203 101 203 149z" />
    <glyph glyph-name="b" unicode="b" horiz-adv-x="531" 
d="M66 44l-23 -35c-3 -6 -9 -9 -17 -9h-105c-9 0 -14 7 -10 16l104 224l196 420c3 7 8 10 17 10h120c9 0 14 -7 10 -16l-119 -254c35 23 72 34 109 34c79 0 119 -53 119 -130c0 -69 -33 -154 -85 -218c77 35 133 90 164 154c3 7 8 10 17 10c12 0 27 -10 27 -22
c0 -1 -1 -4 -2 -8c-72 -155 -247 -240 -396 -240c-73 0 -105 20 -126 64zM328 316c0 32 -12 51 -39 51c-47 0 -95 -62 -136 -150l-45 -99c5 -36 25 -55 53 -55c24 0 49 15 75 44s48 64 65 104c18 41 27 76 27 105z" />
    <glyph glyph-name="c" unicode="c" horiz-adv-x="423" 
d="M-29 125c0 44 14 90 41 139c28 49 65 89 111 121c46 33 95 49 148 49c81 0 122 -43 122 -95c0 -45 -29 -85 -74 -85c-32 0 -48 18 -48 46c0 21 17 49 42 61c-6 7 -15 11 -27 11c-63 6 -173 -154 -170 -241c0 -48 25 -77 80 -77c86 0 190 74 242 186c3 7 8 10 17 10
c12 0 27 -10 27 -22c0 -1 -1 -4 -2 -8c-35 -74 -84 -133 -147 -176s-128 -64 -197 -64c-111 0 -165 58 -165 145z" />
    <glyph glyph-name="cacute" unicode="&#x107;" horiz-adv-x="423" 
d="M-29 125c0 44 14 90 41 139c28 49 65 89 111 121c46 33 95 49 148 49c81 0 122 -43 122 -95c0 -45 -29 -85 -74 -85c-32 0 -48 18 -48 46c0 21 17 49 42 61c-6 7 -15 11 -27 11c-63 6 -173 -154 -170 -241c0 -48 25 -77 80 -77c86 0 190 74 242 186c3 7 8 10 17 10
c12 0 27 -10 27 -22c0 -1 -1 -4 -2 -8c-35 -74 -84 -133 -147 -176s-128 -64 -197 -64c-111 0 -165 58 -165 145zM287 489c0 2 1 5 4 9l116 144c5 7 11 8 19 5l57 -22c6 -2 9 -5 9 -10c0 -3 -2 -6 -5 -9l-138 -119c-4 -4 -10 -6 -17 -6h-33c-8 0 -12 3 -12 8z" />
    <glyph glyph-name="ccaron" unicode="&#x10d;" horiz-adv-x="423" 
d="M-29 125c0 44 14 90 41 139c28 49 65 89 111 121c46 33 95 49 148 49c81 0 122 -43 122 -95c0 -45 -29 -85 -74 -85c-32 0 -48 18 -48 46c0 21 17 49 42 61c-6 7 -15 11 -27 11c-63 6 -173 -154 -170 -241c0 -48 25 -77 80 -77c86 0 190 74 242 186c3 7 8 10 17 10
c12 0 27 -10 27 -22c0 -1 -1 -4 -2 -8c-35 -74 -84 -133 -147 -176s-128 -64 -197 -64c-111 0 -165 58 -165 145zM267 494l-14 132v2c0 9 4 13 13 13h28c8 0 13 -4 15 -12l23 -86l113 92c5 4 11 6 18 6h30c7 0 11 -2 11 -7c0 -3 -2 -7 -5 -10l-146 -136c-5 -5 -10 -7 -17 -7
h-55c-8 0 -13 4 -14 13z" />
    </font>
</defs>
</svg>
